<svg version="1.1" xmlns="http://www.w3.org/2000/svg" style="display: block;" viewBox="0 0 2048 1364" width="1024" height="682" preserveAspectRatio="none">
<defs>
	<linearGradient id="Gradient1" gradientUnits="userSpaceOnUse" x1="1135.21" y1="798.394" x2="1224.39" y2="976.796">
		<stop class="stop0" offset="0" stop-opacity="1" stop-color="rgb(77,83,87)"/>
		<stop class="stop1" offset="1" stop-opacity="1" stop-color="rgb(112,116,124)"/>
	</linearGradient>
	<linearGradient id="Gradient2" gradientUnits="userSpaceOnUse" x1="652.129" y1="834.162" x2="689.345" y2="774.474">
		<stop class="stop0" offset="0" stop-opacity="1" stop-color="rgb(92,96,100)"/>
		<stop class="stop1" offset="1" stop-opacity="1" stop-color="rgb(129,137,145)"/>
	</linearGradient>
	<linearGradient id="Gradient3" gradientUnits="userSpaceOnUse" x1="611.212" y1="881.692" x2="720.29" y2="761.855">
		<stop class="stop0" offset="0" stop-opacity="1" stop-color="rgb(53,55,60)"/>
		<stop class="stop1" offset="1" stop-opacity="1" stop-color="rgb(119,121,124)"/>
	</linearGradient>
	<linearGradient id="Gradient4" gradientUnits="userSpaceOnUse" x1="826.107" y1="801.52" x2="829.481" y2="739.107">
		<stop class="stop0" offset="0" stop-opacity="1" stop-color="rgb(142,147,150)"/>
		<stop class="stop1" offset="1" stop-opacity="1" stop-color="rgb(180,181,183)"/>
	</linearGradient>
	<linearGradient id="Gradient5" gradientUnits="userSpaceOnUse" x1="1030.86" y1="835.925" x2="1001.22" y2="792.947">
		<stop class="stop0" offset="0" stop-opacity="1" stop-color="rgb(194,26,2)"/>
		<stop class="stop1" offset="1" stop-opacity="1" stop-color="rgb(233,70,6)"/>
	</linearGradient>
	<linearGradient id="Gradient6" gradientUnits="userSpaceOnUse" x1="1023.04" y1="889.828" x2="955.971" y2="798.589">
		<stop class="stop0" offset="0" stop-opacity="1" stop-color="rgb(180,15,2)"/>
		<stop class="stop1" offset="1" stop-opacity="1" stop-color="rgb(203,54,4)"/>
	</linearGradient>
	<linearGradient id="Gradient7" gradientUnits="userSpaceOnUse" x1="768.155" y1="964.489" x2="760.554" y2="828.299">
		<stop class="stop0" offset="0" stop-opacity="1" stop-color="rgb(2,59,117)"/>
		<stop class="stop1" offset="1" stop-opacity="1" stop-color="rgb(4,105,171)"/>
	</linearGradient>
	<linearGradient id="Gradient8" gradientUnits="userSpaceOnUse" x1="1218.5" y1="793.895" x2="1222.54" y2="781.12">
		<stop class="stop0" offset="0" stop-opacity="1" stop-color="rgb(145,147,154)"/>
		<stop class="stop1" offset="1" stop-opacity="1" stop-color="rgb(168,173,178)"/>
	</linearGradient>
	<linearGradient id="Gradient9" gradientUnits="userSpaceOnUse" x1="1242.32" y1="898.426" x2="1263.55" y2="769.618">
		<stop class="stop0" offset="0" stop-opacity="1" stop-color="rgb(100,107,114)"/>
		<stop class="stop1" offset="1" stop-opacity="1" stop-color="rgb(209,212,213)"/>
	</linearGradient>
	<linearGradient id="Gradient10" gradientUnits="userSpaceOnUse" x1="1029.25" y1="657.033" x2="1024.23" y2="633.949">
		<stop class="stop0" offset="0" stop-opacity="1" stop-color="rgb(150,155,162)"/>
		<stop class="stop1" offset="1" stop-opacity="1" stop-color="rgb(178,182,186)"/>
	</linearGradient>
	<linearGradient id="Gradient11" gradientUnits="userSpaceOnUse" x1="1071.08" y1="628.177" x2="1049.2" y2="684.98">
		<stop class="stop0" offset="0" stop-opacity="1" stop-color="rgb(25,32,43)"/>
		<stop class="stop1" offset="1" stop-opacity="1" stop-color="rgb(58,66,78)"/>
	</linearGradient>
	<linearGradient id="Gradient12" gradientUnits="userSpaceOnUse" x1="1032.26" y1="651.279" x2="1050.47" y2="508.076">
		<stop class="stop0" offset="0" stop-opacity="1" stop-color="rgb(178,183,186)"/>
		<stop class="stop1" offset="1" stop-opacity="1" stop-color="rgb(255,255,255)"/>
	</linearGradient>
	<linearGradient id="Gradient13" gradientUnits="userSpaceOnUse" x1="1059.78" y1="743.711" x2="1052.78" y2="734.059">
		<stop class="stop0" offset="0" stop-opacity="1" stop-color="rgb(59,66,79)"/>
		<stop class="stop1" offset="1" stop-opacity="1" stop-color="rgb(90,95,98)"/>
	</linearGradient>
	<linearGradient id="Gradient14" gradientUnits="userSpaceOnUse" x1="1259.18" y1="575.235" x2="1251.35" y2="563.128">
		<stop class="stop0" offset="0" stop-opacity="1" stop-color="rgb(129,138,151)"/>
		<stop class="stop1" offset="1" stop-opacity="1" stop-color="rgb(161,167,174)"/>
	</linearGradient>
	<linearGradient id="Gradient15" gradientUnits="userSpaceOnUse" x1="1100.63" y1="791.214" x2="1058.55" y2="743.025">
		<stop class="stop0" offset="0" stop-opacity="1" stop-color="rgb(10,10,24)"/>
		<stop class="stop1" offset="1" stop-opacity="1" stop-color="rgb(50,54,69)"/>
	</linearGradient>
	<linearGradient id="Gradient16" gradientUnits="userSpaceOnUse" x1="1163.09" y1="646.005" x2="1175.91" y2="655.995">
		<stop class="stop0" offset="0" stop-opacity="1" stop-color="rgb(189,191,198)"/>
		<stop class="stop1" offset="1" stop-opacity="1" stop-color="rgb(212,220,221)"/>
	</linearGradient>
	<linearGradient id="Gradient17" gradientUnits="userSpaceOnUse" x1="1368.98" y1="693.12" x2="932.287" y2="721.626">
		<stop class="stop0" offset="0" stop-opacity="1" stop-color="rgb(8,25,51)"/>
		<stop class="stop1" offset="1" stop-opacity="1" stop-color="rgb(48,57,67)"/>
	</linearGradient>
	<linearGradient id="Gradient18" gradientUnits="userSpaceOnUse" x1="1446.65" y1="583.176" x2="1412.59" y2="538.45">
		<stop class="stop0" offset="0" stop-opacity="1" stop-color="rgb(64,76,92)"/>
		<stop class="stop1" offset="1" stop-opacity="1" stop-color="rgb(117,130,147)"/>
	</linearGradient>
	<linearGradient id="Gradient19" gradientUnits="userSpaceOnUse" x1="673.602" y1="394.818" x2="798.131" y2="312.852">
		<stop class="stop0" offset="0" stop-opacity="1" stop-color="rgb(200,204,210)"/>
		<stop class="stop1" offset="1" stop-opacity="1" stop-color="rgb(255,255,255)"/>
	</linearGradient>
	<linearGradient id="Gradient20" gradientUnits="userSpaceOnUse" x1="875.077" y1="244.987" x2="795.415" y2="320.877">
		<stop class="stop0" offset="0" stop-opacity="1" stop-color="rgb(141,155,168)"/>
		<stop class="stop1" offset="1" stop-opacity="1" stop-color="rgb(233,234,235)"/>
	</linearGradient>
	<linearGradient id="Gradient21" gradientUnits="userSpaceOnUse" x1="594.699" y1="643.774" x2="527.942" y2="465.488">
		<stop class="stop0" offset="0" stop-opacity="1" stop-color="rgb(119,134,151)"/>
		<stop class="stop1" offset="1" stop-opacity="1" stop-color="rgb(164,174,190)"/>
	</linearGradient>
	<linearGradient id="Gradient22" gradientUnits="userSpaceOnUse" x1="628.677" y1="557.542" x2="655.164" y2="647.918">
		<stop class="stop0" offset="0" stop-opacity="1" stop-color="rgb(80,101,115)"/>
		<stop class="stop1" offset="1" stop-opacity="1" stop-color="rgb(129,133,153)"/>
	</linearGradient>
	<linearGradient id="Gradient23" gradientUnits="userSpaceOnUse" x1="624.777" y1="598.426" x2="702.057" y2="599.386">
		<stop class="stop0" offset="0" stop-opacity="1" stop-color="rgb(141,153,166)"/>
		<stop class="stop1" offset="1" stop-opacity="1" stop-color="rgb(229,236,251)"/>
	</linearGradient>
	<linearGradient id="Gradient24" gradientUnits="userSpaceOnUse" x1="584.087" y1="431.967" x2="703.278" y2="378.887">
		<stop class="stop0" offset="0" stop-opacity="1" stop-color="rgb(197,205,217)"/>
		<stop class="stop1" offset="1" stop-opacity="1" stop-color="rgb(254,254,254)"/>
	</linearGradient>
	<linearGradient id="Gradient25" gradientUnits="userSpaceOnUse" x1="650.945" y1="422.769" x2="766.43" y2="384.132">
		<stop class="stop0" offset="0" stop-opacity="1" stop-color="rgb(146,156,169)"/>
		<stop class="stop1" offset="1" stop-opacity="1" stop-color="rgb(220,224,227)"/>
	</linearGradient>
	<linearGradient id="Gradient26" gradientUnits="userSpaceOnUse" x1="547.354" y1="754.858" x2="580.09" y2="695.944">
		<stop class="stop0" offset="0" stop-opacity="1" stop-color="rgb(49,64,84)"/>
		<stop class="stop1" offset="1" stop-opacity="1" stop-color="rgb(98,110,129)"/>
	</linearGradient>
	<linearGradient id="Gradient27" gradientUnits="userSpaceOnUse" x1="509.814" y1="633.651" x2="705.706" y2="483.683">
		<stop class="stop0" offset="0" stop-opacity="1" stop-color="rgb(47,63,81)"/>
		<stop class="stop1" offset="1" stop-opacity="1" stop-color="rgb(143,155,169)"/>
	</linearGradient>
	<linearGradient id="Gradient28" gradientUnits="userSpaceOnUse" x1="900.493" y1="270.151" x2="929.213" y2="257.833">
		<stop class="stop0" offset="0" stop-opacity="1" stop-color="rgb(173,180,193)"/>
		<stop class="stop1" offset="1" stop-opacity="1" stop-color="rgb(210,216,229)"/>
	</linearGradient>
	<linearGradient id="Gradient29" gradientUnits="userSpaceOnUse" x1="952.958" y1="217.369" x2="978.355" y2="240.341">
		<stop class="stop0" offset="0" stop-opacity="1" stop-color="rgb(199,206,224)"/>
		<stop class="stop1" offset="1" stop-opacity="1" stop-color="rgb(243,245,248)"/>
	</linearGradient>
	<linearGradient id="Gradient30" gradientUnits="userSpaceOnUse" x1="1399.95" y1="427.461" x2="1447.09" y2="521.395">
		<stop class="stop0" offset="0" stop-opacity="1" stop-color="rgb(98,113,128)"/>
		<stop class="stop1" offset="1" stop-opacity="1" stop-color="rgb(161,173,188)"/>
	</linearGradient>
	<linearGradient id="Gradient31" gradientUnits="userSpaceOnUse" x1="1281.52" y1="268.898" x2="1190.05" y2="253.679">
		<stop class="stop0" offset="0" stop-opacity="1" stop-color="rgb(99,112,132)"/>
		<stop class="stop1" offset="1" stop-opacity="1" stop-color="rgb(164,177,196)"/>
	</linearGradient>
	<linearGradient id="Gradient32" gradientUnits="userSpaceOnUse" x1="1154.02" y1="271.724" x2="1432.31" y2="378.562">
		<stop class="stop0" offset="0" stop-opacity="1" stop-color="rgb(39,52,68)"/>
		<stop class="stop1" offset="1" stop-opacity="1" stop-color="rgb(66,79,100)"/>
	</linearGradient>
	<linearGradient id="Gradient33" gradientUnits="userSpaceOnUse" x1="1219.6" y1="272.441" x2="1121" y2="432.468">
		<stop class="stop0" offset="0" stop-opacity="1" stop-color="rgb(71,86,102)"/>
		<stop class="stop1" offset="1" stop-opacity="1" stop-color="rgb(151,163,178)"/>
	</linearGradient>
	<linearGradient id="Gradient34" gradientUnits="userSpaceOnUse" x1="1167.16" y1="1077.81" x2="1235.67" y2="992.645">
		<stop class="stop0" offset="0" stop-opacity="1" stop-color="rgb(150,160,185)"/>
		<stop class="stop1" offset="1" stop-opacity="1" stop-color="rgb(240,243,242)"/>
	</linearGradient>
	<linearGradient id="Gradient35" gradientUnits="userSpaceOnUse" x1="1427.24" y1="798.27" x2="1478.32" y2="923.093">
		<stop class="stop0" offset="0" stop-opacity="1" stop-color="rgb(70,86,104)"/>
		<stop class="stop1" offset="1" stop-opacity="1" stop-color="rgb(105,117,134)"/>
	</linearGradient>
	<linearGradient id="Gradient36" gradientUnits="userSpaceOnUse" x1="901.521" y1="1088.86" x2="939.866" y2="1035.42">
		<stop class="stop0" offset="0" stop-opacity="1" stop-color="rgb(43,60,74)"/>
		<stop class="stop1" offset="1" stop-opacity="1" stop-color="rgb(84,93,122)"/>
	</linearGradient>
	<linearGradient id="Gradient37" gradientUnits="userSpaceOnUse" x1="951.467" y1="1064.14" x2="1232.85" y2="1198.81">
		<stop class="stop0" offset="0" stop-opacity="1" stop-color="rgb(50,63,86)"/>
		<stop class="stop1" offset="1" stop-opacity="1" stop-color="rgb(109,122,139)"/>
	</linearGradient>
	<linearGradient id="Gradient38" gradientUnits="userSpaceOnUse" x1="1442.22" y1="894.445" x2="1330.06" y2="963.613">
		<stop class="stop0" offset="0" stop-opacity="1" stop-color="rgb(62,74,91)"/>
		<stop class="stop1" offset="1" stop-opacity="1" stop-color="rgb(103,114,131)"/>
	</linearGradient>
	<linearGradient id="Gradient39" gradientUnits="userSpaceOnUse" x1="1191.78" y1="1122.25" x2="1317.3" y2="945.532">
		<stop class="stop0" offset="0" stop-opacity="1" stop-color="rgb(65,78,95)"/>
		<stop class="stop1" offset="1" stop-opacity="1" stop-color="rgb(128,139,153)"/>
	</linearGradient>
</defs>
<path transform="translate(0,0)" fill="rgb(255,255,255)" d="M 0 0 L 2048 0 L 2048 1364 L 0 1364 L 0 0 z"/>
<path transform="translate(0,0)" fill="rgb(16,37,65)" d="M 962.405 178.98 C 995.569 173.446 1053.36 172.217 1086.48 179.281 C 1091.03 199.333 1094.62 220.007 1099.27 239.721 C 1124.52 243.24 1157.65 251.922 1182.14 260.662 C 1193.11 247.488 1213.08 225.024 1222.46 211.916 C 1268.32 231.432 1292.59 245.783 1333.17 274.391 C 1326.59 294.72 1319.68 314.936 1312.42 335.031 C 1334.36 352.548 1354.76 371.901 1373.42 392.882 C 1392.73 385.269 1412.37 379.3 1431.51 371.72 C 1458.28 402.019 1481.44 445.994 1496.91 483.021 C 1484.34 494.36 1461.02 514.934 1447.44 525.17 C 1457 547.026 1467.01 587.306 1470.54 610.948 L 1531.81 621.799 C 1541.06 674.128 1538.26 700.03 1532.78 750.929 C 1512.29 755.1 1491.71 758.842 1471.06 762.153 C 1465.67 789.607 1459.34 818.571 1449.07 844.695 C 1464.29 857.969 1483.35 874.499 1497.4 888.706 C 1484.43 921.542 1458.02 972.432 1434.06 998.76 C 1416.45 993.663 1391.22 982.101 1373.25 975.215 C 1351.02 999.847 1338.82 1011.98 1313.26 1033.54 C 1321.13 1053.85 1326.22 1075.65 1333.91 1095.43 C 1300.18 1121.12 1263.41 1142.54 1224.44 1159.22 C 1211.14 1142.43 1195.45 1125.48 1182.7 1108.66 C 1151.76 1120.09 1133.19 1125.17 1100.43 1131.46 C 1096.64 1152.55 1092.66 1173.61 1088.51 1194.63 C 1059.43 1197.54 1034.45 1199.83 1004.96 1198.28 C 989.798 1197.48 976.484 1195.87 961.576 1194.57 C 957.499 1173.68 953.168 1152.46 949.414 1131.55 C 912.595 1124.33 901.257 1119.96 866.383 1108.35 C 859.606 1119.52 835.566 1146.41 825.418 1159.48 C 796.864 1146.46 737.814 1116.42 715.676 1094.63 C 722.906 1076.15 730.073 1052.79 736.54 1033.69 C 722.931 1022.17 711.474 1012.04 698.842 999.415 C 691.786 992.362 682.634 981.883 675.716 975.526 C 656.539 983.182 635.048 992.279 615.738 999.221 C 588.642 966.049 568.417 927.843 551.901 888.513 C 561.495 879.635 571.353 871.046 581.461 862.758 C 601.886 874.05 617.743 887.819 635.004 903.082 C 763.607 1016.79 933.871 1085.95 1105.38 1035.11 C 1159.58 1019.05 1197.97 999.279 1244.74 967.38 C 1245.1 966.001 1245.29 966.494 1244.89 965.805 C 1245.46 962.75 1246.48 958.7 1248.9 956.97 C 1259.56 957.23 1297.92 944.215 1304.08 937.457 L 1303.14 936.905 C 1298.47 938.955 1287.68 942.311 1282.63 941.801 L 1283.7 940.288 C 1313.06 935.693 1338.07 916.118 1357.52 894.621 C 1358.38 894.558 1359.23 894.496 1360.09 894.434 L 1364.11 898.267 C 1368.79 901.685 1371.81 904.291 1376.14 908.176 C 1397.45 872.266 1412.31 844.699 1424.07 804.094 C 1427.55 792.075 1429.25 778.107 1432.56 766.743 L 1432.72 766.191 C 1433.6 754.799 1435.5 743.471 1436.3 731.371 C 1438.46 696.057 1435.93 660.612 1428.76 625.965 C 1409.37 532.166 1354.47 446.428 1279.08 387.901 C 1003.32 173.828 588.336 388.897 662.808 749.98 C 668.546 748.031 676.921 743.903 682.635 741.295 C 677.936 720.598 675.089 699.523 674.129 678.321 C 671.147 612.592 688.05 547.491 722.631 491.514 C 729.647 480.141 739.836 465.065 748.865 455.266 C 748.979 477.768 748.096 501.465 747.592 524.043 C 752.056 527.537 758.028 531.293 762.823 534.494 C 778.938 544.852 792.038 552.775 808.645 562.274 L 807.852 545.924 C 801.747 543.296 769.804 521.517 762.897 516.906 C 762.962 493.05 762.455 465.538 763.911 441.99 C 803.212 413.449 843.945 388.519 885.802 364.022 L 886.001 592.895 L 885.995 658.579 C 885.982 666.634 886.241 687.024 885.083 694.058 C 888.184 694.025 892.26 694.517 894.517 692.741 C 895.626 685.137 895.061 654.143 895.131 644.684 C 894.444 638.641 894.833 621.942 894.841 615.379 L 894.927 557.115 L 895.04 367.454 L 1000.98 434.1 C 1001.4 448.104 1003.09 465.615 1004.08 479.847 C 986.549 481.264 978.692 482.069 961.878 487.62 C 964.33 492.308 967.689 495.338 969.424 500.555 C 970.321 504.212 989.664 524.58 994.717 524.54 L 1007.36 534.865 L 1018.48 544.496 L 1017.09 548.163 C 1019.87 548.494 1026.57 553.625 1027.86 555.64 C 1035.02 566.771 1030.4 587.109 1019.36 594.378 C 1002.27 605.226 986.61 583.616 976.13 573.151 C 967.417 564.882 960.374 544.275 949.06 539.877 C 938.949 535.946 923.694 574.12 922.957 580.589 C 916.113 640.656 957.306 687.667 1015.1 697.69 C 1018.87 698.343 1021.1 698.289 1024.81 697.858 L 1025.13 699.25 C 1020.35 706.149 994.311 729.792 986.642 735.714 C 971.466 731.077 952.996 727.989 937.131 725.438 C 836.404 709.238 733.146 726.661 643.311 775.014 C 624.237 785.178 606.409 796.917 588.078 808.311 C 584.119 792.961 580.739 777.467 577.946 761.863 C 558.165 759.321 536.281 754.859 516.495 751.183 C 510.57 710.997 507.938 661.953 517.16 622.067 C 534.849 618.689 562.158 614.835 578.251 610.744 C 582.61 581.373 590.581 552.653 601.983 525.236 C 585.887 512.656 566.509 496.674 551.795 482.413 C 567.783 446.731 591.126 400.622 617.585 371.458 C 637.166 378.105 656.663 384.993 676.073 392.122 C 694.703 371.929 715.036 350.838 737.224 334.539 C 730.643 314.235 723.234 294.238 716.862 273.903 C 752.276 248.803 785.876 227.149 827.022 211.768 C 840.526 227.977 853.884 244.306 867.096 260.754 C 893.966 250.914 921.674 243.534 949.879 238.704 C 954.296 218.842 958.103 198.867 962.405 178.98 z"/>
<path transform="translate(0,0)" fill="rgb(14,97,155)" d="M 763.911 441.99 C 803.212 413.449 843.945 388.519 885.802 364.022 L 886.001 592.895 L 885.995 658.579 C 885.982 666.634 886.241 687.024 885.083 694.058 C 881.994 677.656 886.468 645.494 880.832 633.811 C 875.345 629.953 873.57 638.692 869.461 639.037 C 865.107 639.403 860.409 639.246 855.708 640.001 C 853.847 637.818 853.771 635.293 853.24 632.363 L 852.833 641.837 C 850.394 628.829 855.258 592.431 852.991 582.988 C 850.29 584.636 852.094 623.989 850.36 630.42 L 849.832 628.272 C 851.005 615.74 851.362 588.321 848.448 576.458 C 845.73 565.397 818.697 551.413 807.852 545.924 C 801.747 543.296 769.804 521.517 762.897 516.906 C 762.962 493.05 762.455 465.538 763.911 441.99 z"/>
<path transform="translate(0,0)" fill="rgb(255,255,255)" d="M 833.116 428.931 C 832.772 431.243 832.412 433.553 832.036 435.861 C 830.72 434.209 831.422 430.234 831.508 427.543 C 833.947 423.03 858.704 409.992 863.989 408.055 L 864.405 409.399 L 862.047 411.444 L 862.325 465.936 C 854.195 470.321 841.559 477.657 833.509 481.277 C 833.684 470.116 834.544 438.867 833.116 428.931 z"/>
<path transform="translate(0,0)" fill="rgb(4,56,111)" d="M 833.116 428.931 C 832.772 431.243 832.412 433.553 832.036 435.861 C 830.72 434.209 831.422 430.234 831.508 427.543 C 833.947 423.03 858.704 409.992 863.989 408.055 L 864.405 409.399 L 862.047 411.444 C 853.389 417.471 842.407 423.652 833.116 428.931 z"/>
<path transform="translate(0,0)" fill="rgb(255,255,255)" d="M 787.438 449.162 C 789.016 448.173 790.618 447.221 792.242 446.309 C 796.472 443.937 812.467 434.267 816.179 435.302 L 816.03 437.258 L 816.039 489.7 C 812.724 491.393 800.512 497.316 798.523 499.593 C 796.958 502.775 792.62 502.507 790.896 508.127 C 790.576 509.172 790.311 508.937 789.042 509.436 C 788.536 508.564 787.785 455.48 787.438 449.162 z"/>
<path transform="translate(0,0)" fill="rgb(4,56,111)" d="M 787.438 449.162 C 789.016 448.173 790.618 447.221 792.242 446.309 C 796.472 443.937 812.467 434.267 816.179 435.302 L 816.03 437.258 L 791.743 451.658 C 791.61 463.615 790.674 490.37 791.757 501.131 C 794.354 502.034 795.368 500.896 798.523 499.593 C 796.958 502.775 792.62 502.507 790.896 508.127 C 790.576 509.172 790.311 508.937 789.042 509.436 C 788.536 508.564 787.785 455.48 787.438 449.162 z"/>
<path transform="translate(0,0)" fill="rgb(255,255,255)" d="M 860.944 489.877 C 863.608 493.284 862.713 528.228 862.73 535.079 C 853.156 538.667 844.783 541.865 835.484 546.07 L 834.716 545.903 C 832.608 543.028 833.613 509.834 833.66 503.894 L 860.944 489.877 z"/>
<path transform="translate(0,0)" fill="rgb(14,97,155)" d="M 895.04 367.454 L 1000.98 434.1 C 1001.4 448.104 1003.09 465.615 1004.08 479.847 C 986.549 481.264 978.692 482.069 961.878 487.62 C 964.33 492.308 967.689 495.338 969.424 500.555 C 970.321 504.212 989.664 524.58 994.717 524.54 L 1007.36 534.865 L 1018.48 544.496 L 1017.09 548.163 L 1016.52 550.373 L 1020.75 555.346 C 1022.79 557.719 1030.2 570.838 1029.29 573.028 C 1026 580.971 1017.56 596.785 1007.29 595.415 C 1001.62 592.194 998.349 587.276 993.719 583.417 C 977.531 569.922 967.089 554.348 955.948 536.72 C 954.418 534.3 953.478 532.839 950.396 534.068 C 917.791 546.292 912.488 587.364 918.755 617.301 C 919.438 620.564 921.952 629.939 921.463 632.668 C 919.791 633.124 920.553 633.269 919.104 632.528 C 918.382 636.136 919.087 635.24 916.819 637.508 C 908.493 638.95 901.13 628.617 896.075 633.194 C 896.086 636.059 896.498 642.544 895.131 644.684 C 894.444 638.641 894.833 621.942 894.841 615.379 L 894.927 557.115 L 895.04 367.454 z"/>
<path transform="translate(0,0)" fill="rgb(12,137,200)" d="M 903.701 383.512 C 908.621 385.726 928.572 398.543 934.418 402.406 C 951.615 413.767 977.382 427.338 992.675 439.969 C 992.652 442.028 992.857 447.79 992.157 449.282 L 991.998 441.977 C 987.481 434.999 957.128 418.307 947.059 411.511 C 942.562 408.775 940.309 406.34 935.095 405.676 L 933.568 407.005 C 934.946 411.863 935.439 413.012 932.876 417.103 C 924.877 422.411 916.091 421.685 907.172 420.44 L 905.506 421.775 C 904.483 425.872 904.935 468.664 904.896 475.996 L 904.838 475.245 L 904.547 476.321 C 904.227 447.477 902.669 411.825 903.701 383.512 z"/>
<path transform="translate(0,0)" fill="url(#Gradient39)" d="M 1319.66 944.157 C 1322.21 946.121 1322.34 947.817 1323.28 950.949 L 1324.7 951.006 C 1329.83 955.146 1327.94 966.289 1340.28 977.223 C 1337.01 980.254 1332.5 984.182 1329.85 987.592 L 1330.94 988.924 C 1329.54 990.443 1321.05 998.918 1320.75 999.317 C 1321.67 1002.06 1322.41 1004.46 1323.17 1007.24 C 1316.64 1012.84 1301.38 1024.03 1299.11 1031.47 C 1299.46 1034.83 1299.7 1035.72 1300.75 1038.95 C 1297.44 1039.8 1296.18 1039.95 1292.77 1040.22 L 1308.3 1086.73 C 1296.4 1096.18 1283.99 1103.97 1271.05 1111.92 C 1261.75 1115.12 1240.82 1128.86 1228.62 1134 C 1224.36 1127.05 1221.69 1122.68 1216.42 1116.43 C 1208.52 1107.05 1194.39 1094.8 1188.99 1084.01 C 1176.85 1089.11 1165.73 1092.59 1153 1095.95 C 1148.33 1087.91 1148.23 1084.57 1144.78 1076.28 C 1143.36 1072.88 1141.08 1072.73 1137.94 1071.67 L 1137.95 1070.81 C 1140.61 1070.63 1150.23 1067.39 1153.12 1066.39 C 1193.98 1052.26 1226.32 1032.53 1261.57 1008.51 C 1258.53 1007.77 1256.23 1007.77 1254.27 1005.86 L 1256.85 1001.29 C 1257.02 1001.04 1260.54 998.101 1261 997.708 C 1271.35 990.322 1283.57 978.558 1293.17 969.759 C 1301.74 962.384 1311.49 952.237 1319.66 944.157 z"/>
<path transform="translate(0,0)" fill="rgb(255,255,255)" d="M 1319.66 944.157 C 1322.21 946.121 1322.34 947.817 1323.28 950.949 C 1310.27 965.034 1298.74 979.732 1285.92 993.511 C 1283.41 996.209 1267.3 1004.07 1261.57 1008.51 C 1258.53 1007.77 1256.23 1007.77 1254.27 1005.86 L 1256.85 1001.29 C 1257.02 1001.04 1260.54 998.101 1261 997.708 C 1271.35 990.322 1283.57 978.558 1293.17 969.759 C 1301.74 962.384 1311.49 952.237 1319.66 944.157 z"/>
<path transform="translate(0,0)" fill="rgb(255,255,255)" d="M 1320.75 999.317 C 1321.67 1002.06 1322.41 1004.46 1323.17 1007.24 C 1316.64 1012.84 1301.38 1024.03 1299.11 1031.47 C 1299.46 1034.83 1299.7 1035.72 1300.75 1038.95 C 1297.44 1039.8 1296.18 1039.95 1292.77 1040.22 L 1289.01 1026.75 C 1296.05 1019.5 1312.2 1007.02 1320.75 999.317 z"/>
<path transform="translate(0,0)" fill="url(#Gradient38)" d="M 1432.72 766.191 C 1438.89 775.549 1412.76 835.557 1410.47 849.365 C 1417.62 855.786 1417.55 853.384 1422.9 862.24 C 1429.42 873.014 1446.43 914.154 1455.45 920.416 C 1459.77 916.399 1467.36 900.227 1470.33 894.308 C 1462.89 887.156 1454.12 881.016 1447.96 873.324 C 1452.39 875.746 1468.44 889.903 1472.24 893.93 C 1466.06 906.127 1459.86 918.787 1453.21 930.699 C 1446.87 941.324 1434.15 964.213 1426.29 972.624 C 1405.39 964.575 1388.8 957.812 1368.42 948.537 C 1365.27 951.989 1352.62 964.845 1350.74 968.11 C 1346.62 972.974 1335.66 985.119 1330.94 988.924 L 1329.85 987.592 C 1332.5 984.182 1337.01 980.254 1340.28 977.223 C 1327.94 966.289 1329.83 955.146 1324.7 951.006 L 1323.28 950.949 C 1322.34 947.817 1322.21 946.121 1319.66 944.157 C 1326.64 933.446 1355.69 907.097 1360.09 894.434 L 1364.11 898.267 C 1368.79 901.685 1371.81 904.291 1376.14 908.176 C 1397.45 872.266 1412.31 844.699 1424.07 804.094 C 1427.55 792.075 1429.25 778.107 1432.56 766.743 L 1432.72 766.191 z"/>
<path transform="translate(0,0)" fill="rgb(128,138,151)" d="M 1360.09 894.434 L 1364.11 898.267 C 1353.88 916.19 1333.82 936.085 1324.7 951.006 L 1323.28 950.949 C 1322.34 947.817 1322.21 946.121 1319.66 944.157 C 1326.64 933.446 1355.69 907.097 1360.09 894.434 z"/>
<path transform="translate(0,0)" fill="rgb(60,63,69)" d="M 682.635 741.295 C 677.936 720.598 675.089 699.523 674.129 678.321 C 671.147 612.592 688.05 547.491 722.631 491.514 C 729.647 480.141 739.836 465.065 748.865 455.266 C 748.979 477.768 748.096 501.465 747.592 524.043 C 752.056 527.537 758.028 531.293 762.823 534.494 C 761.735 536.152 760.161 538.058 759.985 539.917 C 748.288 547.765 706.513 575.523 698.324 584.53 C 689.727 617.955 689.974 702.204 695.225 737.11 C 690.839 738.972 687.377 740.721 682.635 741.295 z"/>
<path transform="translate(0,0)" fill="rgb(60,63,69)" d="M 762.823 534.494 C 778.938 544.852 792.038 552.775 808.645 562.274 L 807.852 545.924 C 818.697 551.413 845.73 565.397 848.448 576.458 C 851.362 588.321 851.005 615.74 849.832 628.272 C 847.773 638.008 849.38 678.236 847.497 690.96 C 846.894 691.426 846.29 691.892 845.687 692.358 C 841.648 692.039 843.101 692.653 840.114 690.193 C 836.079 682.215 838.568 660.29 837.848 649.122 C 838.582 635.952 839.857 594.482 833.434 582.512 C 831.485 579.414 828.62 576.316 824.829 575.721 C 812.762 573.829 796.099 547.895 784.112 556.672 C 780.594 566.567 782.093 682.317 782.09 700.852 L 768.78 705.712 C 768.842 666.366 768.23 625.276 767.628 585.865 C 767.574 574.42 767.858 561.934 766.596 550.534 C 765.986 545.022 764.828 542.344 759.985 539.917 C 760.161 538.058 761.735 536.152 762.823 534.494 z"/>
<path transform="translate(0,0)" fill="rgb(38,50,69)" d="M 568.697 891.568 C 575.194 886.92 583.668 876.277 590.48 874.703 C 590.64 879.641 581.871 887.499 578.52 894.319 L 578.018 895.361 C 586.176 915.418 610.42 954.96 622.455 972.98 C 641.724 965.227 655.761 960.558 675.133 951.433 C 681.751 957.768 692.306 963.558 698.967 970.196 C 713.482 984.661 744.279 1016.87 761.35 1025.37 C 755.595 1044.58 748.075 1063.63 742.152 1082.85 C 740.045 1089.69 747.644 1093.54 753.302 1096.93 C 774.764 1109.75 796.246 1121.79 818.762 1132.77 C 831.898 1120.18 847.122 1097.34 861.155 1083.13 C 881.53 1091.6 902.359 1098.22 923.678 1103.92 C 932.948 1106.4 944.414 1107.31 953.193 1110.13 C 947.113 1111.32 934.761 1107.12 930.491 1110.53 C 936.911 1114.88 939.267 1112.38 943.331 1115.99 C 925.679 1114.35 879.598 1099.3 863.608 1092.04 C 849.743 1107.36 835.395 1128.32 821.196 1142.57 C 799.152 1131.8 777.976 1120.12 757.437 1106.99 C 730.076 1089.49 731.4 1091.4 741.495 1061.56 C 745.32 1050.25 748.437 1039.61 752.677 1029.1 C 730.332 1011.53 709.755 992.596 690.972 971.233 C 687.313 967.07 684.693 963.45 680.534 959.613 C 675.653 958.986 629.07 978.47 620.27 981.942 C 599.517 953.995 582.201 923.652 568.697 891.568 z"/>
<path transform="translate(0,0)" fill="rgb(4,56,111)" d="M 852.833 641.837 C 853.108 649.492 849.494 688.682 846.351 693.633 C 843.51 695.542 844.915 695.259 841.299 694.553 C 838.516 692.126 837.068 691.373 837.173 687.157 C 837.405 677.831 834.734 628.107 832.371 621.815 C 825.235 630.206 819.86 634.853 809.273 638.825 C 800.134 642.253 794.282 635.035 788.759 636.331 C 787.422 639.659 787.673 641.464 787.652 645.029 L 786.677 645.171 C 784.707 637.055 784.611 570.243 785.752 560.47 C 791.821 557.255 827.052 580.631 832.23 585.635 C 839.174 592.345 832.099 640.231 837.848 649.122 C 838.568 660.29 836.079 682.215 840.114 690.193 C 843.101 692.653 841.648 692.039 845.687 692.358 C 846.29 691.892 846.894 691.426 847.497 690.96 C 849.38 678.236 847.773 638.008 849.832 628.272 L 850.36 630.42 C 852.094 623.989 850.29 584.636 852.991 582.988 C 855.258 592.431 850.394 628.829 852.833 641.837 z"/>
<path transform="translate(0,0)" fill="url(#Gradient37)" d="M 1188.99 1084.01 C 1194.39 1094.8 1208.52 1107.05 1216.42 1116.43 C 1221.69 1122.68 1224.36 1127.05 1228.62 1134 C 1240.82 1128.86 1261.75 1115.12 1271.05 1111.92 C 1271.46 1114.35 1272 1117.07 1272.26 1119.51 C 1268.54 1123.62 1234.14 1139.47 1227.72 1141.9 C 1218.02 1128.21 1197.56 1105.4 1185.89 1092.02 C 1150.77 1108.3 1124.78 1111.26 1089.28 1119.53 L 1076.79 1181.91 C 1038.51 1184.85 1011.87 1184.4 974.093 1181.46 C 969.251 1161.28 964.942 1139.58 960.526 1119.19 C 954.893 1118.01 949.111 1117.21 943.331 1115.99 C 939.267 1112.38 936.911 1114.88 930.491 1110.53 C 934.761 1107.12 947.113 1111.32 953.193 1110.13 C 958.137 1110.91 962.589 1111.59 967.465 1112.72 C 967.571 1117.96 977.443 1168.47 979.236 1175.45 C 1018.49 1177.37 1032.03 1177.23 1070.34 1174.48 C 1071.13 1170.11 1075.78 1143.24 1076.73 1141.06 C 1079.17 1132.4 1080.66 1121.48 1083.16 1112.06 C 1104.95 1108.95 1132.62 1103.18 1153 1095.95 C 1165.73 1092.59 1176.85 1089.11 1188.99 1084.01 z"/>
<path transform="translate(0,0)" fill="rgb(4,56,111)" d="M 759.985 539.917 C 764.828 542.344 765.986 545.022 766.596 550.534 C 767.858 561.934 767.574 574.42 767.628 585.865 L 766.72 586.377 C 764.744 583.228 767.358 557.391 764.642 550.158 C 764.76 554.219 764.724 562.522 764.251 566.596 C 762.693 580.015 768.493 658.942 764.5 664.796 C 762.616 660.441 765.825 629.047 762.556 617.948 L 757.773 617.714 C 755.056 616.147 753.194 612.423 752.081 609.546 C 743.696 611.51 733.106 621.581 724.219 623.566 C 720.613 622.215 724.874 606.151 719.189 600.502 C 711.725 602.693 711.483 604.233 705.434 599.437 C 704.638 603.584 701.265 627.036 700.083 628.458 L 698.678 627.368 C 699.243 619.68 702.238 596.032 704.988 589.347 C 710.079 576.973 756.889 552.16 761.538 542.837 C 755.147 540.811 709.784 581.513 698.324 584.53 C 706.513 575.523 748.288 547.765 759.985 539.917 z"/>
<path transform="translate(0,0)" fill="rgb(255,255,255)" d="M 750.066 574.838 L 751.348 575.965 C 752.26 583.789 751.658 598.906 751.541 607.327 L 725.644 620.927 L 724.584 620.336 C 723.644 615.663 724.091 597.683 724.125 591.947 C 731.229 586.405 742.223 579.824 750.066 574.838 z"/>
<path transform="translate(0,0)" fill="url(#Gradient36)" d="M 834.124 1040.62 C 854.496 1046.33 877.606 1054.24 898.337 1060.23 C 959.137 1077.79 1001.02 1081.95 1063.37 1077.79 C 1065.82 1076.64 1090.82 1073.5 1096.28 1072.52 L 1097.74 1073.35 C 1109.3 1073.18 1143.94 1059.45 1149.51 1062.62 L 1149.92 1064.81 C 1147.95 1067.34 1140.94 1068.94 1137.36 1070.09 L 1137.95 1070.81 L 1137.94 1071.67 C 1109.53 1079.8 1083.79 1085.92 1053.88 1087.14 C 1045.09 1089.69 1021.89 1088.47 1011.69 1089.15 C 969.7 1091.57 866.01 1065.93 834.124 1040.62 z"/>
<path transform="translate(0,0)" fill="rgb(128,138,151)" d="M 1096.28 1072.52 L 1097.74 1073.35 C 1109.3 1073.18 1143.94 1059.45 1149.51 1062.62 L 1149.92 1064.81 C 1147.95 1067.34 1140.94 1068.94 1137.36 1070.09 L 1137.95 1070.81 L 1137.94 1071.67 C 1109.53 1079.8 1083.79 1085.92 1053.88 1087.14 L 1052.89 1086.02 C 1046.36 1086.98 1005.92 1089.13 1000.6 1085.81 C 1001.32 1084.33 1002.38 1081.37 1004.54 1081.21 C 1021.11 1080.01 1048.27 1083.9 1063.37 1077.79 C 1065.82 1076.64 1090.82 1073.5 1096.28 1072.52 z"/>
<path transform="translate(0,0)" fill="url(#Gradient35)" d="M 1447.96 873.324 C 1445.95 872.926 1424.44 854.633 1424.52 853.074 C 1425.44 836.644 1443.1 792.238 1447.49 776.345 C 1451.54 761.669 1446.38 751.52 1452.22 743.366 C 1457.19 741.96 1465.7 740.762 1470.71 741.446 C 1469.44 742.034 1469.26 742.183 1467.92 742.065 C 1445.77 740.128 1453.17 759.334 1450.2 773.205 C 1449.16 778.02 1446.99 784.537 1445.35 789.629 L 1445.77 790.687 C 1457.02 787.58 1453.16 754.871 1459.48 749.165 C 1462.17 748.87 1461.74 748.496 1463.72 749.54 C 1462.51 749.814 1459.65 750.038 1459.43 751.151 C 1452.7 784.966 1445.85 816.478 1432.49 848.695 C 1444.15 859.407 1468.87 881.753 1481.05 891.532 C 1474.05 906.989 1468.13 919.876 1459.67 934.725 C 1457.32 932.657 1456.03 932.153 1453.21 930.699 C 1459.86 918.787 1466.06 906.127 1472.24 893.93 C 1468.44 889.903 1452.39 875.746 1447.96 873.324 z"/>
<path transform="translate(0,0)" fill="url(#Gradient34)" d="M 1096.28 1072.52 C 1157.57 1060.06 1206.15 1037.32 1256.85 1001.29 L 1254.27 1005.86 C 1256.23 1007.77 1258.53 1007.77 1261.57 1008.51 C 1226.32 1032.53 1193.98 1052.26 1153.12 1066.39 C 1150.23 1067.39 1140.61 1070.63 1137.95 1070.81 L 1137.36 1070.09 C 1140.94 1068.94 1147.95 1067.34 1149.92 1064.81 L 1149.51 1062.62 C 1143.94 1059.45 1109.3 1073.18 1097.74 1073.35 L 1096.28 1072.52 z"/>
<path transform="translate(0,0)" fill="rgb(128,138,151)" d="M 1453.21 930.699 C 1456.03 932.153 1457.32 932.657 1459.67 934.725 C 1451.05 949.598 1439.65 968.321 1429.66 982.341 C 1412.29 975.488 1386.14 965.955 1369.53 957.954 C 1367.51 960.315 1358.75 970.869 1356.99 972.239 C 1355.7 970.512 1352.73 969.198 1350.74 968.11 C 1352.62 964.845 1365.27 951.989 1368.42 948.537 C 1388.8 957.812 1405.39 964.575 1426.29 972.624 C 1434.15 964.213 1446.87 941.324 1453.21 930.699 z"/>
<path transform="translate(0,0)" fill="rgb(60,63,69)" d="M 1053.88 1087.14 C 1083.79 1085.92 1109.53 1079.8 1137.94 1071.67 C 1141.08 1072.73 1143.36 1072.88 1144.78 1076.28 C 1148.23 1084.57 1148.33 1087.91 1153 1095.95 C 1132.62 1103.18 1104.95 1108.95 1083.16 1112.06 C 1080.66 1121.48 1079.17 1132.4 1076.73 1141.06 C 1074.98 1136.4 1079.66 1117.1 1081.69 1111.97 C 1086.84 1106.15 1132.33 1107.31 1137.89 1095.1 C 1136.96 1088.11 1126.3 1081.27 1119.12 1080.54 C 1107.43 1079.35 1096.14 1084.81 1085.4 1085.86 C 1065.66 1087.77 1031.55 1093.73 1012.73 1089.4 L 1011.69 1089.15 C 1021.89 1088.47 1045.09 1089.69 1053.88 1087.14 z"/>
<path transform="translate(0,0)" fill="rgb(226,227,229)" d="M 1300.75 1038.95 C 1303.76 1047.87 1317.19 1085.24 1316.12 1090.85 L 1314 1093.16 C 1311.3 1090.27 1310.2 1090.95 1308.3 1086.73 L 1292.77 1040.22 C 1296.18 1039.95 1297.44 1039.8 1300.75 1038.95 z"/>
<path transform="translate(0,0)" fill="rgb(162,171,183)" d="M 1308.3 1086.73 C 1310.2 1090.95 1311.3 1090.27 1314 1093.16 C 1300.8 1100.14 1286.9 1112.21 1272.26 1119.51 C 1272 1117.07 1271.46 1114.35 1271.05 1111.92 C 1283.99 1103.97 1296.4 1096.18 1308.3 1086.73 z"/>
<path transform="translate(0,0)" fill="rgb(185,192,199)" d="M 1350.74 968.11 C 1352.73 969.198 1355.7 970.512 1356.99 972.239 C 1348.19 982.652 1333.26 998.016 1323.17 1007.24 C 1322.41 1004.46 1321.67 1002.06 1320.75 999.317 C 1321.05 998.918 1329.54 990.443 1330.94 988.924 C 1335.66 985.119 1346.62 972.974 1350.74 968.11 z"/>
<path transform="translate(0,0)" fill="rgb(38,50,69)" d="M 1261 997.708 C 1261.16 989.529 1278.25 977.389 1284.02 972.104 C 1287.48 968.932 1288.75 969.437 1293.17 969.759 C 1283.57 978.558 1271.35 990.322 1261 997.708 z"/>
<path transform="translate(0,0)" fill="url(#Gradient33)" d="M 1003.73 188.88 C 1017.04 187.271 1037.6 188.124 1051.18 189.141 C 1057.57 188.871 1065.48 190.322 1071.95 191.256 C 1074.19 192.344 1075.01 192.349 1075.71 195.523 C 1079.56 212.915 1085.67 234.542 1088.45 251.845 C 1098.39 253.074 1116.35 254.875 1125.01 258.215 C 1135.14 259.995 1165.61 267.495 1174.23 272.42 C 1175.63 272.668 1184.35 275.713 1186.23 276.338 C 1196.56 264.746 1217.53 240.371 1225.67 228.102 C 1244.95 236.061 1268.13 248.878 1285.82 259.657 C 1296.88 265.695 1305 271.135 1315.07 278.719 L 1316.96 279.977 C 1315.85 284.776 1313.09 290.891 1311.43 295.875 C 1306.69 310.047 1301.59 323.941 1296.18 337.873 C 1306.52 347.744 1318.41 356.955 1329.2 366.558 C 1344.84 380.481 1355.85 392.827 1368.82 408.98 C 1386.49 402.846 1410.21 395.157 1427.16 388.747 C 1433.7 395.735 1466.86 445.932 1466.53 452.671 C 1460.79 443.523 1435.12 397.525 1428.62 392.263 C 1428.04 394.417 1428.16 394.36 1428.48 396.603 L 1427.16 397.04 C 1433.1 404.914 1459.18 443.927 1461.33 451.989 L 1460.57 453.108 L 1472.16 477.504 C 1467.27 482.269 1428.32 515.137 1423.43 517.646 L 1420.08 517.725 C 1421.18 521.938 1423.25 524.034 1425.39 527.822 C 1422.04 532.833 1421.26 534.201 1416.12 537.563 C 1414.44 533.432 1410.76 521.706 1406.89 520.116 C 1392.82 492.272 1383.68 475.97 1365.55 450.604 C 1324.82 402.076 1292.25 368.054 1235.6 337.118 C 1132.6 280.872 1018.96 270.679 907.105 302.678 C 906.241 296.864 898.266 285.911 898.485 279.432 C 898.523 278.297 899.581 275.563 899.849 273.809 L 899.997 272.806 C 897.892 270.955 898.566 270.086 895.355 268.493 L 894.839 265.612 C 904.183 262.324 918.187 258.477 927.868 256.391 C 938.874 253.714 950.056 251.823 961.33 250.731 C 965.098 230.842 969.194 211.016 973.615 191.262 C 978.011 190.737 981.397 190.433 985.817 190.249 C 992.521 188.924 996.971 188.994 1003.73 188.88 z"/>
<path transform="translate(0,0)" fill="url(#Gradient32)" d="M 1225.67 228.102 C 1244.95 236.061 1268.13 248.878 1285.82 259.657 C 1296.88 265.695 1305 271.135 1315.07 278.719 L 1316.96 279.977 C 1315.85 284.776 1313.09 290.891 1311.43 295.875 C 1306.69 310.047 1301.59 323.941 1296.18 337.873 C 1306.52 347.744 1318.41 356.955 1329.2 366.558 C 1344.84 380.481 1355.85 392.827 1368.82 408.98 C 1386.49 402.846 1410.21 395.157 1427.16 388.747 C 1433.7 395.735 1466.86 445.932 1466.53 452.671 C 1460.79 443.523 1435.12 397.525 1428.62 392.263 C 1428.04 394.417 1428.16 394.36 1428.48 396.603 L 1427.16 397.04 C 1412.68 399.992 1381.04 412.353 1366.76 418.135 C 1360 410.49 1353.87 401.727 1346.38 394.525 C 1337.29 385.786 1327.46 377.263 1318.38 368.555 C 1315.81 366.097 1314.02 358.658 1309.82 354.477 C 1302.95 351.034 1292.28 354.028 1285.37 356.311 C 1285.72 356.193 1282.54 360.537 1282.37 360.745 C 1273.89 356.106 1261.49 344.619 1252.13 338.907 C 1215.43 316.505 1184.69 305.328 1144.48 292.265 C 1147.27 285.565 1149.96 279.906 1153.12 273.415 C 1159.72 275.528 1166.36 277.495 1173.04 279.313 C 1175.52 277.212 1181.66 282.621 1186.18 281.908 C 1183.61 274.474 1176.87 276.681 1174.23 272.42 C 1175.63 272.668 1184.35 275.713 1186.23 276.338 C 1196.56 264.746 1217.53 240.371 1225.67 228.102 z"/>
<path transform="translate(0,0)" fill="url(#Gradient31)" d="M 1225.67 228.102 C 1244.95 236.061 1268.13 248.878 1285.82 259.657 C 1282.35 261.114 1279.73 260.979 1276.02 261.129 C 1263.05 254.333 1241.55 242.454 1228.31 236.951 C 1215.49 253.472 1202.12 269.299 1189.2 285.747 L 1173.04 279.313 C 1175.52 277.212 1181.66 282.621 1186.18 281.908 C 1183.61 274.474 1176.87 276.681 1174.23 272.42 C 1175.63 272.668 1184.35 275.713 1186.23 276.338 C 1196.56 264.746 1217.53 240.371 1225.67 228.102 z"/>
<path transform="translate(0,0)" fill="rgb(89,98,108)" d="M 1285.82 259.657 C 1296.88 265.695 1305 271.135 1315.07 278.719 C 1306.45 284.159 1283.79 266.557 1276.02 261.129 C 1279.73 260.979 1282.35 261.114 1285.82 259.657 z"/>
<path transform="translate(0,0)" fill="url(#Gradient30)" d="M 1445.56 428.455 C 1448.59 432.854 1458.9 451.417 1460.57 453.108 L 1472.16 477.504 C 1467.27 482.269 1428.32 515.137 1423.43 517.646 L 1420.08 517.725 C 1421.18 521.938 1423.25 524.034 1425.39 527.822 C 1422.04 532.833 1421.26 534.201 1416.12 537.563 C 1414.44 533.432 1410.76 521.706 1406.89 520.116 C 1392.82 492.272 1383.68 475.97 1365.55 450.604 L 1366.07 448.802 L 1364.53 446.337 C 1366.51 444.784 1371.25 444.625 1373.91 444.22 C 1397.82 440.587 1422.63 436.153 1445.56 428.455 z"/>
<path transform="translate(0,0)" fill="url(#Gradient29)" d="M 973.615 191.262 C 978.011 190.737 981.397 190.433 985.817 190.249 C 988.541 190.974 993.041 191.4 995.026 192.992 C 993.13 194.826 988.74 195.68 985.715 197.099 C 983.672 197.533 980.497 197.712 980.052 199.292 C 975.04 217.09 971.883 239.752 967.375 257.455 C 962.53 258.25 943.173 261.803 939.409 261.9 C 935.945 261.827 933.726 261.814 930.246 261.242 C 927.763 258.627 928.384 259.917 927.868 256.391 C 938.874 253.714 950.056 251.823 961.33 250.731 C 965.098 230.842 969.194 211.016 973.615 191.262 z"/>
<path transform="translate(0,0)" fill="rgb(60,63,69)" d="M 1071.95 191.256 C 1074.19 192.344 1075.01 192.349 1075.71 195.523 C 1079.56 212.915 1085.67 234.542 1088.45 251.845 C 1098.39 253.074 1116.35 254.875 1125.01 258.215 C 1122.5 258.832 1121.09 257.797 1117.43 258.286 L 1115.87 261.125 L 1116.34 262.024 L 1121 260.112 L 1122.08 260.912 L 1121.65 262.362 C 1112.64 264.565 1092.5 259.96 1082.31 258.356 C 1079.21 244.637 1068.75 202.327 1071.95 191.256 z"/>
<path transform="translate(0,0)" fill="url(#Gradient28)" d="M 894.839 265.612 C 904.183 262.324 918.187 258.477 927.868 256.391 C 928.384 259.917 927.763 258.627 930.246 261.242 C 933.726 261.814 935.945 261.827 939.409 261.9 C 930.422 264.45 905.738 269.336 899.997 272.806 C 897.892 270.955 898.566 270.086 895.355 268.493 L 894.839 265.612 z"/>
<path transform="translate(0,0)" fill="rgb(128,138,151)" d="M 1003.73 188.88 C 1017.04 187.271 1037.6 188.124 1051.18 189.141 C 1049.05 192.251 1047.08 194.585 1043.1 194.822 C 1033.94 195.366 1014.26 196.559 1005.79 196.002 C 1009.83 194.769 1009.76 195.481 1012.24 192.522 L 1012.03 190.843 C 1009.09 188.587 1007.97 189.23 1003.73 188.88 z"/>
<path transform="translate(0,0)" fill="rgb(162,171,183)" d="M 985.817 190.249 C 992.521 188.924 996.971 188.994 1003.73 188.88 C 1007.97 189.23 1009.09 188.587 1012.03 190.843 L 1012.24 192.522 C 1009.76 195.481 1009.83 194.769 1005.79 196.002 C 1000.22 196.383 991.097 197.271 985.715 197.099 C 988.74 195.68 993.13 194.826 995.026 192.992 C 993.041 191.4 988.541 190.974 985.817 190.249 z"/>
<path transform="translate(0,0)" fill="url(#Gradient27)" d="M 741.956 347.777 C 746.507 346.31 748.772 343.808 751.912 342.734 C 751.335 344.134 749.476 348.379 749.425 349.668 C 745.281 355.171 726.645 367.467 727.77 374.823 C 728.983 382.752 741.312 387.524 739.786 397.653 C 730.87 410.363 714.542 420.363 703.042 439.831 L 706.383 444.333 C 698.501 454.697 686.629 470.778 681.307 482.849 C 681.73 488.712 656.002 530.073 655.971 541.198 L 657.169 541.429 C 665.475 535.046 662.88 529.95 666.751 525.631 C 663.834 534.126 660.448 542.482 657.674 551.009 C 640.218 601.906 636.043 638.57 635.91 691.339 C 636.666 703.206 637.765 715.05 639.206 726.854 C 639.961 732.563 643.91 754.727 643.432 758.777 C 641.018 760.607 640.701 760.734 637.876 761.904 L 631.99 764.877 C 626.547 768.262 609.111 778.732 604.85 782.209 L 597.428 787.373 C 594.805 776.537 592.647 762.703 590.6 751.548 C 577.676 747.981 541.289 740.791 528.241 739.626 C 526.551 709.489 521.839 681.758 526.937 650.748 C 526.936 646.005 528.122 638.413 528.741 633.489 C 544.809 631.818 573.644 625.347 590.421 622.102 C 597.045 580.856 601.763 560.439 617.629 521.829 C 601.57 506.942 584.646 493.729 568.474 478.868 C 574.109 466.332 579.124 455.335 585.946 443.413 C 595.953 423.863 609.073 405.117 621.648 387.154 C 641.804 394.079 659.67 400.303 679.712 407.959 C 687.704 399.851 696.241 389.618 704.545 380.942 C 712.852 372.267 732.817 354.103 741.956 347.777 z"/>
<path transform="translate(0,0)" fill="rgb(38,50,69)" d="M 526.937 650.748 C 527.294 656.147 527.599 661.548 527.853 666.952 L 529.638 667.345 C 531.505 663.81 530.964 663.055 532.99 659.769 C 532.838 665.461 532.641 670.359 532.128 676.024 C 544.813 679.165 556.809 683.466 569.032 686.613 C 579.979 691.111 610.767 697.79 623.058 699.521 C 623.623 704.866 624.132 710.347 624.938 715.648 C 625.415 723.52 629.733 757.512 631.99 764.877 C 626.547 768.262 609.111 778.732 604.85 782.209 L 597.428 787.373 C 594.805 776.537 592.647 762.703 590.6 751.548 C 577.676 747.981 541.289 740.791 528.241 739.626 C 526.551 709.489 521.839 681.758 526.937 650.748 z"/>
<path transform="translate(0,0)" fill="url(#Gradient26)" d="M 526.937 650.748 C 527.294 656.147 527.599 661.548 527.853 666.952 L 529.638 667.345 C 531.505 663.81 530.964 663.055 532.99 659.769 C 532.838 665.461 532.641 670.359 532.128 676.024 C 531.796 694.643 531.907 714.004 534.6 732.483 C 552.761 736.283 579.602 741.872 597.606 743.81 C 598.232 752.374 601.785 774.244 604.85 782.209 L 597.428 787.373 C 594.805 776.537 592.647 762.703 590.6 751.548 C 577.676 747.981 541.289 740.791 528.241 739.626 C 526.551 709.489 521.839 681.758 526.937 650.748 z"/>
<path transform="translate(0,0)" fill="url(#Gradient25)" d="M 741.956 347.777 C 746.507 346.31 748.772 343.808 751.912 342.734 C 751.335 344.134 749.476 348.379 749.425 349.668 C 745.281 355.171 726.645 367.467 727.77 374.823 C 728.983 382.752 741.312 387.524 739.786 397.653 C 730.87 410.363 714.542 420.363 703.042 439.831 C 699.265 445.187 692.418 455.428 688.379 460.232 L 686.812 460.043 C 685.503 458.943 685.887 459.247 685.11 458.031 C 679.197 448.767 670.613 440.432 663.774 431.486 C 657.475 423.246 652.111 414.166 645.622 406.268 C 644.301 404.66 643.245 403.762 641.645 401.66 C 635.66 399.512 630.68 397.826 624.558 396.082 C 611.746 414.673 603.674 427.449 592.303 447.11 C 590.373 443.813 589.29 443.993 585.946 443.413 C 595.953 423.863 609.073 405.117 621.648 387.154 C 641.804 394.079 659.67 400.303 679.712 407.959 C 687.704 399.851 696.241 389.618 704.545 380.942 C 712.852 372.267 732.817 354.103 741.956 347.777 z"/>
<path transform="translate(0,0)" fill="url(#Gradient24)" d="M 704.545 380.942 L 708.505 384.382 C 708.773 388.262 689.512 409.475 685.72 413.772 C 684.824 414.774 683.893 415.745 682.93 416.684 C 669.184 412.292 654.45 405.49 641.645 401.66 C 635.66 399.512 630.68 397.826 624.558 396.082 C 611.746 414.673 603.674 427.449 592.303 447.11 C 590.373 443.813 589.29 443.993 585.946 443.413 C 595.953 423.863 609.073 405.117 621.648 387.154 C 641.804 394.079 659.67 400.303 679.712 407.959 C 687.704 399.851 696.241 389.618 704.545 380.942 z"/>
<path transform="translate(0,0)" fill="url(#Gradient23)" d="M 703.042 439.831 L 706.383 444.333 C 698.501 454.697 686.629 470.778 681.307 482.849 C 681.73 488.712 656.002 530.073 655.971 541.198 L 657.169 541.429 C 665.475 535.046 662.88 529.95 666.751 525.631 C 663.834 534.126 660.448 542.482 657.674 551.009 C 640.218 601.906 636.043 638.57 635.91 691.339 C 636.666 703.206 637.765 715.05 639.206 726.854 C 639.961 732.563 643.91 754.727 643.432 758.777 C 641.018 760.607 640.701 760.734 637.876 761.904 L 631.99 764.877 C 629.733 757.512 625.415 723.52 624.938 715.648 C 624.132 710.347 623.623 704.866 623.058 699.521 C 622.879 683.496 622.415 666.176 623.55 650.271 C 628.194 585.162 650.071 513.535 688.379 460.232 C 692.418 455.428 699.265 445.187 703.042 439.831 z"/>
<path transform="translate(0,0)" fill="url(#Gradient22)" d="M 635.91 691.339 C 633.034 681.195 636.901 658.907 633.307 654.812 C 630.047 655.889 631.187 655.282 628.827 658.351 L 628.162 657.374 C 628.539 627.058 641.061 578.55 650.022 549.966 C 652.71 550.183 655.092 550.234 657.674 551.009 C 640.218 601.906 636.043 638.57 635.91 691.339 z"/>
<path transform="translate(0,0)" fill="rgb(128,138,151)" d="M 624.938 715.648 C 628.147 720.695 627.169 725.336 628.831 731.658 L 630.356 732.358 C 631.95 728.073 630.577 723.335 631.563 722.164 C 632.169 728.958 634.964 756.623 637.876 761.904 L 631.99 764.877 C 629.733 757.512 625.415 723.52 624.938 715.648 z"/>
<path transform="translate(0,0)" fill="rgb(60,63,69)" d="M 650.022 549.966 C 654.417 536.912 673.182 491.174 681.307 482.849 C 681.73 488.712 656.002 530.073 655.971 541.198 L 657.169 541.429 C 665.475 535.046 662.88 529.95 666.751 525.631 C 663.834 534.126 660.448 542.482 657.674 551.009 C 655.092 550.234 652.71 550.183 650.022 549.966 z"/>
<path transform="translate(0,0)" fill="url(#Gradient21)" d="M 585.946 443.413 C 589.29 443.993 590.373 443.813 592.303 447.11 C 587.696 456.496 582.211 467.234 578.273 476.886 C 593.252 492.283 613.114 504.838 626.674 518.285 C 610.435 561.052 603.062 582.095 596.875 628.643 C 587.826 630.515 538.927 638.466 535.515 641.376 C 535.341 642.748 535.064 644.424 535.039 645.775 C 533.967 650.955 533.525 654.49 532.99 659.769 C 530.964 663.055 531.505 663.81 529.638 667.345 L 527.853 666.952 C 527.599 661.548 527.294 656.147 526.937 650.748 C 526.936 646.005 528.122 638.413 528.741 633.489 C 544.809 631.818 573.644 625.347 590.421 622.102 C 597.045 580.856 601.763 560.439 617.629 521.829 C 601.57 506.942 584.646 493.729 568.474 478.868 C 574.109 466.332 579.124 455.335 585.946 443.413 z"/>
<path transform="translate(0,0)" fill="rgb(60,63,69)" d="M 535.039 645.775 C 535.117 650.849 534.331 651.514 536.565 655.32 L 537.526 655.733 C 548.164 660.394 545.415 667.446 543.077 676.698 C 551.167 680.942 562.221 681.866 569.032 686.613 C 556.809 683.466 544.813 679.165 532.128 676.024 C 532.641 670.359 532.838 665.461 532.99 659.769 C 533.525 654.49 533.967 650.955 535.039 645.775 z"/>
<path transform="translate(0,0)" fill="url(#Gradient20)" d="M 823.109 227.523 C 836.184 241.787 849.617 260.446 863.441 275.826 C 871.239 273.076 878.012 270.692 886.004 268.51 C 888.614 267.367 892.054 266.449 894.839 265.612 L 895.355 268.493 C 898.566 270.086 897.892 270.955 899.997 272.806 L 899.849 273.809 C 899.581 275.563 898.523 278.297 898.485 279.432 C 898.266 285.911 906.241 296.864 907.105 302.678 C 866.78 315.614 844.743 327.022 808.806 348.469 C 770.986 374.947 733.984 407.083 706.383 444.333 L 703.042 439.831 C 714.542 420.363 730.87 410.363 739.786 397.653 C 741.312 387.524 728.983 382.752 727.77 374.823 C 726.645 367.467 745.281 355.171 749.425 349.668 C 749.476 348.379 751.335 344.134 751.912 342.734 C 748.772 343.808 746.507 346.31 741.956 347.777 C 744.534 344.81 749.541 341.402 752.853 338.956 C 747.955 321.264 738.792 297.31 732.545 279.38 C 758.995 259.437 793.111 241.198 823.109 227.523 z"/>
<path transform="translate(0,0)" fill="url(#Gradient19)" d="M 752.873 273.91 L 756.644 273.873 C 760.149 278.23 764.127 288.487 765.765 290.098 C 780.622 304.701 801.05 330.193 817.519 340.674 C 813.771 343.104 810.841 344.517 808.806 348.469 C 770.986 374.947 733.984 407.083 706.383 444.333 L 703.042 439.831 C 714.542 420.363 730.87 410.363 739.786 397.653 C 741.312 387.524 728.983 382.752 727.77 374.823 C 726.645 367.467 745.281 355.171 749.425 349.668 L 761.854 341.263 C 754.51 321.397 747.399 301.445 740.522 281.413 L 752.873 273.91 z"/>
<path transform="translate(0,0)" fill="rgb(128,138,151)" d="M 823.109 227.523 C 836.184 241.787 849.617 260.446 863.441 275.826 C 871.239 273.076 878.012 270.692 886.004 268.51 C 888.764 268.641 889.768 268.73 892.479 268.353 C 890.91 271.17 867.616 281.975 862.586 284.121 C 843.655 268.99 836.722 253.909 820.787 236.269 C 804.366 243.583 767.537 262.614 752.873 273.91 L 740.522 281.413 C 747.399 301.445 754.51 321.397 761.854 341.263 L 749.425 349.668 C 749.476 348.379 751.335 344.134 751.912 342.734 C 748.772 343.808 746.507 346.31 741.956 347.777 C 744.534 344.81 749.541 341.402 752.853 338.956 C 747.955 321.264 738.792 297.31 732.545 279.38 C 758.995 259.437 793.111 241.198 823.109 227.523 z"/>
<path transform="translate(0,0)" fill="url(#Gradient18)" d="M 1425.39 527.822 C 1423.25 524.034 1421.18 521.938 1420.08 517.725 L 1423.43 517.646 L 1423.65 518.449 C 1427.25 531.013 1449.9 582.305 1445.84 593.057 C 1443.38 590.898 1444.98 588.576 1442.35 587.588 C 1439.76 590.015 1439 590.729 1435.52 591.506 C 1430.59 598.244 1441.93 616.84 1439.98 629.188 L 1438.47 628.561 C 1432.88 585.227 1422.41 559.778 1406.89 520.116 C 1410.76 521.706 1414.44 533.432 1416.12 537.563 C 1421.26 534.201 1422.04 532.833 1425.39 527.822 z"/>
<path transform="translate(0,0)" fill="rgb(255,255,255)" d="M 749.977 630.904 C 752.361 634.165 751.331 662.163 751.281 668.258 L 725.132 680.906 C 723.563 678.474 724.092 649.484 724.097 644.386 C 732.862 640.163 741.493 635.667 749.977 630.904 z"/>
<path transform="translate(0,0)" fill="rgb(4,56,111)" d="M 776.699 710.099 C 778.958 709.384 779.268 709.594 781.586 709.859 L 782.758 711.587 L 781.537 714.038 C 778.903 715.779 778.122 715.608 774.845 715.92 C 770.454 717.146 770.877 717.638 767.559 716.163 L 767.254 714.657 C 770.282 710.63 771.11 710.947 776.699 710.099 z"/>
<path transform="translate(0,0)" fill="rgb(60,63,69)" d="M 895.228 349.34 C 996.129 312.02 1095.13 314.223 1193.34 359.232 C 1286.55 402.894 1359 481.274 1395.19 577.629 C 1430.17 672.317 1425.89 769.102 1383.66 860.414 C 1381.47 865.095 1379.19 869.734 1376.82 874.329 C 1374.38 878.104 1374.84 877.879 1371.5 879.009 C 1366.24 878.44 1360.02 873.853 1355.19 870.974 C 1339.53 889.485 1329.48 900.637 1308.83 913.587 C 1304.4 915.679 1299.7 918.011 1295.19 919.812 C 1283.42 923.398 1272.67 925.108 1260.27 924.197 C 1237.39 922.384 1216.21 911.399 1201.54 893.737 C 1181.61 870.106 1178.51 846.539 1180.92 817.171 C 1161.44 801.857 1142.31 786.101 1123.54 769.915 C 1115.12 777.118 1108.27 782.493 1101.29 791.152 L 1092.97 803.244 C 1091.8 796.466 1086.27 790.964 1081.8 785.801 C 1071.04 772.741 1063.7 765.853 1050.73 755.19 L 1046.08 751.21 L 1044.72 750.303 L 1033.92 745.187 C 1025.6 741.497 1011.99 735.401 1004.19 742.042 C 999.095 739.673 992.09 737.544 986.642 735.714 C 994.311 729.792 1020.35 706.149 1025.13 699.25 L 1024.81 697.858 C 1021.1 698.289 1018.87 698.343 1015.1 697.69 C 957.306 687.667 916.113 640.656 922.957 580.589 C 923.694 574.12 938.949 535.946 949.06 539.877 C 960.374 544.275 967.417 564.882 976.13 573.151 C 986.61 583.616 1002.27 605.226 1019.36 594.378 C 1030.4 587.109 1035.02 566.771 1027.86 555.64 C 1026.57 553.625 1019.87 548.494 1017.09 548.163 L 1018.48 544.496 L 1007.36 534.865 L 994.717 524.54 C 989.664 524.58 970.321 504.212 969.424 500.555 C 985.802 496.206 1003.21 494.795 1019.84 492.052 C 1018.09 470.026 1016.93 447.417 1014.93 425.558 C 989.328 407.256 957.923 389.867 931.376 372.211 C 919.779 364.497 906.542 357.817 895.228 349.34 z"/>
<path transform="translate(0,0)" fill="url(#Gradient17)" d="M 987.998 504.27 C 998.527 502.543 1008.14 498.686 1017.79 497.097 C 1065.56 489.227 1113.07 513.959 1120.11 564.851 C 1122.84 584.581 1117.74 592.927 1116.67 610.73 C 1122.48 620.116 1132.53 629.19 1140.56 636.864 C 1166.57 609.494 1192.34 581.194 1218.41 553.814 C 1225.13 546.761 1227.16 536.685 1233.34 531.537 C 1247.44 519.785 1266.45 510.009 1283.33 503.173 C 1291.22 510.072 1299.99 517.536 1307.35 524.975 C 1288.83 563.592 1283.4 581.705 1244.81 599.255 C 1237.34 602.651 1216.34 629.865 1208.47 636.149 C 1199.2 646.195 1182.51 662.784 1174.67 673.022 C 1193.35 692.038 1214.48 714.686 1235 731.82 C 1238.79 734.981 1246.71 738.329 1251.32 740.23 C 1260.91 737.948 1268.51 736.193 1278.27 735.295 C 1343.81 729.264 1386.2 780.261 1378.48 843.617 C 1377.38 852.654 1374.58 865.852 1376.82 874.329 C 1374.38 878.104 1374.84 877.879 1371.5 879.009 C 1366.24 878.44 1360.02 873.853 1355.19 870.974 C 1339.53 889.485 1329.48 900.637 1308.83 913.587 C 1304.4 915.679 1299.7 918.011 1295.19 919.812 C 1283.42 923.398 1272.67 925.108 1260.27 924.197 C 1237.39 922.384 1216.21 911.399 1201.54 893.737 C 1181.61 870.106 1178.51 846.539 1180.92 817.171 C 1161.44 801.857 1142.31 786.101 1123.54 769.915 C 1115.12 777.118 1108.27 782.493 1101.29 791.152 L 1092.97 803.244 C 1091.8 796.466 1086.27 790.964 1081.8 785.801 C 1071.04 772.741 1063.7 765.853 1050.73 755.19 L 1046.08 751.21 L 1044.72 750.303 L 1033.92 745.187 C 1025.6 741.497 1011.99 735.401 1004.19 742.042 C 999.095 739.673 992.09 737.544 986.642 735.714 C 994.311 729.792 1020.35 706.149 1025.13 699.25 L 1024.81 697.858 C 1021.1 698.289 1018.87 698.343 1015.1 697.69 C 957.306 687.667 916.113 640.656 922.957 580.589 C 923.694 574.12 938.949 535.946 949.06 539.877 C 960.374 544.275 967.417 564.882 976.13 573.151 C 986.61 583.616 1002.27 605.226 1019.36 594.378 C 1030.4 587.109 1035.02 566.771 1027.86 555.64 C 1026.57 553.625 1019.87 548.494 1017.09 548.163 L 1018.48 544.496 L 1007.36 534.865 L 994.717 524.54 L 985.069 516.08 C 984.93 512.36 984.277 507.5 985.733 504.328 L 987.998 504.27 z"/>
<path transform="translate(0,0)" fill="rgb(60,63,69)" d="M 1298.52 824.152 C 1313.46 830.937 1325.2 845.324 1338 855.804 C 1342.87 859.793 1351.23 866.513 1355.19 870.974 C 1339.53 889.485 1329.48 900.637 1308.83 913.587 C 1305.36 899.949 1276.55 884.388 1266.3 869.123 C 1262.5 843.953 1275.74 832.416 1298.52 824.152 z"/>
<path transform="translate(0,0)" fill="rgb(255,255,255)" d="M 1219.77 571.174 C 1226.5 577.438 1223 583.349 1220.21 590.83 C 1222.49 589.226 1225.24 586.786 1227.44 584.955 C 1227.54 587.832 1227.54 591.885 1227.85 594.643 C 1193.36 625.93 1162.37 667.291 1129.27 700.52 C 1124.91 704.889 1119.29 711.053 1115.51 715.783 L 1113.37 717.738 L 1107.7 724.393 C 1099.8 718.503 1099.52 725.084 1091.11 715.212 L 1088.48 712.344 C 1110.87 683.609 1136.95 657.603 1161.56 630.765 C 1180.36 610.251 1199.76 590.512 1219.77 571.174 z"/>
<path transform="translate(0,0)" fill="url(#Gradient16)" d="M 1220.21 590.83 C 1222.49 589.226 1225.24 586.786 1227.44 584.955 C 1227.54 587.832 1227.54 591.885 1227.85 594.643 C 1193.36 625.93 1162.37 667.291 1129.27 700.52 C 1124.91 704.889 1119.29 711.053 1115.51 715.783 C 1112.5 714.132 1112.93 714.958 1111.74 712.388 C 1114.93 702.162 1143.04 680.625 1147.02 672.08 L 1145.95 669.19 C 1149.82 664.143 1161.72 652.144 1166.47 647.071 L 1220.21 590.83 z"/>
<path transform="translate(0,0)" fill="rgb(162,171,183)" d="M 1145.95 669.19 L 1147.02 672.08 C 1143.04 680.625 1114.93 702.162 1111.74 712.388 C 1112.93 714.958 1112.5 714.132 1115.51 715.783 L 1113.37 717.738 C 1112.38 717.08 1111.44 716.102 1110.55 715.271 C 1110.29 711.934 1110.43 711.396 1108.84 708.583 C 1121.18 695.975 1133.3 682.154 1145.95 669.19 z"/>
<path transform="translate(0,0)" fill="rgb(152,155,158)" d="M 1108.84 708.583 C 1110.43 711.396 1110.29 711.934 1110.55 715.271 C 1111.44 716.102 1112.38 717.08 1113.37 717.738 L 1107.7 724.393 C 1099.8 718.503 1099.52 725.084 1091.11 715.212 C 1102.71 713.729 1096.54 720.937 1108.84 708.583 z"/>
<path transform="translate(0,0)" fill="rgb(218,51,2)" d="M 1110.46 726.474 L 1112.65 728.827 C 1120.2 735.141 1126.58 742.57 1127.06 752.907 C 1126.78 758.919 1127.17 765.109 1123.54 769.915 C 1115.12 777.118 1108.27 782.493 1101.29 791.152 L 1092.97 803.244 C 1091.8 796.466 1086.27 790.964 1081.8 785.801 C 1071.04 772.741 1063.7 765.853 1050.73 755.19 L 1046.08 751.21 C 1048.9 748.072 1051.03 750.698 1055.06 750.727 L 1054.55 748.289 C 1058.21 745.196 1063.88 739.239 1067.71 739.181 C 1070.18 741.139 1070.78 741.837 1073.94 742.049 L 1076.17 743.498 C 1082.15 737.966 1084.72 733.533 1088.87 726.736 C 1094.43 731.026 1099.76 736.718 1106.88 734.08 C 1109.5 731.193 1109.55 730.319 1110.46 726.474 z"/>
<path transform="translate(0,0)" fill="url(#Gradient15)" d="M 1046.08 751.21 C 1048.9 748.072 1051.03 750.698 1055.06 750.727 L 1054.55 748.289 C 1058.21 745.196 1063.88 739.239 1067.71 739.181 C 1070.18 741.139 1070.78 741.837 1073.94 742.049 L 1076.17 743.498 C 1080.03 747.888 1084.38 753.083 1088.46 757.153 C 1095.52 765.926 1099.6 770.106 1100.39 782.306 C 1100.57 785.088 1100.34 788.658 1101.29 791.152 L 1092.97 803.244 C 1091.8 796.466 1086.27 790.964 1081.8 785.801 C 1071.04 772.741 1063.7 765.853 1050.73 755.19 L 1046.08 751.21 z"/>
<path transform="translate(0,0)" fill="rgb(248,116,16)" d="M 1110.46 726.474 L 1112.65 728.827 C 1108.48 743.878 1099.92 738.002 1091.46 731.349 C 1085.69 740.981 1078.54 747.425 1090.46 756.58 C 1089.79 756.806 1089.12 757.111 1088.46 757.153 C 1084.38 753.083 1080.03 747.888 1076.17 743.498 C 1082.15 737.966 1084.72 733.533 1088.87 726.736 C 1094.43 731.026 1099.76 736.718 1106.88 734.08 C 1109.5 731.193 1109.55 730.319 1110.46 726.474 z"/>
<path transform="translate(0,0)" fill="rgb(60,63,69)" d="M 1127.06 752.907 C 1146.07 771.911 1170.91 795.796 1188.55 815.581 C 1188.99 834.887 1187.93 849.216 1196.15 866.595 C 1212.25 900.642 1247.65 917.483 1283.92 916.824 C 1288.5 916.741 1291.42 916.76 1295.19 919.812 C 1283.42 923.398 1272.67 925.108 1260.27 924.197 C 1237.39 922.384 1216.21 911.399 1201.54 893.737 C 1181.61 870.106 1178.51 846.539 1180.92 817.171 C 1161.44 801.857 1142.31 786.101 1123.54 769.915 C 1127.17 765.109 1126.78 758.919 1127.06 752.907 z"/>
<path transform="translate(0,0)" fill="rgb(250,157,8)" d="M 1062.31 691.821 C 1075.84 688.529 1080.77 704.304 1088.48 712.344 L 1091.11 715.212 C 1099.52 725.084 1099.8 718.503 1107.7 724.393 L 1110.46 726.474 C 1109.55 730.319 1109.5 731.193 1106.88 734.08 C 1099.76 736.718 1094.43 731.026 1088.87 726.736 C 1084.72 733.533 1082.15 737.966 1076.17 743.498 L 1073.94 742.049 C 1069.68 737.073 1062.34 730.754 1057.34 726.181 L 1055.8 724.57 C 1053.61 723.749 1049.92 720.038 1048 718.297 C 1049.96 712.735 1054.51 707.939 1058.33 703.398 C 1057.12 703.993 1055.13 705.322 1053.91 706.08 C 1052.35 703.202 1052.36 699.785 1052.03 696.432 C 1056.15 694.882 1058.57 694.343 1062.31 691.821 z"/>
<path transform="translate(0,0)" fill="rgb(254,207,92)" d="M 1058.33 703.398 C 1063.64 701.886 1069.53 702.935 1072.19 708.31 C 1072.24 715.199 1063.67 721.805 1057.29 723.017 L 1055.8 724.57 C 1053.61 723.749 1049.92 720.038 1048 718.297 C 1049.96 712.735 1054.51 707.939 1058.33 703.398 z"/>
<path transform="translate(0,0)" fill="rgb(226,227,229)" d="M 1281.14 515.648 L 1289.86 523.47 C 1283.65 527.445 1232.42 578.624 1227.44 584.955 C 1225.24 586.786 1222.49 589.226 1220.21 590.83 C 1223 583.349 1226.5 577.438 1219.77 571.174 C 1228.39 561.346 1231.71 554.51 1238.71 544.6 C 1246.06 534.184 1269.33 522.551 1281.14 515.648 z"/>
<path transform="translate(0,0)" fill="url(#Gradient14)" d="M 1289.86 523.47 C 1290.98 524.581 1293.69 526.708 1293.37 527.703 C 1290.05 538.082 1271.77 569.84 1263.68 575.291 C 1253.1 582.41 1238.64 588.35 1227.85 594.643 C 1227.54 591.885 1227.54 587.832 1227.44 584.955 C 1232.42 578.624 1283.65 527.445 1289.86 523.47 z"/>
<path transform="translate(0,0)" fill="rgb(152,155,158)" d="M 1038.85 712.423 C 1041.37 714.091 1045.46 716.99 1048 718.297 C 1049.92 720.038 1053.61 723.749 1055.8 724.57 L 1057.34 726.181 C 1062.34 730.754 1069.68 737.073 1073.94 742.049 C 1070.78 741.837 1070.18 741.139 1067.71 739.181 C 1063.88 739.239 1058.21 745.196 1054.55 748.289 L 1055.06 750.727 C 1051.03 750.698 1048.9 748.072 1046.08 751.21 L 1044.72 750.303 L 1033.92 745.187 L 1035.45 743.526 C 1034.36 743.198 1027.39 739.894 1025.97 739.244 C 1028.1 733.359 1027.93 729.043 1029.23 723.877 C 1029.4 723.205 1037.07 715.719 1038.85 712.423 z"/>
<path transform="translate(0,0)" fill="url(#Gradient13)" d="M 1057.34 726.181 C 1062.34 730.754 1069.68 737.073 1073.94 742.049 C 1070.78 741.837 1070.18 741.139 1067.71 739.181 C 1063.88 739.239 1058.21 745.196 1054.55 748.289 L 1055.06 750.727 C 1051.03 750.698 1048.9 748.072 1046.08 751.21 L 1044.72 750.303 L 1033.92 745.187 L 1035.45 743.526 C 1037.29 744.271 1043.37 748.292 1045.41 749.591 C 1048.05 742.329 1053.68 733.54 1057.34 726.181 z"/>
<path transform="translate(0,0)" fill="rgb(128,138,151)" d="M 985.069 516.08 C 984.93 512.36 984.277 507.5 985.733 504.328 L 987.998 504.27 C 991.274 506.648 1009.16 519.461 1011.29 522.001 L 1009.64 522.795 C 1008.81 526.809 1007.91 530.806 1007.36 534.865 L 994.717 524.54 L 985.069 516.08 z"/>
<path transform="translate(0,0)" fill="rgb(251,180,39)" d="M 1038.85 712.423 C 1040.93 701.209 1051.11 692.854 1062.31 691.821 C 1058.57 694.343 1056.15 694.882 1052.03 696.432 C 1052.36 699.785 1052.35 703.202 1053.91 706.08 C 1055.13 705.322 1057.12 703.993 1058.33 703.398 C 1054.51 707.939 1049.96 712.735 1048 718.297 C 1045.46 716.99 1041.37 714.091 1038.85 712.423 z"/>
<path transform="translate(0,0)" fill="rgb(152,155,158)" d="M 1007.36 534.865 C 1007.91 530.806 1008.81 526.809 1009.64 522.795 L 1011.29 522.001 C 1014.12 524.151 1016.64 525.963 1019.21 528.446 C 1019.14 533.16 1019.28 540.041 1018.48 544.496 L 1007.36 534.865 z"/>
<path transform="translate(0,0)" fill="url(#Gradient12)" d="M 1009.99 507.603 C 1037.9 504.446 1060.06 503.902 1084.03 522.014 C 1109.7 541.409 1117.49 586.72 1096.89 612.164 C 1101.22 611.509 1101.58 610.706 1105.2 613.406 C 1117.08 622.272 1127.31 634.789 1137.16 645.96 C 1135.67 646.72 1130.9 649.29 1129.61 649.755 C 1127.74 652.198 1126.09 654.549 1123.87 656.683 C 1122.38 658.469 1114.18 667.722 1113.73 668.61 C 1111.17 670.83 1111.85 670.938 1109.05 671.298 C 1102.45 668.033 1095.64 659.145 1090.61 653.373 L 1087.88 655.768 C 1092.97 661.173 1102.11 670.361 1106.41 675.866 L 1089.02 695.497 C 1086.72 697.732 1086.44 698.171 1083.62 699.546 C 1076.34 688.633 1052.49 671.329 1039.5 668.368 C 1033.38 666.97 1016.85 664.015 1013.17 661.024 C 996.796 660.011 986.678 655.443 973.781 645.531 C 956.196 632.99 946.35 604.641 946.623 583.79 C 946.672 580.02 946.803 572.14 949.54 569.467 C 953.724 573.778 957.37 577.821 961.336 582.338 C 969.644 590.216 998.837 611.646 1009.28 617.431 C 1044.83 614.502 1072.07 575.59 1053.67 543.683 C 1049.53 536.507 1017.87 513.643 1009.99 507.603 z"/>
<path transform="translate(0,0)" fill="url(#Gradient11)" d="M 1013.17 661.024 C 1046.38 658.264 1057.98 650.743 1081.37 627.064 C 1082.83 630.724 1084.48 633.824 1084.4 637.688 L 1082.84 639.884 C 1083.1 646.705 1085.87 648.648 1090.61 653.373 L 1087.88 655.768 C 1092.97 661.173 1102.11 670.361 1106.41 675.866 L 1089.02 695.497 C 1086.72 697.732 1086.44 698.171 1083.62 699.546 C 1076.34 688.633 1052.49 671.329 1039.5 668.368 C 1033.38 666.97 1016.85 664.015 1013.17 661.024 z"/>
<path transform="translate(0,0)" fill="rgb(89,98,108)" d="M 1052.52 665.518 C 1061.18 660.741 1073.28 654.653 1080.14 647.843 L 1087.88 655.768 C 1092.97 661.173 1102.11 670.361 1106.41 675.866 L 1089.02 695.497 C 1078.7 684.739 1065.42 672.961 1052.52 665.518 z"/>
<path transform="translate(0,0)" fill="url(#Gradient10)" d="M 973.781 645.531 C 987.032 640.373 1019.34 645.597 1035.49 640.242 C 1048.96 635.779 1059.52 627.972 1073.58 630.121 L 1074.4 630.253 C 1080.29 624.796 1092.21 599.743 1093.49 590.999 C 1093.58 590.406 1094.01 585.489 1094.1 584.562 L 1094.88 583.997 C 1098.4 597.965 1081.31 615.98 1081.99 625.07 L 1081.37 627.064 C 1057.98 650.743 1046.38 658.264 1013.17 661.024 C 996.796 660.011 986.678 655.443 973.781 645.531 z"/>
<path transform="translate(0,0)" fill="rgb(60,63,69)" d="M 1081.99 625.07 C 1084.77 622.765 1084.88 621.799 1087.81 621.902 C 1102.09 632.521 1111.82 647.088 1123.87 656.683 C 1122.38 658.469 1114.18 667.722 1113.73 668.61 C 1111.17 670.83 1111.85 670.938 1109.05 671.298 C 1102.45 668.033 1095.64 659.145 1090.61 653.373 C 1085.87 648.648 1083.1 646.705 1082.84 639.884 L 1084.4 637.688 C 1084.48 633.824 1082.83 630.724 1081.37 627.064 L 1081.99 625.07 z"/>
<path transform="translate(0,0)" fill="rgb(226,227,229)" d="M 1082.84 639.884 C 1088.17 640.756 1108.89 663.613 1113.73 668.61 C 1111.17 670.83 1111.85 670.938 1109.05 671.298 C 1102.45 668.033 1095.64 659.145 1090.61 653.373 C 1085.87 648.648 1083.1 646.705 1082.84 639.884 z"/>
<path transform="translate(0,0)" fill="rgb(60,63,69)" d="M 1096.89 612.164 C 1101.22 611.509 1101.58 610.706 1105.2 613.406 C 1117.08 622.272 1127.31 634.789 1137.16 645.96 C 1135.67 646.72 1130.9 649.29 1129.61 649.755 C 1119.72 639.283 1105.47 627.41 1096.77 615.622 C 1095.78 614.273 1096.29 614.131 1096.89 612.164 z"/>
<path transform="translate(0,0)" fill="rgb(226,227,229)" d="M 1009.28 617.431 C 1008.59 619.514 1008.28 619.711 1007 621.433 C 997.721 622.952 977.271 606.21 970.059 599.765 C 973.544 600.615 986.718 611.882 994.913 614.59 L 995.869 613.387 C 985.749 599.628 971.457 597.34 960.887 584.188 L 961.336 582.338 C 969.644 590.216 998.837 611.646 1009.28 617.431 z"/>
<path transform="translate(0,0)" fill="rgb(255,255,255)" d="M 1087.6 561.507 L 1090.08 563.229 C 1091.82 566.728 1091.54 565.192 1091.18 569.035 C 1088.84 572.067 1090.07 571.089 1086.07 572.483 C 1082.81 569.919 1081.92 570.052 1080.58 566.53 C 1082.73 563.25 1083.73 563.509 1087.6 561.507 z"/>
<path transform="translate(0,0)" fill="rgb(255,255,255)" d="M 1233.08 765.297 C 1250.65 752.118 1280.87 745.193 1302.55 748.415 C 1322.28 751.416 1340.01 762.095 1351.89 778.122 C 1363.32 793.817 1361.64 802.432 1367.18 813.661 C 1370.93 827.472 1369.19 848.804 1367.37 862.798 C 1356.33 857.213 1314.69 823.245 1314.3 812.674 L 1313.17 804.187 L 1308.85 800.806 L 1300.66 802.59 C 1288.38 809.041 1275.29 818.197 1264.61 827.065 C 1254.52 838.699 1249.06 844.785 1250.14 861.58 C 1250.21 862.788 1251.33 869.776 1251.32 869.97 C 1255.84 875.907 1258.08 878.173 1263.47 883.302 C 1274.68 891.36 1279.96 896.282 1289.55 906.191 C 1265.51 907.117 1234.22 897.924 1220.11 877.144 C 1212.15 872.165 1208.23 853.626 1207.07 844.739 L 1206.98 835.912 C 1205.31 833.697 1206.26 832.225 1204.44 828.769 C 1202.14 828.449 1201.67 828.309 1199.55 827.657 C 1191.38 816.002 1203.4 794.529 1210.79 785.12 C 1217.95 777.454 1223.89 770.642 1233.08 765.297 z"/>
<path transform="translate(0,0)" fill="url(#Gradient9)" d="M 1234.85 791.159 C 1245.47 775.564 1273.38 770.215 1291.11 771.324 L 1290.34 771.471 C 1286.44 772.19 1283.57 772.33 1279.63 772.57 C 1283.69 778.215 1290.8 780.397 1293.34 786.982 C 1295.08 791.491 1299.18 796.48 1299.25 801.385 L 1300.66 802.59 C 1288.38 809.041 1275.29 818.197 1264.61 827.065 C 1254.52 838.699 1249.06 844.785 1250.14 861.58 C 1250.21 862.788 1251.33 869.776 1251.32 869.97 C 1255.84 875.907 1258.08 878.173 1263.47 883.302 C 1274.68 891.36 1279.96 896.282 1289.55 906.191 C 1265.51 907.117 1234.22 897.924 1220.11 877.144 C 1212.15 872.165 1208.23 853.626 1207.07 844.739 L 1206.98 835.912 C 1207.49 834.149 1208 831.119 1208.38 829.239 C 1210.02 830.496 1209.11 830.063 1211.29 830.399 C 1216.98 814.809 1221.42 802.013 1234.85 791.159 z"/>
<path transform="translate(0,0)" fill="rgb(128,138,151)" d="M 1220.11 877.144 C 1224.91 879.537 1226.79 882.808 1230.71 885.699 C 1238.8 891.657 1254.67 901.485 1264.36 902.911 L 1266.76 902.132 C 1266.36 899.898 1265.25 894.89 1265.37 892.848 C 1265.65 888.397 1263.85 887.239 1263.47 883.302 C 1274.68 891.36 1279.96 896.282 1289.55 906.191 C 1265.51 907.117 1234.22 897.924 1220.11 877.144 z"/>
<path transform="translate(0,0)" fill="rgb(185,192,199)" d="M 1234.85 791.159 C 1231.71 798.106 1221.22 808.443 1218.79 815.775 C 1212.29 835.427 1224.93 826.383 1209.62 846.467 C 1207.54 845.951 1208.37 846.495 1207.07 844.739 L 1206.98 835.912 C 1207.49 834.149 1208 831.119 1208.38 829.239 C 1210.02 830.496 1209.11 830.063 1211.29 830.399 C 1216.98 814.809 1221.42 802.013 1234.85 791.159 z"/>
<path transform="translate(0,0)" fill="rgb(128,138,151)" d="M 1251.32 869.97 C 1249.75 869.459 1243.75 850.298 1244.47 848.589 L 1248.43 849.188 C 1251.79 840.906 1255.13 829.919 1264.61 827.065 C 1254.52 838.699 1249.06 844.785 1250.14 861.58 C 1250.21 862.788 1251.33 869.776 1251.32 869.97 z"/>
<path transform="translate(0,0)" fill="rgb(128,138,151)" d="M 1308.85 800.806 C 1330.45 794.596 1325.23 798.526 1343.81 801.788 L 1350.5 809.471 C 1352.02 812.331 1355.99 819.442 1356.87 822.112 C 1358.5 825.469 1360.44 829.003 1362.19 832.328 C 1365.11 824.522 1366.22 821.943 1367.18 813.661 C 1370.93 827.472 1369.19 848.804 1367.37 862.798 C 1356.33 857.213 1314.69 823.245 1314.3 812.674 L 1313.17 804.187 L 1308.85 800.806 z"/>
<path transform="translate(0,0)" fill="rgb(185,192,199)" d="M 1308.85 800.806 C 1330.45 794.596 1325.23 798.526 1343.81 801.788 L 1350.5 809.471 C 1333.18 809.175 1330.27 808.392 1313.17 804.187 L 1308.85 800.806 z"/>
<path transform="translate(0,0)" fill="rgb(162,171,183)" d="M 1313.17 804.187 C 1330.27 808.392 1333.18 809.175 1350.5 809.471 C 1352.02 812.331 1355.99 819.442 1356.87 822.112 C 1352.14 820.449 1349.18 818.01 1345.34 815.965 C 1339.7 812.969 1321.28 807.685 1315.56 807.909 C 1315.32 809.796 1315.15 810.927 1314.3 812.674 L 1313.17 804.187 z"/>
<path transform="translate(0,0)" fill="rgb(226,227,229)" d="M 1291.11 771.324 C 1307.53 770.759 1333.5 790.08 1343.81 801.788 C 1325.23 798.526 1330.45 794.596 1308.85 800.806 L 1300.66 802.59 L 1299.25 801.385 C 1299.18 796.48 1295.08 791.491 1293.34 786.982 C 1290.8 780.397 1283.69 778.215 1279.63 772.57 C 1283.57 772.33 1286.44 772.19 1290.34 771.471 L 1291.11 771.324 z"/>
<path transform="translate(0,0)" fill="rgb(89,98,108)" d="M 1206.98 835.912 C 1205.31 833.697 1206.26 832.225 1204.44 828.769 C 1202.14 828.449 1201.67 828.309 1199.55 827.657 C 1191.38 816.002 1203.4 794.529 1210.79 785.12 C 1210.28 790.099 1209.58 789.713 1211.4 793.769 C 1215.27 796.495 1219.9 797.466 1222.02 799.324 C 1214.64 809.963 1211.77 816.53 1208.38 829.239 C 1208 831.119 1207.49 834.149 1206.98 835.912 z"/>
<path transform="translate(0,0)" fill="url(#Gradient8)" d="M 1233.08 765.297 L 1230.45 769.56 C 1233.78 776.693 1237.3 774.401 1242.82 777.312 C 1236.56 785.731 1229.58 788.023 1222.02 799.324 C 1219.9 797.466 1215.27 796.495 1211.4 793.769 C 1209.58 789.713 1210.28 790.099 1210.79 785.12 C 1217.95 777.454 1223.89 770.642 1233.08 765.297 z"/>
<path transform="translate(0,0)" fill="rgb(89,98,108)" d="M 1163.56 681.161 L 1166.49 678.877 C 1168.67 679.728 1197.01 709.83 1200.96 713.619 C 1220.18 732.018 1227.15 743.472 1254.17 750.966 C 1245.01 754.39 1223.35 761.404 1215.76 753.741 C 1202.24 743.845 1168.13 710.775 1156.54 698.619 L 1153.96 697.944 C 1149.16 693.092 1159.74 684.982 1163.56 681.161 z"/>
<path transform="translate(0,0)" fill="rgb(226,227,229)" d="M 1161.58 692.112 C 1171.86 702.265 1216.46 742.671 1215.76 753.741 C 1202.24 743.845 1168.13 710.775 1156.54 698.619 L 1161.58 692.112 z"/>
<path transform="translate(0,0)" fill="rgb(60,63,69)" d="M 1156.54 698.619 L 1153.96 697.944 C 1149.16 693.092 1159.74 684.982 1163.56 681.161 C 1163.28 684.172 1163.18 689.95 1161.58 692.112 L 1156.54 698.619 z"/>
<path transform="translate(0,0)" fill="rgb(38,50,69)" d="M 1131.06 714.933 C 1135.87 721.604 1137.94 723.908 1144.24 729.231 C 1145.34 735.612 1146.63 732.903 1149.94 738.435 C 1148.48 739.652 1146.61 741.27 1144.71 741.427 C 1137.81 742 1123.76 731.796 1122.79 725.17 C 1124.76 720.645 1127.54 718.394 1131.06 714.933 z"/>
<path transform="translate(0,0)" fill="rgb(60,63,69)" d="M 1144.24 729.231 C 1153.7 735.273 1178.24 760.792 1184.21 770.023 C 1169.82 762.668 1161.76 749.684 1149.94 738.435 C 1146.63 732.903 1145.34 735.612 1144.24 729.231 z"/>
<path transform="translate(0,0)" fill="url(#Gradient7)" d="M 698.117 833.445 C 759.765 824.524 815.625 824.207 877.095 835.627 C 868.664 846.946 866.397 851.107 864.543 865.405 C 864.566 887.145 865.923 886.139 873.363 906.127 C 884.908 924.365 891.721 932.635 910.183 945.347 L 905.41 945.2 C 901.692 947.94 895.806 960.064 886.313 953.53 C 883.576 951.647 881.299 948.332 878.704 946.196 C 874.239 941.07 859.926 943.308 853.56 944.802 C 838.024 939.182 809.1 916.888 795.057 906.807 C 771.472 889.877 752.147 867.803 724.048 857.164 C 743.779 880.485 764.152 899.182 786.79 919.403 C 792.176 924.214 811.919 939.52 815.107 943.212 C 813.161 943.115 813.388 942.87 811.703 943.464 C 806.255 960.699 802.33 958.648 784.884 960.834 C 776.926 961.831 762.367 966.655 755.47 964.471 L 753.431 965.806 C 759.187 969.746 770.493 973.992 773.092 978.645 C 721.717 955.064 651.598 899.943 621.434 851.454 C 646.279 842.729 671.986 836.692 698.117 833.445 z"/>
<path transform="translate(0,0)" fill="rgb(4,56,111)" d="M 698.117 833.445 C 759.765 824.524 815.625 824.207 877.095 835.627 C 868.664 846.946 866.397 851.107 864.543 865.405 L 863.281 871.057 C 860.367 857.628 869.604 848.416 867.802 839.786 C 866.55 837.555 864.548 835.382 861.856 834.953 C 812.146 827.029 760.473 826.264 710.612 833.694 C 706.492 834.308 701.602 835.361 698.117 833.445 z"/>
<path transform="translate(0,0)" fill="rgb(4,56,111)" d="M 873.363 906.127 C 884.908 924.365 891.721 932.635 910.183 945.347 L 905.41 945.2 C 899.389 939.112 888.967 934.152 883.467 926.348 C 880.216 921.736 872.759 911.843 873.363 906.127 z"/>
<path transform="translate(0,0)" fill="rgb(248,116,16)" d="M 1004.19 742.042 C 1011.99 735.401 1025.6 741.497 1033.92 745.187 L 1044.72 750.303 L 1046.08 751.21 L 1050.73 755.19 C 1063.7 765.853 1071.04 772.741 1081.8 785.801 C 1086.27 790.964 1091.8 796.466 1092.97 803.244 C 1070.35 829.159 1047.43 854.805 1024.2 880.176 C 1013.24 892.17 991.983 916.273 979.49 925.012 C 972.015 930.199 963.275 933.265 954.198 933.885 C 908.506 936.778 859.473 874.531 902.624 835.706 C 926.58 811.713 952.428 789.538 977.258 766.446 C 982.897 761.201 988.971 755.471 994.994 750.761 C 996.961 748.428 1001.72 744.296 1004.19 742.042 z"/>
<path transform="translate(0,0)" fill="url(#Gradient6)" d="M 1081.8 785.801 C 1086.27 790.964 1091.8 796.466 1092.97 803.244 C 1070.35 829.159 1047.43 854.805 1024.2 880.176 C 1013.24 892.17 991.983 916.273 979.49 925.012 C 972.015 930.199 963.275 933.265 954.198 933.885 C 908.506 936.778 859.473 874.531 902.624 835.706 L 904.789 838.824 C 905.37 844.344 898.645 850.438 895.107 859.103 C 903.219 881.007 928.798 906.257 952.272 911.644 C 954.701 912.201 960.123 911.961 962.809 911.897 C 978.303 900.209 987.367 887.726 1000.54 874.337 C 1027.21 847.23 1053.2 815.751 1080.06 789.393 C 1080.82 788.669 1081.35 786.907 1081.8 785.801 z"/>
<path transform="translate(0,0)" fill="rgb(254,207,92)" d="M 1007.84 742.33 C 1009.08 745.037 1009.15 746.594 1009.41 749.571 C 1015.89 749.345 1016.53 745.68 1021.42 749.583 C 1024.19 751.86 1025.94 753.107 1028.21 755.949 C 1027.89 764.906 1022.08 769.295 1015.59 775.344 L 1015.17 775.74 L 960.058 831.407 C 952.682 838.771 936.687 853.829 930.426 861.102 C 917.77 874.718 903.865 877.839 905.358 853.914 C 905.592 853.827 905.826 853.74 906.06 853.653 C 940.039 820.646 972.268 785.642 1006.08 752.403 C 1008.66 749.87 1005.95 746.491 1007.84 742.33 z"/>
<path transform="translate(0,0)" fill="rgb(251,180,39)" d="M 1007.84 742.33 C 1009.08 745.037 1009.15 746.594 1009.41 749.571 C 1015.89 749.345 1016.53 745.68 1021.42 749.583 C 1019.36 749.694 1012.4 750.036 1011.28 751.053 C 998.435 762.767 912.957 845.831 912.552 856.001 C 915.188 859.533 921.372 861.079 925.718 862.315 L 927.645 860.836 L 930.426 861.102 C 917.77 874.718 903.865 877.839 905.358 853.914 C 905.592 853.827 905.826 853.74 906.06 853.653 C 940.039 820.646 972.268 785.642 1006.08 752.403 C 1008.66 749.87 1005.95 746.491 1007.84 742.33 z"/>
<path transform="translate(0,0)" fill="rgb(251,180,39)" d="M 927.645 860.836 C 930.175 857.648 939.184 851.009 940.596 847.798 C 945.933 835.656 943.978 832.66 960.058 831.407 C 952.682 838.771 936.687 853.829 930.426 861.102 L 927.645 860.836 z"/>
<path transform="translate(0,0)" fill="rgb(251,180,39)" d="M 1028.21 755.949 C 1027.89 764.906 1022.08 769.295 1015.59 775.344 L 1015.17 775.74 C 1015.92 762.477 1025.16 764.541 1028.21 755.949 z"/>
<path transform="translate(0,0)" fill="url(#Gradient5)" d="M 1050.73 755.19 C 1063.7 765.853 1071.04 772.741 1081.8 785.801 C 1081.35 786.907 1080.82 788.669 1080.06 789.393 C 1077.25 786.449 1073.33 782.554 1070.87 779.486 C 1065.98 786.199 1045.09 807.368 1038.3 814.011 C 1020.87 831.082 1000.91 855.071 983.573 871.343 C 979.123 871.996 970.111 864.599 965.91 861.628 C 986.375 839.943 1033.69 795.235 1047.89 771.712 C 1047.89 763.924 1045.75 761.199 1050.73 755.19 z"/>
<path transform="translate(0,0)" fill="rgb(250,157,8)" d="M 1004.19 742.042 C 1011.99 735.401 1025.6 741.497 1033.92 745.187 L 1044.72 750.303 L 1041.01 766.042 C 1005.57 802.518 971.836 841.087 934.469 875.759 C 916.78 892.171 894.016 864.711 905.358 853.914 C 903.865 877.839 917.77 874.718 930.426 861.102 C 936.687 853.829 952.682 838.771 960.058 831.407 L 1015.17 775.74 L 1015.59 775.344 C 1022.08 769.295 1027.89 764.906 1028.21 755.949 C 1025.94 753.107 1024.19 751.86 1021.42 749.583 C 1016.53 745.68 1015.89 749.345 1009.41 749.571 C 1009.15 746.594 1009.08 745.037 1007.84 742.33 C 1003.44 745.62 1000.08 749.271 994.994 750.761 C 996.961 748.428 1001.72 744.296 1004.19 742.042 z"/>
<path transform="translate(0,0)" fill="rgb(218,51,2)" d="M 941.737 884.728 C 950.375 876.622 957.379 870.225 965.91 861.628 C 970.111 864.599 979.123 871.996 983.573 871.343 C 977.846 876.901 959.414 892.356 957.965 898.795 C 954.368 893.865 946.779 888.538 941.737 884.728 z"/>
<path transform="translate(0,0)" fill="rgb(250,157,8)" d="M 941.737 884.728 C 946.779 888.538 954.368 893.865 957.965 898.795 C 959.85 901.755 960.195 901.307 960.358 904.329 C 953.206 904.5 936.064 898.587 935.864 889.684 C 938.076 885.983 937.551 887.014 941.737 884.728 z"/>
<path transform="translate(0,0)" fill="rgb(4,56,111)" d="M 1048 890.594 C 1082.48 905.818 1122.75 936.114 1155.31 955.553 C 1167.27 962.688 1179.11 970.739 1191.9 976.386 C 1147.79 998.186 1106.35 1001.46 1057.83 1001.13 C 985.904 1000.65 916.535 979.021 853.56 944.802 C 859.926 943.308 874.239 941.07 878.704 946.196 C 881.299 948.332 883.576 951.647 886.313 953.53 C 895.806 960.064 901.692 947.94 905.41 945.2 L 910.183 945.347 C 975.202 976.38 1007.99 935.953 1048 890.594 z"/>
<path transform="translate(0,0)" fill="url(#Gradient4)" d="M 723.424 759.734 C 731.131 755.795 751.17 750.873 759.902 749.084 C 830.071 734.703 895.86 737.028 964.692 754.396 C 947.589 770.58 927.242 788.803 911.422 805.8 C 851.844 797.667 822.631 798.565 763.938 800.146 C 684.065 807.582 639.244 819.005 566.354 851.06 C 610.506 809.819 664.646 775.429 723.424 759.734 z"/>
<path transform="translate(0,0)" fill="url(#Gradient3)" d="M 566.354 851.06 C 610.506 809.819 664.646 775.429 723.424 759.734 C 718.994 764.721 714.584 762.036 710.573 766.333 L 710.042 769.809 C 714.688 768.157 717.863 766.649 722.782 766.969 L 721.698 767.278 C 718.239 768.28 709.348 771.235 707.401 774.026 C 709.219 774.862 710.511 774.631 712.512 774.575 L 712.613 775.462 C 706.755 776.278 702.713 775.26 697.401 777.354 L 696.337 778.929 C 698.239 785.069 708.816 788.623 713.392 791.576 C 725.088 799.126 728.278 791.095 736.523 795.189 C 740.817 795.109 758.54 794.181 761.176 794.703 L 757.725 795.585 L 758.058 796.834 L 763.938 800.146 C 684.065 807.582 639.244 819.005 566.354 851.06 z"/>
<path transform="translate(0,0)" fill="url(#Gradient2)" d="M 710.042 769.809 C 714.688 768.157 717.863 766.649 722.782 766.969 L 721.698 767.278 C 718.239 768.28 709.348 771.235 707.401 774.026 C 709.219 774.862 710.511 774.631 712.512 774.575 L 712.613 775.462 C 706.755 776.278 702.713 775.26 697.401 777.354 L 696.337 778.929 C 698.239 785.069 708.816 788.623 713.392 791.576 C 725.088 799.126 728.278 791.095 736.523 795.189 C 719.554 796.787 702.681 799.284 685.977 802.669 C 675.425 804.903 631.648 816.359 624.622 815.975 C 625.891 813.404 630.009 811.871 632.412 809.931 C 655.633 791.189 684.171 783.911 710.042 769.809 z"/>
<path transform="translate(0,0)" fill="url(#Gradient1)" d="M 1129.16 799.118 C 1139.01 806.179 1155.12 819.578 1164.15 827.571 C 1164.11 830.772 1164.16 833.974 1164.3 837.172 C 1166.27 887.343 1198.61 930.165 1249.43 939.443 C 1261.44 941.636 1271.59 940.91 1283.7 940.288 L 1282.63 941.801 C 1287.68 942.311 1298.47 938.955 1303.14 936.905 L 1304.08 937.457 C 1297.92 944.215 1259.56 957.23 1248.9 956.97 C 1246.48 958.7 1245.46 962.75 1244.89 965.805 C 1242.69 964.454 1230.9 959.907 1227.93 958.685 C 1208.72 955.688 1089.81 881.329 1066.48 867.993 C 1086.75 848.007 1109.32 820.631 1129.16 799.118 z"/>
<path transform="translate(0,0)" fill="rgb(38,50,69)" d="M 1227.93 958.685 C 1231.75 956.875 1244.41 956.598 1248.9 956.97 C 1246.48 958.7 1245.46 962.75 1244.89 965.805 C 1242.69 964.454 1230.9 959.907 1227.93 958.685 z"/>
<path transform="translate(0,0)" fill="rgb(128,138,151)" d="M 1170.53 896.726 C 1171.51 897.575 1171.16 897.177 1171.79 897.972 C 1182.16 911.104 1196.03 923.612 1209.37 933.7 C 1212.86 936.337 1220.87 939.906 1222.16 941.102 C 1219.85 942.08 1219.22 942.182 1217.47 944.064 L 1218.69 945.797 L 1215.67 945.224 C 1203.44 939.58 1170.21 924.952 1161.72 914.846 L 1162.11 913.9 L 1164.7 914.809 C 1168.52 901.796 1175.45 907.389 1170.53 896.726 z"/>
<path transform="translate(0,0)" fill="rgb(4,56,111)" d="M 773.092 978.645 C 770.493 973.992 759.187 969.746 753.431 965.806 L 755.47 964.471 C 762.367 966.655 776.926 961.831 784.884 960.834 C 802.33 958.648 806.255 960.699 811.703 943.464 C 813.388 942.87 813.161 943.115 815.107 943.212 C 829.384 952.287 843.081 963.263 857.477 972.006 C 907.348 1002.29 944.916 1015.96 1001.49 1026.55 C 1004.2 1027.9 1004.31 1027.36 1005.21 1029.47 L 1001.41 1030.51 L 1002.68 1031.23 C 995.53 1033.06 978.109 1032.16 970.138 1031.84 C 915.457 1029.73 861.598 1017.83 811.118 996.71 C 799.161 991.807 784.182 985.387 773.092 978.645 z"/>
<path transform="translate(0,0)" fill="rgb(10,10,12)" d="M 1001.49 1026.55 C 1009.96 1027.33 1023.14 1028.06 1031.21 1029.32 C 1020.28 1030.8 1013.74 1031.18 1002.68 1031.23 L 1001.41 1030.51 L 1005.21 1029.47 C 1004.31 1027.36 1004.2 1027.9 1001.49 1026.55 z"/>
</svg>