<svg version="1.1" id="Layer_1" xmlns="http://www.w3.org/2000/svg" xmlns:xlink="http://www.w3.org/1999/xlink" x="0px" y="0px"
	 width="100%" viewBox="0 0 429 204" enable-background="new 0 0 429 204" xml:space="preserve">
<path fill="#F5F6F6" opacity="1.000000" stroke="none" 
	d="
M321.000000,205.000000 
	C214.000031,205.000000 107.500076,205.000000 1.000086,205.000000 
	C1.000057,137.000061 1.000057,69.000122 1.000029,1.000140 
	C143.999893,1.000094 286.999786,1.000094 429.999756,1.000047 
	C429.999817,68.999863 429.999817,136.999725 429.999908,204.999786 
	C393.833344,205.000000 357.666656,205.000000 321.000000,205.000000 
M147.531036,151.910126 
	C147.683044,151.606293 147.835052,151.302475 148.507202,150.807648 
	C148.654251,150.480942 148.801315,150.154236 149.459900,149.563217 
	C149.740326,149.067169 150.020752,148.571136 150.868973,147.749512 
	C152.301590,145.214981 153.734222,142.680450 155.178299,140.163834 
	C155.178299,140.163834 155.199066,140.149323 155.777969,139.762787 
	C157.340790,135.555328 158.903625,131.347855 160.863266,126.533638 
	C161.249573,124.025597 161.635864,121.517548 162.353668,118.723015 
	C162.534348,118.428467 162.502975,118.158463 162.601532,117.243187 
	C162.587524,116.503410 162.573532,115.763634 162.822983,114.200203 
	C162.838715,112.474861 162.854446,110.749512 163.026718,108.131195 
	C162.979965,105.416199 162.933212,102.701210 163.015778,99.242996 
	C162.991180,98.490036 162.966583,97.737068 163.035507,96.116119 
	C163.008423,94.073326 162.981323,92.030533 163.031372,89.065872 
	C162.987366,85.062012 162.943344,81.058144 162.975143,76.248833 
	C162.963379,75.171333 162.951599,74.093834 163.001633,72.078720 
	C162.987350,58.056236 162.973083,44.033749 162.992645,29.260567 
	C162.940262,28.512547 162.887894,27.764528 162.870499,26.377373 
	C162.253845,25.576591 161.637192,24.775808 160.999390,23.999771 
	C160.999390,23.999771 161.024429,23.979692 160.676453,23.323229 
	C159.672714,22.800945 158.686035,21.864437 157.662537,21.822330 
	C149.920593,21.503817 142.171814,21.326788 134.423660,21.239479 
	C133.907135,21.233662 133.378265,22.324245 131.986160,22.928114 
	C129.659561,22.914616 127.332954,22.901117 124.681747,22.494074 
	C124.123070,22.671448 123.564400,22.848824 122.350227,23.022593 
	C121.914757,23.056971 121.479294,23.091351 120.286606,23.121693 
	C117.159492,24.387823 114.032379,25.653955 110.456604,26.955294 
	C110.456604,26.955294 110.013344,27.033113 109.331490,27.069275 
	C107.876549,28.028316 106.421616,28.987360 105.002457,29.980297 
	C105.002457,29.980297 104.958809,29.963171 104.495262,30.140270 
	C104.206657,30.320196 103.983665,30.560919 103.259247,30.938328 
	C102.792198,31.236504 102.325150,31.534679 101.203812,32.001774 
	C99.972824,33.073917 98.741844,34.146065 96.527985,36.074261 
	C114.702164,36.074261 131.325195,36.074261 147.951996,36.071106 
	C147.951996,36.071106 147.919128,36.094349 147.942581,37.019646 
	C147.997223,51.022549 148.051880,65.025452 148.042328,79.927872 
	C148.333633,83.323441 148.624924,86.719009 148.885880,90.886063 
	C148.634567,92.929428 148.383255,94.972786 148.021561,97.929070 
	C148.064102,101.610046 148.106644,105.291031 147.970230,109.766533 
	C147.978699,110.842453 147.987152,111.918365 147.708466,113.698990 
	C146.820190,117.465202 145.931931,121.231415 144.656845,125.597206 
	C144.125381,127.398392 143.593918,129.199570 142.928482,131.653976 
	C142.286743,132.770676 141.645020,133.887375 140.728378,135.613617 
	C139.135849,137.686035 137.543335,139.758438 135.453812,142.044266 
	C135.294769,142.356888 135.135727,142.669510 135.000000,143.000000 
	C135.000000,143.000000 134.977234,142.980118 134.397720,143.238617 
	C133.298950,144.500320 132.200165,145.762039 131.020340,147.018997 
	C131.020340,147.018997 131.023071,147.100143 130.441971,147.294998 
	C129.606155,148.174545 128.770340,149.054092 127.977844,150.005203 
	C127.977844,150.005203 127.955933,149.925293 127.414856,150.032547 
	C127.214828,150.326752 127.014801,150.620956 126.936180,150.924835 
	C126.936180,150.924835 126.919464,150.804214 126.404106,150.840378 
	C126.156136,151.040878 125.908157,151.241364 125.443359,151.409134 
	C125.443359,151.409134 125.256104,151.523224 124.720146,151.815140 
	C122.765060,153.170074 120.809967,154.525024 118.893730,155.854584 
	C118.893730,155.854584 118.856255,155.823624 118.107391,155.905960 
	C90.418968,166.207733 66.752777,161.245560 48.088387,137.257599 
	C44.554604,154.835907 48.013172,161.847076 63.655270,169.015808 
	C65.166100,169.708206 66.689415,170.425842 68.277756,170.888763 
	C93.548615,178.253860 117.565163,177.282364 139.065750,160.052490 
	C139.065750,160.052490 139.046021,160.112579 139.587219,159.985153 
	C139.782074,159.684708 139.976929,159.384262 140.085480,159.103851 
	C140.085480,159.103851 140.136810,159.176071 140.750443,159.001709 
	C141.575989,158.066269 142.401550,157.130829 143.066345,156.052719 
	C143.066345,156.052719 143.191544,156.227432 143.795303,156.028397 
	C144.593872,155.064240 145.392456,154.100082 146.105484,153.089218 
	C146.105484,153.089218 146.091171,153.185623 146.626221,153.014267 
	C146.782242,152.688080 146.938263,152.361908 147.020477,152.021774 
	C147.020477,152.021774 147.040070,152.094269 147.531036,151.910126 
M124.036163,134.038345 
	C124.036163,134.038345 124.087883,134.126236 124.601845,133.973618 
	C124.744194,133.661301 124.886551,133.348984 125.003510,133.005005 
	C125.003510,133.005005 125.040192,133.021667 125.651489,132.733749 
	C128.117706,126.825455 130.583923,120.917168 133.437866,114.586479 
	C133.496674,114.023911 133.555496,113.461334 133.901443,112.255836 
	C133.938660,111.788231 133.975876,111.320618 134.275192,110.737053 
	C134.427643,110.429489 134.365082,110.186081 133.959259,109.942154 
	C133.959259,109.942154 133.875320,110.058701 134.149841,109.223709 
	C134.125778,106.177521 134.101730,103.131325 134.458374,99.273689 
	C134.341476,97.513542 134.224579,95.753387 134.472321,93.169258 
	C134.337921,90.799866 134.203522,88.430473 134.441605,85.461266 
	C134.399277,84.999786 134.356964,84.538315 134.690582,83.203087 
	C134.728012,73.716026 134.832428,64.228523 134.768982,54.742138 
	C134.744553,51.088104 133.116562,48.797428 128.973694,48.901958 
	C122.322357,49.069782 115.666122,49.043419 108.092125,48.993828 
	C104.399155,49.062187 100.706177,49.130547 96.098328,49.042660 
	C92.399879,49.089088 88.701439,49.135517 84.095848,49.004398 
	C80.398857,49.062176 76.701859,49.119957 72.126297,49.040318 
	C66.083672,50.350285 60.041054,51.660248 53.254421,52.985447 
	C49.170830,55.325359 45.087238,57.665272 40.488396,60.076897 
	C40.285461,60.345055 40.082527,60.613213 39.381142,61.000427 
	C39.187271,61.270424 38.993404,61.540421 38.175747,62.029240 
	C37.109432,63.349285 36.043114,64.669334 34.665150,66.579071 
	C32.761612,69.008446 30.858076,71.437813 28.301817,74.138542 
	C26.291084,80.102684 24.280350,86.066826 21.952616,92.919456 
	C21.952616,123.141632 21.952616,153.363815 21.952616,183.708572 
	C26.802036,183.708572 31.351162,183.708572 35.929794,183.708572 
	C35.929794,163.899277 35.929794,144.448685 36.150970,124.084610 
	C36.156876,118.460205 36.326626,112.830269 36.136620,107.212486 
	C35.651833,92.879295 39.791298,80.508293 51.670303,70.858940 
	C55.451092,68.861549 59.231880,66.864151 63.826756,64.898331 
	C70.207855,64.224724 76.588951,63.551113 83.867332,63.053047 
	C86.903152,62.993023 89.938980,62.933002 93.765274,63.047894 
	C94.841309,63.007969 95.917343,62.968044 97.916451,63.107712 
	C101.901573,63.115101 105.886688,63.123085 109.871811,63.129768 
	C119.669296,63.146194 120.106209,61.612766 119.773743,73.068123 
	C119.754761,73.722092 119.920341,74.381416 119.859024,75.958900 
	C119.900436,85.282402 119.941856,94.605904 119.792725,104.697701 
	C119.498352,107.144508 119.203987,109.591324 118.689270,112.270882 
	C118.689270,112.270882 118.783005,112.577370 118.295219,113.113266 
	C114.882187,118.084915 111.469154,123.056572 108.006798,127.997330 
	C108.006798,127.997330 108.018074,128.054443 107.490677,128.101135 
	C107.276695,128.363571 107.062721,128.626007 106.935074,128.935898 
	C106.935074,128.935898 106.913170,128.839874 106.312729,128.886932 
	C105.864922,129.250198 105.417114,129.613480 104.994858,130.003372 
	C104.994858,130.003372 104.984100,129.969513 104.344048,130.002914 
	C104.137856,130.326248 103.931664,130.649567 103.195877,131.528305 
	C99.463181,132.100876 95.730492,132.673431 91.246140,133.086533 
	C90.482040,133.137604 89.717934,133.188690 88.175804,133.039139 
	C87.108727,133.009842 86.041641,132.980545 84.366066,132.554520 
	C73.633591,130.306259 66.620995,123.791588 63.440159,113.458359 
	C59.940861,102.090561 63.804188,93.217621 73.975754,89.418739 
	C74.316673,89.301735 74.657600,89.184731 75.908264,89.281715 
	C80.275658,89.196777 84.643051,89.111839 89.609077,89.267548 
	C90.427422,89.514732 91.245758,89.761917 92.034149,90.942642 
	C91.440445,101.560837 95.122864,113.194550 83.891510,121.393166 
	C93.843559,122.558685 99.233406,120.518158 103.853737,114.118301 
	C103.952133,113.789665 104.050537,113.461037 104.704437,112.735977 
	C105.214813,111.002892 105.725197,109.269806 106.760628,106.788437 
	C106.857689,97.847656 107.118477,88.902527 106.881554,79.970604 
	C106.844505,78.574043 104.621407,76.158539 103.274895,76.060646 
	C97.537262,75.643463 91.749184,75.920052 85.191147,75.764229 
	C83.850769,75.816902 82.510384,75.869576 80.558243,75.608154 
	C78.985550,75.710014 77.412857,75.811867 75.277191,75.922661 
	C75.082321,76.228722 74.887444,76.534782 73.850883,76.748322 
	C70.821129,77.463989 67.791374,78.179657 64.057693,78.904625 
	C62.325500,80.180443 60.593307,81.456261 58.123955,82.795235 
	C56.468628,84.000870 54.362064,84.883774 53.231396,86.464653 
	C46.032379,96.530205 45.789719,107.562637 49.236877,119.685524 
	C50.426792,122.420204 51.467888,125.231483 52.829792,127.877647 
	C65.571678,152.634933 105.210007,156.768600 123.640228,135.039337 
	C123.803566,134.718765 123.966911,134.398193 124.036163,134.038345 
M263.828278,75.452621 
	C261.607178,74.779945 259.427094,73.780312 257.157318,73.495453 
	C250.153427,72.616478 243.703186,74.202431 239.261276,79.960388 
	C234.650604,85.937119 234.833908,92.637032 238.141296,99.262032 
	C239.084763,101.151848 240.319016,102.896477 241.498901,104.837608 
	C239.008514,106.862846 236.584824,108.606079 234.427277,110.632668 
	C228.758774,115.957054 226.270615,122.598907 228.499588,130.092529 
	C230.719208,137.554672 236.737366,140.970444 244.156418,142.226227 
	C253.322250,143.777634 261.632019,141.616150 269.522461,136.183777 
	C274.309570,144.688400 281.865143,140.641251 289.794373,141.673416 
	C285.421173,136.482956 282.025421,132.452576 279.046082,128.916458 
	C281.794128,122.637756 284.329468,116.845039 286.682495,111.468872 
	C276.999756,105.949356 272.780487,110.428383 270.624237,119.598663 
	C266.669067,115.049942 263.574402,111.490837 260.496002,107.950439 
	C274.652679,94.415039 275.830597,84.032967 263.828278,75.452621 
M192.197510,127.605782 
	C192.197510,125.002602 192.197510,122.399414 192.197510,119.023628 
	C197.799911,119.023628 202.768280,119.303444 207.694733,118.967819 
	C219.470078,118.165611 228.045837,110.194786 228.968399,99.562599 
	C229.978912,87.917023 223.851273,78.067757 212.447357,76.389168 
	C200.908264,74.690674 189.057098,75.112328 177.253937,74.601448 
	C177.253937,97.471054 177.253937,119.187378 177.253937,140.886841 
	C182.358871,140.886841 187.084167,140.886841 192.194504,140.886841 
	C192.194504,136.515533 192.194504,132.544769 192.197510,127.605782 
M307.390350,89.513947 
	C307.448608,100.337494 307.501892,111.161064 307.567108,121.984566 
	C307.601868,127.754837 304.023834,131.477997 299.310059,129.346146 
	C293.169250,126.568878 291.251434,129.885300 289.730774,134.352310 
	C289.305908,135.600342 289.843750,138.176224 290.776764,138.727966 
	C298.184906,143.108765 306.199707,144.336090 314.166718,140.706940 
	C321.823151,137.219269 323.765259,130.137192 323.794342,122.389374 
	C323.844971,108.898407 323.803558,95.407104 323.800903,81.915939 
	C323.800476,79.798088 323.800873,77.680237 323.800873,75.360352 
	C318.180420,75.360352 313.123352,75.360352 307.390961,75.360352 
	C307.390961,79.953926 307.390961,84.237259 307.390350,89.513947 
M357.291656,132.775513 
	C356.484955,135.443176 355.678284,138.110825 354.474915,142.090317 
	C356.815308,141.154907 358.553162,141.002487 359.320801,140.059937 
	C362.706146,135.903198 365.209290,135.870453 368.354370,139.894775 
	C369.171906,140.940857 371.051392,141.157013 373.750641,142.315521 
	C371.190918,134.564240 369.275879,128.409164 367.047180,122.369835 
	C366.679596,121.373833 364.914276,120.288376 363.836578,120.329704 
	C362.756226,120.371117 361.223022,121.556244 360.772552,122.615959 
	C359.479004,125.659042 358.632843,128.892319 357.291656,132.775513 
M380.900452,124.865616 
	C380.249207,128.253418 381.549835,130.536102 384.568359,132.218597 
	C386.220184,133.139313 387.514038,134.702347 388.969299,135.975723 
	C386.860626,136.107346 384.752197,136.243576 382.643036,136.366852 
	C382.201233,136.392685 381.756683,136.370605 380.776123,136.370605 
	C381.039154,137.809952 380.967560,139.898621 381.534576,140.089386 
	C383.928375,140.894943 386.853455,142.077164 388.933563,141.324112 
	C391.130219,140.528885 393.477509,137.926010 394.072235,135.668427 
	C394.508850,134.010956 392.571106,131.317093 391.052551,129.676605 
	C389.667358,128.180161 387.422668,127.479309 385.556763,126.427811 
	C385.752838,125.774368 385.948914,125.120926 386.144958,124.467484 
	C388.482941,124.771233 390.820923,125.074974 393.326599,125.400505 
	C394.577332,122.167709 393.043243,120.540840 389.858185,120.105011 
	C386.159729,119.598923 382.879059,120.250977 380.900452,124.865616 
M347.019440,133.816544 
	C344.189697,131.149048 341.359955,128.481567 337.789612,125.115944 
	C340.812836,125.115944 343.269562,125.115944 345.726288,125.115944 
	C346.068848,124.798836 346.411377,124.481728 346.753937,124.164619 
	C345.426697,122.831001 344.313293,120.789925 342.727783,120.310646 
	C339.400055,119.304718 335.535706,119.697754 334.248749,123.370262 
	C333.497711,125.513405 334.500854,128.589249 335.510162,130.897736 
	C336.018127,132.059601 338.415802,132.285034 339.739777,133.238297 
	C340.655304,133.897491 341.195923,135.077377 341.904083,136.024597 
	C340.742004,136.409836 339.574280,137.120392 338.419250,137.100327 
	C336.878326,137.073547 335.347321,136.479050 333.675873,136.097305 
	C332.201843,141.034241 335.643463,141.398529 338.510803,141.814880 
	C343.507446,142.540405 346.257050,140.089706 347.019440,133.816544 
M191.991959,165.271622 
	C191.991959,161.812622 191.991959,158.353607 191.991959,153.647995 
	C189.720718,154.632248 187.997025,154.951981 186.917984,155.961060 
	C185.720352,157.081024 185.111069,158.830139 184.093613,160.564423 
	C181.637634,157.856781 181.615173,152.400574 175.945953,155.049149 
	C175.945953,157.740417 175.742813,160.407898 176.011261,163.027054 
	C176.219894,165.062561 177.016571,167.037796 177.551880,169.039810 
	C178.289795,167.189148 179.024750,165.337280 179.768921,163.489136 
	C179.878830,163.216217 180.032440,162.960861 180.260559,162.510300 
	C181.392151,164.082962 182.482147,165.597809 183.914352,167.588226 
	C185.356491,165.540039 186.418533,164.031693 188.036179,161.734253 
	C188.036179,163.968994 187.829437,165.285751 188.103470,166.493439 
	C188.311798,167.411499 189.131302,168.190857 189.678864,169.031937 
	C190.449844,168.086731 191.220840,167.141525 191.991959,165.271622 
M280.968994,157.775955 
	C280.968994,161.415237 280.968994,165.054535 280.968994,168.693817 
	C281.438965,168.977142 281.908936,169.260468 282.378937,169.543777 
	C283.568909,168.178101 284.758911,166.812424 285.573212,165.877884 
	C287.616394,167.059875 289.774994,168.308624 291.933594,169.557373 
	C292.203674,169.135620 292.473724,168.713867 292.743805,168.292114 
	C291.796753,166.786316 290.849731,165.280533 289.902679,163.774734 
	C290.337219,163.776306 290.771729,163.777878 291.206238,163.779449 
	C291.495117,161.551437 292.740204,158.722992 291.818512,157.255081 
	C290.784271,155.607910 287.865692,154.770157 285.626587,154.374481 
	C283.913574,154.071777 280.912933,153.101089 280.968994,157.775955 
M349.287415,159.186829 
	C348.567932,165.430130 350.215302,168.425797 355.079559,169.454391 
	C359.020996,170.287842 361.986267,168.760544 363.617615,165.150528 
	C365.282379,161.466568 363.794830,156.861191 360.639465,155.022369 
	C356.887543,152.835876 352.744141,154.129166 349.287415,159.186829 
M201.180237,164.893997 
	C201.011230,162.419006 201.036301,159.908478 200.592468,157.483780 
	C200.365784,156.245346 199.298355,155.160797 198.610931,154.006699 
	C198.059128,154.235565 197.507339,154.464432 196.955536,154.693298 
	C196.955536,157.971924 196.455200,161.360931 197.144989,164.487381 
	C197.552475,166.334351 199.589706,168.625977 201.357086,169.147049 
	C203.198868,169.690048 207.212723,168.758469 207.469894,167.753372 
	C208.528625,163.615494 208.535446,159.205475 208.794830,154.887451 
	C208.800018,154.801193 207.170822,154.616745 206.029007,154.434097 
	C205.866409,157.512054 205.757202,160.145905 205.579575,162.775146 
	C205.416641,165.187042 204.497040,166.655136 201.180237,164.893997 
M376.082428,154.186111 
	C373.665649,155.173325 369.920654,155.522339 369.082001,157.267807 
	C366.599365,162.434891 373.166016,162.275681 375.768158,165.951401 
	C372.893463,165.811829 370.979370,165.718903 369.065277,165.625961 
	C368.826660,166.085770 368.588043,166.545578 368.349396,167.005386 
	C369.834290,167.915604 371.392090,169.660477 372.786774,169.538589 
	C374.831482,169.359894 377.711700,168.365219 378.563904,166.805008 
	C381.458466,161.505493 375.515503,160.867432 372.301514,157.834900 
	C374.990753,157.834900 376.667328,157.834900 379.668091,157.834900 
	C378.249512,156.100006 377.542358,155.235168 376.082428,154.186111 
M255.466934,169.799362 
	C257.326508,168.421768 260.954681,166.210968 260.761322,165.800552 
	C259.413605,162.939865 257.273987,160.452209 255.497894,157.996735 
	C256.456787,157.996735 258.294403,157.996735 260.132050,157.996735 
	C260.365021,157.515930 260.597992,157.035126 260.830963,156.554321 
	C259.489288,155.729752 258.063446,154.123276 256.824829,154.256516 
	C254.759201,154.478775 251.820908,155.269547 250.992340,156.778000 
	C247.751053,162.678818 255.312164,162.147415 257.360687,166.005569 
	C254.681396,165.836212 252.681534,165.709793 250.681686,165.583374 
	C250.423859,166.004425 250.166046,166.425461 249.908234,166.846512 
	C251.504959,167.827377 253.101669,168.808258 255.466934,169.799362 
M306.208862,155.870407 
	C305.371643,158.389328 304.534424,160.908264 303.718719,163.362411 
	C300.510437,160.855194 303.044220,154.109085 295.836487,154.412491 
	C297.454407,158.997452 298.750366,163.061615 300.374756,166.989944 
	C300.766052,167.936249 302.232086,168.960236 303.228546,168.985764 
	C304.203979,169.010757 305.728577,168.025055 306.114624,167.105988 
	C307.804230,163.083298 309.167877,158.923660 311.093414,153.583313 
	C308.785431,154.428711 307.686035,154.831421 306.208862,155.870407 
M329.124146,158.369324 
	C331.165466,158.369324 333.206787,158.369324 335.368652,158.369324 
	C336.048767,154.012054 333.116821,154.045502 330.506989,154.107742 
	C325.940216,154.216660 322.650726,158.236710 323.117645,162.865143 
	C323.533447,166.986542 327.217743,170.202820 331.392670,169.681900 
	C333.651825,169.400009 336.600800,169.038147 335.602051,166.364975 
	C332.395264,165.478241 329.828400,165.228073 327.907593,163.982010 
	C327.256531,163.559662 328.237640,160.621323 329.124146,158.369324 
M269.877014,164.579666 
	C271.531952,163.846542 273.186920,163.113419 276.043671,161.847900 
	C273.551697,160.701981 271.753113,159.874924 268.968628,158.594482 
	C271.077454,158.257599 272.199280,158.274261 273.144958,157.874390 
	C274.170380,157.440765 275.031738,156.619141 275.964630,155.966751 
	C274.967957,155.409927 274.011749,154.487350 272.966278,154.371780 
	C270.733673,154.124985 268.454865,154.296265 266.162292,154.296265 
	C266.162292,159.589890 266.162292,164.145370 266.162292,168.877884 
	C267.464325,168.977142 268.467468,169.249664 269.392883,169.085052 
	C271.606873,168.691299 273.784302,168.091766 275.976471,167.575317 
	C274.016174,166.854889 272.055908,166.134460 269.877014,164.579666 
M229.888428,159.014679 
	C229.937424,161.339844 229.771393,163.698654 230.127853,165.975677 
	C230.300995,167.081818 231.451828,168.034897 232.160049,169.057281 
	C232.763550,168.090439 233.781906,167.166779 233.887924,166.148148 
	C234.142990,163.697647 233.970551,161.202652 233.970551,159.487976 
	C235.686508,157.916061 236.848434,156.851669 238.010361,155.787277 
	C236.453232,155.268814 234.924805,154.613663 233.329147,154.278610 
	C232.216278,154.044937 230.974121,154.072037 229.857178,154.305450 
	C228.556931,154.577148 227.330246,155.200912 226.071640,155.671890 
	C227.198334,156.533997 228.325027,157.396118 229.888428,159.014679 
M217.987473,157.803116 
	C217.264069,156.634262 216.540680,155.465424 215.817291,154.296570 
	C215.242493,155.462357 214.245850,156.602142 214.172104,157.798813 
	C213.951736,161.374146 214.092926,164.971756 214.092926,168.853928 
	C217.792511,168.778412 221.226334,170.516373 224.707336,166.643661 
	C221.926941,166.177994 220.216675,165.891541 217.984528,165.517685 
	C217.984528,163.231476 217.984528,160.963104 217.987473,157.803116 
M314.952057,164.358322 
	C315.029175,165.816162 315.106293,167.273987 315.183411,168.731827 
	C315.545410,168.974442 315.907440,169.217056 316.269440,169.459686 
	C317.106689,168.556076 318.575409,167.711334 318.666168,166.738129 
	C318.972809,163.448837 318.907959,160.107178 318.715240,156.801254 
	C318.665375,155.945770 317.629150,155.147781 317.046021,154.323380 
	C316.349884,155.196594 315.190216,156.002792 315.052277,156.956726 
	C314.746857,159.069260 314.954681,161.255997 314.952057,164.358322 
M344.025665,156.944641 
	C343.342438,156.066956 342.659210,155.189270 341.975983,154.311600 
	C341.344818,155.092056 340.222168,155.840454 340.168823,156.658600 
	C339.955383,159.931534 339.924194,163.237305 340.168060,166.505371 
	C340.234619,167.397629 341.496857,168.200668 342.210388,169.044647 
	C342.814972,168.106384 343.856232,167.205765 343.940948,166.222687 
	C344.180023,163.449448 344.026306,160.642380 344.025665,156.944641 
M244.909378,154.813416 
	C243.892899,155.527252 242.058701,156.178131 241.998047,156.965591 
	C241.695862,160.889511 241.859970,164.849350 241.859970,168.796539 
	C242.461914,169.008423 243.063843,169.220322 243.665787,169.432205 
	C244.305664,168.273117 245.429779,167.140152 245.493988,165.950012 
	C245.681366,162.476196 245.445541,158.979523 244.909378,154.813416 
z"/>
<path fill="#75797F" opacity="1.000000" stroke="none" 
	d="
M264.161041,75.631325 
	C275.830597,84.032967 274.652679,94.415039 260.496002,107.950439 
	C263.574402,111.490837 266.669067,115.049942 270.624237,119.598663 
	C272.780487,110.428383 276.999756,105.949356 286.682495,111.468872 
	C284.329468,116.845039 281.794128,122.637756 279.046082,128.916458 
	C282.025421,132.452576 285.421173,136.482956 289.794373,141.673416 
	C281.865143,140.641251 274.309570,144.688400 269.522461,136.183777 
	C261.632019,141.616150 253.322250,143.777634 244.156418,142.226227 
	C236.737366,140.970444 230.719208,137.554672 228.499588,130.092529 
	C226.270615,122.598907 228.758774,115.957054 234.427277,110.632668 
	C236.584824,108.606079 239.008514,106.862846 241.498901,104.837608 
	C240.319016,102.896477 239.084763,101.151848 238.141296,99.262032 
	C234.833908,92.637032 234.650604,85.937119 239.261276,79.960388 
	C243.703186,74.202431 250.153427,72.616478 257.157318,73.495453 
	C259.427094,73.780312 261.607178,74.779945 264.161041,75.631325 
M254.372086,119.130890 
	C252.382721,116.994537 250.393372,114.858177 248.381775,112.697929 
	C244.084381,115.867058 240.020157,119.074509 241.433777,124.288025 
	C242.155884,126.951195 245.186676,129.807175 247.866379,130.944168 
	C252.890686,133.075974 257.754089,131.447708 262.867828,127.218758 
	C261.055084,125.858482 259.606964,124.973839 258.415375,123.823441 
	C257.105591,122.558876 256.031921,121.049713 254.372086,119.130890 
M260.093353,89.464188 
	C260.099579,86.198242 258.753662,84.010841 255.276077,83.736305 
	C252.215714,83.494705 249.760132,84.313705 248.638931,87.617760 
	C247.231888,91.764183 248.944061,95.767975 254.879608,99.939789 
	C256.654419,96.641678 258.365814,93.461380 260.093353,89.464188 
z"/>
<path fill="#73787E" opacity="1.000000" stroke="none" 
	d="
M192.196014,128.089890 
	C192.194504,132.544769 192.194504,136.515533 192.194504,140.886841 
	C187.084167,140.886841 182.358871,140.886841 177.253937,140.886841 
	C177.253937,119.187378 177.253937,97.471054 177.253937,74.601448 
	C189.057098,75.112328 200.908264,74.690674 212.447357,76.389168 
	C223.851273,78.067757 229.978912,87.917023 228.968399,99.562599 
	C228.045837,110.194786 219.470078,118.165611 207.694733,118.967819 
	C202.768280,119.303444 197.799911,119.023628 192.197510,119.023628 
	C192.197510,122.399414 192.197510,125.002602 192.196014,128.089890 
M194.767731,107.032135 
	C197.918045,106.931465 201.107895,107.108513 204.209641,106.666756 
	C209.192230,105.957108 212.319656,102.423073 212.707870,97.677742 
	C213.114410,92.708450 210.453690,88.207260 205.526123,87.140343 
	C201.301941,86.225731 196.846054,86.381355 192.192490,86.041763 
	C192.192490,92.837219 192.124313,98.635712 192.266220,104.429047 
	C192.287430,105.295197 193.294525,106.137192 194.767731,107.032135 
z"/>
<path fill="#757980" opacity="1.000000" stroke="none" 
	d="
M307.390656,89.017273 
	C307.390961,84.237259 307.390961,79.953926 307.390961,75.360352 
	C313.123352,75.360352 318.180420,75.360352 323.800873,75.360352 
	C323.800873,77.680237 323.800476,79.798088 323.800903,81.915939 
	C323.803558,95.407104 323.844971,108.898407 323.794342,122.389374 
	C323.765259,130.137192 321.823151,137.219269 314.166718,140.706940 
	C306.199707,144.336090 298.184906,143.108765 290.776764,138.727966 
	C289.843750,138.176224 289.305908,135.600342 289.730774,134.352310 
	C291.251434,129.885300 293.169250,126.568878 299.310059,129.346146 
	C304.023834,131.477997 307.601868,127.754837 307.567108,121.984566 
	C307.501892,111.161064 307.448608,100.337494 307.390656,89.017273 
z"/>
<path fill="#0B7AD4" opacity="1.000000" stroke="none" 
	d="
M139.104828,160.103119 
	C117.565163,177.282364 93.548615,178.253860 68.277756,170.888763 
	C66.689415,170.425842 65.166100,169.708206 63.655270,169.015808 
	C48.013172,161.847076 44.554604,154.835907 48.088387,137.257599 
	C66.752777,161.245560 90.418968,166.207733 118.410156,156.201859 
	C118.865807,158.773941 124.480537,163.298691 126.289062,162.499191 
	C130.385071,160.688477 134.677856,160.070908 139.104828,160.103119 
z"/>
<path fill="#08983E" opacity="1.000000" stroke="none" 
	d="
M123.120216,135.239655 
	C105.210007,156.768600 65.571678,152.634933 52.829792,127.877647 
	C51.467888,125.231483 50.426792,122.420204 49.566002,119.298203 
	C52.711002,117.268600 53.367500,119.498665 54.739708,121.245628 
	C57.112804,124.266830 59.580929,128.671631 62.701672,129.360947 
	C70.572289,131.099442 76.664330,137.369583 85.446213,137.018082 
	C89.133575,136.870499 91.351212,137.337280 91.997795,133.245987 
	C95.730492,132.673431 99.463181,132.100876 103.734238,131.174301 
	C104.509766,130.536697 104.746933,130.253113 104.984100,129.969513 
	C104.984100,129.969513 104.994858,130.003372 105.293488,129.994583 
	C106.032463,129.603821 106.472816,129.221848 106.913170,128.839874 
	C106.913170,128.839874 106.935074,128.935898 107.146751,128.873871 
	C107.578308,128.559387 107.798195,128.306915 108.018082,128.054443 
	C108.018074,128.054443 108.006798,127.997330 108.396896,128.020493 
	C109.517685,128.016785 110.248383,127.989937 111.217171,128.234619 
	C113.198647,127.952736 114.942017,127.399284 116.627617,126.864174 
	C119.212334,127.830437 122.131889,128.921875 125.038010,130.389664 
	C125.029793,131.517899 125.034988,132.269775 125.040192,133.021667 
	C125.040192,133.021667 125.003510,133.005005 124.779556,133.122589 
	C124.399689,133.535522 124.243782,133.830872 124.087883,134.126236 
	C124.087883,134.126236 124.036163,134.038345 123.823479,134.158844 
	C123.447266,134.599442 123.283745,134.919556 123.120216,135.239655 
z"/>
<path fill="#0CA145" opacity="1.000000" stroke="none" 
	d="
M91.621964,133.166260 
	C91.351212,137.337280 89.133575,136.870499 85.446213,137.018082 
	C76.664330,137.369583 70.572289,131.099442 62.701672,129.360947 
	C59.580929,128.671631 57.112804,124.266830 54.739708,121.245628 
	C53.367500,119.498665 52.711002,117.268600 49.561707,118.953888 
	C45.789719,107.562637 46.032379,96.530205 53.231396,86.464653 
	C54.362064,84.883774 56.468628,84.000870 58.529709,83.165543 
	C58.859341,88.840012 62.028725,86.384926 64.470177,85.485519 
	C63.989105,87.966873 63.572124,90.117638 63.261311,91.720818 
	C67.030144,90.807892 70.240585,90.030235 73.451035,89.252571 
	C63.804188,93.217621 59.940861,102.090561 63.440159,113.458359 
	C66.620995,123.791588 73.633591,130.306259 84.870728,133.009613 
	C86.568207,133.389709 87.761024,133.314728 88.953835,133.239777 
	C89.717934,133.188690 90.482040,133.137604 91.621964,133.166260 
M62.825787,125.645248 
	C63.480831,125.239204 64.135880,124.833160 64.790924,124.427116 
	C64.392799,124.021667 63.994671,123.616226 63.596535,123.210785 
	C63.179550,123.858803 62.762566,124.506828 62.825787,125.645248 
z"/>
<path fill="#05A243" opacity="1.000000" stroke="none" 
	d="
M22.269619,92.030968 
	C24.280350,86.066826 26.291084,80.102684 28.642250,74.377258 
	C29.200588,75.628754 29.418489,76.641533 29.719976,78.042801 
	C31.469803,76.853577 32.761173,75.975929 34.326340,74.912201 
	C35.998699,77.798149 37.506348,80.399864 38.865341,83.344856 
	C38.126450,85.580826 37.137554,87.447304 37.011116,89.370476 
	C36.230568,101.242905 35.644318,113.128090 34.992355,125.435516 
	C34.663094,128.576096 34.334969,131.290192 33.658218,133.962753 
	C31.388813,132.248947 29.468033,130.576691 27.346378,128.729553 
	C26.378948,129.011444 24.701588,129.500183 23.019844,129.520966 
	C23.011673,120.951797 23.087334,112.849442 22.971586,104.749817 
	C22.910967,100.507721 22.514444,96.270432 22.269619,92.030968 
z"/>
<path fill="#B1DDFA" opacity="1.000000" stroke="none" 
	d="
M148.106537,79.028351 
	C148.051880,65.025452 147.997223,51.022549 148.325562,36.530571 
	C151.431870,37.402000 154.155182,38.762501 158.203735,40.785061 
	C159.598206,37.625542 161.278519,33.818405 162.958817,30.011265 
	C162.973083,44.033749 162.987350,58.056236 162.613495,72.496017 
	C158.381668,71.352646 154.537949,69.791977 150.008972,67.953072 
	C150.008972,70.795753 150.008972,72.900887 150.004486,75.375679 
	C149.368851,76.839668 148.737686,77.934006 148.106537,79.028351 
z"/>
<path fill="#0C903D" opacity="1.000000" stroke="none" 
	d="
M22.111118,92.475212 
	C22.514444,96.270432 22.910967,100.507721 22.971586,104.749817 
	C23.087334,112.849442 23.011673,120.951797 23.011890,129.990845 
	C23.556555,141.133514 21.802229,151.488419 24.266895,162.467285 
	C26.136656,160.958405 27.096664,160.183701 28.422112,159.114090 
	C29.933119,161.861984 31.295694,164.339966 32.658272,166.817932 
	C35.246319,155.613419 35.912563,144.834274 34.006840,134.004303 
	C34.334969,131.290192 34.663094,128.576096 35.226479,125.433449 
	C35.461735,125.004913 35.929794,124.998077 35.929794,124.998077 
	C35.929794,144.448685 35.929794,163.899277 35.929794,183.708572 
	C31.351162,183.708572 26.802036,183.708572 21.952616,183.708572 
	C21.952616,153.363815 21.952616,123.141632 22.111118,92.475212 
z"/>
<path fill="#0A80DA" opacity="1.000000" stroke="none" 
	d="
M139.085297,160.077805 
	C134.677856,160.070908 130.385071,160.688477 126.289062,162.499191 
	C124.480537,163.298691 118.865807,158.773941 118.784592,156.160690 
	C118.856255,155.823624 118.893730,155.854584 119.274277,155.905518 
	C121.216957,156.149796 122.779099,156.343124 124.965866,156.613754 
	C125.068748,154.809280 125.162422,153.166245 125.256104,151.523224 
	C125.256104,151.523224 125.443359,151.409134 125.824844,151.513443 
	C126.444038,151.346573 126.681747,151.075394 126.919464,150.804199 
	C126.919464,150.804214 126.936180,150.924835 127.130989,150.840027 
	C127.535843,150.478561 127.745888,150.201935 127.955933,149.925293 
	C127.955933,149.925293 127.977844,150.005203 128.324875,149.984039 
	C129.455627,149.008636 130.239349,148.054382 131.023071,147.100143 
	C131.023071,147.100143 131.020340,147.018997 131.429855,147.008423 
	C132.885315,145.658600 133.931274,144.319351 134.977234,142.980118 
	C134.977234,142.980118 135.000000,143.000000 135.218353,142.864273 
	C135.608078,142.429321 135.779434,142.130081 135.950806,141.830856 
	C137.543335,139.758438 139.135849,137.686035 141.139084,135.558777 
	C144.515884,145.854294 142.210388,143.179749 149.861374,144.211395 
	C152.009674,142.565201 153.588257,141.355560 155.166840,140.145935 
	C153.734222,142.680450 152.301590,145.214981 150.301636,148.012421 
	C149.472321,148.792740 149.210342,149.310135 148.948380,149.827530 
	C148.801315,150.154236 148.654251,150.480942 148.029419,151.027527 
	C147.381134,151.529709 147.210602,151.811981 147.040070,152.094269 
	C147.040070,152.094269 147.020477,152.021774 146.814178,152.144211 
	C146.435638,152.572968 146.263397,152.879303 146.091171,153.185623 
	C146.091171,153.185623 146.105484,153.089218 145.781036,153.102112 
	C144.701584,154.152481 143.946564,155.189957 143.191544,156.227432 
	C143.191544,156.227432 143.066345,156.052719 142.751801,156.070282 
	C141.670456,157.117233 140.903625,158.146652 140.136810,159.176071 
	C140.136810,159.176071 140.085480,159.103851 139.872498,159.179810 
	C139.455017,159.541367 139.250519,159.826965 139.046021,160.112579 
	C139.046021,160.112579 139.065750,160.052490 139.085297,160.077805 
z"/>
<path fill="#A7D9FB" opacity="1.000000" stroke="none" 
	d="
M162.975739,29.635916 
	C161.278519,33.818405 159.598206,37.625542 158.203735,40.785061 
	C154.155182,38.762501 151.431870,37.402000 148.313843,36.067924 
	C147.919128,36.094349 147.951996,36.071106 147.797302,35.733810 
	C146.801849,34.983135 145.953354,34.197010 145.121506,34.214222 
	C137.066910,34.380898 129.015076,34.682396 120.969154,34.706898 
	C120.975845,34.468399 120.994499,33.991577 121.454453,33.993637 
	C127.157692,33.892780 132.985336,35.504551 135.894043,28.824638 
	C136.264755,27.973274 138.069931,27.846579 138.767715,27.013323 
	C139.729889,25.864382 140.270660,24.362564 141.460022,23.007874 
	C148.293533,23.329124 154.658981,23.654409 161.024429,23.979692 
	C161.024429,23.979692 160.999390,23.999771 161.005493,24.333874 
	C161.619553,25.450821 162.227524,26.233667 162.835510,27.016510 
	C162.887894,27.764528 162.940262,28.512547 162.975739,29.635916 
z"/>
<path fill="#2BB339" opacity="1.000000" stroke="none" 
	d="
M74.692566,76.840851 
	C74.887444,76.534782 75.082321,76.228722 75.999680,75.984863 
	C78.204773,76.005463 79.687393,75.963860 81.170006,75.922249 
	C82.510384,75.869576 83.850769,75.816902 85.767120,76.111412 
	C87.232780,76.964600 88.122452,77.470596 89.044136,78.326134 
	C92.688843,82.602516 96.426018,86.424355 99.863419,90.499084 
	C101.669830,92.640411 101.826622,96.446159 105.955406,96.472939 
	C106.056480,100.470871 106.146034,104.003792 106.235580,107.536720 
	C105.725197,109.269806 105.214813,111.002892 104.346207,112.869873 
	C103.987968,113.003761 103.825211,112.877403 103.875702,112.469574 
	C103.926201,109.804771 103.926201,107.547813 103.926201,105.290848 
	C100.700180,103.716446 98.327065,101.240898 95.798492,98.935883 
	C95.182632,98.374474 94.056053,98.373314 93.117569,97.681763 
	C92.735260,94.835678 92.399681,92.422394 92.064102,90.009094 
	C91.245758,89.761917 90.427422,89.514732 89.073067,88.878052 
	C87.184486,87.324356 85.452110,86.396362 84.552711,84.950302 
	C82.145988,81.080757 79.510460,77.692329 74.692566,76.840851 
z"/>
<path fill="#7C8084" opacity="1.000000" stroke="none" 
	d="
M357.451233,132.413177 
	C358.632843,128.892319 359.479004,125.659042 360.772552,122.615959 
	C361.223022,121.556244 362.756226,120.371117 363.836578,120.329704 
	C364.914276,120.288376 366.679596,121.373833 367.047180,122.369835 
	C369.275879,128.409164 371.190918,134.564240 373.750641,142.315521 
	C371.051392,141.157013 369.171906,140.940857 368.354370,139.894775 
	C365.209290,135.870453 362.706146,135.903198 359.320801,140.059937 
	C358.553162,141.002487 356.815308,141.154907 354.474915,142.090317 
	C355.678284,138.110825 356.484955,135.443176 357.451233,132.413177 
z"/>
<path fill="#7E8085" opacity="1.000000" stroke="none" 
	d="
M380.994873,124.469734 
	C382.879059,120.250977 386.159729,119.598923 389.858185,120.105011 
	C393.043243,120.540840 394.577332,122.167709 393.326599,125.400505 
	C390.820923,125.074974 388.482941,124.771233 386.144958,124.467484 
	C385.948914,125.120926 385.752838,125.774368 385.556763,126.427811 
	C387.422668,127.479309 389.667358,128.180161 391.052551,129.676605 
	C392.571106,131.317093 394.508850,134.010956 394.072235,135.668427 
	C393.477509,137.926010 391.130219,140.528885 388.933563,141.324112 
	C386.853455,142.077164 383.928375,140.894943 381.534576,140.089386 
	C380.967560,139.898621 381.039154,137.809952 380.776123,136.370605 
	C381.756683,136.370605 382.201233,136.392685 382.643036,136.366852 
	C384.752197,136.243576 386.860626,136.107346 388.969299,135.975739 
	C387.514038,134.702347 386.220184,133.139313 384.568359,132.218597 
	C381.549835,130.536102 380.249207,128.253418 380.994873,124.469734 
z"/>
<path fill="#7F8287" opacity="1.000000" stroke="none" 
	d="
M347.034363,134.217133 
	C346.257050,140.089706 343.507446,142.540405 338.510803,141.814880 
	C335.643463,141.398529 332.201843,141.034241 333.675873,136.097305 
	C335.347321,136.479050 336.878326,137.073547 338.419250,137.100327 
	C339.574280,137.120392 340.742004,136.409836 341.904083,136.024597 
	C341.195923,135.077377 340.655304,133.897491 339.739777,133.238297 
	C338.415802,132.285034 336.018127,132.059601 335.510162,130.897736 
	C334.500854,128.589249 333.497711,125.513405 334.248749,123.370262 
	C335.535706,119.697754 339.400055,119.304718 342.727783,120.310646 
	C344.313293,120.789925 345.426697,122.831001 346.753937,124.164619 
	C346.411377,124.481728 346.068848,124.798836 345.726288,125.115944 
	C343.269562,125.115944 340.812836,125.115944 337.789612,125.115944 
	C341.359955,128.481567 344.189697,131.149048 347.034363,134.217133 
z"/>
<path fill="#48BF3C" opacity="1.000000" stroke="none" 
	d="
M82.970047,62.877502 
	C76.588951,63.551113 70.207855,64.224724 63.458664,64.581635 
	C63.742657,63.522972 64.394745,62.781002 65.432968,62.021942 
	C67.519577,61.006805 69.220039,60.008755 70.920494,59.010696 
	C69.695580,57.628674 68.498550,56.220688 67.240524,54.869488 
	C63.444397,50.792194 59.257900,51.878426 54.785233,53.879860 
	C54.282776,53.567562 54.094357,53.301659 53.998432,52.970215 
	C60.041054,51.660248 66.083672,50.350285 72.644096,49.443253 
	C74.984901,51.337997 77.213203,52.540787 78.532921,54.391483 
	C80.368660,56.965801 81.523666,60.025539 82.970047,62.877502 
z"/>
<path fill="#808388" opacity="1.000000" stroke="none" 
	d="
M191.991898,165.733978 
	C191.220840,167.141525 190.449844,168.086731 189.678864,169.031937 
	C189.131302,168.190857 188.311798,167.411499 188.103470,166.493439 
	C187.829437,165.285751 188.036179,163.968994 188.036179,161.734253 
	C186.418533,164.031693 185.356491,165.540039 183.914352,167.588226 
	C182.482147,165.597809 181.392151,164.082962 180.260559,162.510300 
	C180.032440,162.960861 179.878830,163.216217 179.768921,163.489136 
	C179.024750,165.337280 178.289795,167.189148 177.551880,169.039810 
	C177.016571,167.037796 176.219894,165.062561 176.011261,163.027054 
	C175.742813,160.407898 175.945953,157.740417 175.945953,155.049149 
	C181.615173,152.400574 181.637634,157.856781 184.093613,160.564423 
	C185.111069,158.830139 185.720352,157.081024 186.917984,155.961060 
	C187.997025,154.951981 189.720718,154.632248 191.991959,153.647995 
	C191.991959,158.353607 191.991959,161.812622 191.991898,165.733978 
z"/>
<path fill="#2CB23F" opacity="1.000000" stroke="none" 
	d="
M65.046829,62.039032 
	C64.394745,62.781002 63.742657,63.522972 63.051620,64.565849 
	C59.231880,66.864151 55.451092,68.861549 51.052040,70.900612 
	C50.251972,70.920479 50.070171,70.898682 49.968697,70.555557 
	C51.250195,68.730179 52.451366,67.226135 53.666134,65.705070 
	C50.624134,60.842205 46.376492,59.427841 41.124451,60.183025 
	C41.084160,60.123756 41.003643,60.005180 41.003647,60.005180 
	C45.087238,57.665272 49.170830,55.325359 53.626427,52.977829 
	C54.094357,53.301659 54.282776,53.567562 54.836945,54.222427 
	C58.422417,57.130966 61.734623,59.585003 65.046829,62.039032 
z"/>
<path fill="#06A839" opacity="1.000000" stroke="none" 
	d="
M39.013992,83.001572 
	C37.506348,80.399864 35.998699,77.798149 34.326340,74.912201 
	C32.761173,75.975929 31.469803,76.853577 29.719976,78.042801 
	C29.418489,76.641533 29.200588,75.628754 28.968613,74.241577 
	C30.858076,71.437813 32.761612,69.008446 35.140881,66.259842 
	C36.404060,65.619537 37.191505,65.298454 38.333649,65.022644 
	C41.808125,67.053421 44.927902,69.038933 47.889370,71.319061 
	C44.825371,75.409645 41.919685,79.205605 39.013992,83.001572 
z"/>
<path fill="#A9E25B" opacity="1.000000" stroke="none" 
	d="
M109.011955,49.099117 
	C115.666122,49.043419 122.322357,49.069782 128.973694,48.901958 
	C133.116562,48.797428 134.744553,51.088104 134.768982,54.742138 
	C134.832428,64.228523 134.728012,73.716026 134.225220,83.490669 
	C133.504730,82.513641 133.249603,81.249039 133.004395,79.557480 
	C132.995407,77.417274 132.976501,75.704033 132.920502,73.590889 
	C132.569641,69.314201 132.364899,65.423691 131.879669,61.568478 
	C131.721649,60.313023 130.979187,59.048725 130.240509,57.968708 
	C129.216766,56.471882 128.081512,54.991703 126.738243,53.790382 
	C125.480766,52.665791 123.985214,51.410023 122.423782,51.114933 
	C120.024612,50.661514 117.479393,50.980907 114.623589,50.968632 
	C112.504677,50.342957 110.758316,49.721039 109.011955,49.099117 
z"/>
<path fill="#9ED5FB" opacity="1.000000" stroke="none" 
	d="
M140.991943,23.011906 
	C140.270660,24.362564 139.729889,25.864382 138.767715,27.013323 
	C138.069931,27.846579 136.264755,27.973274 135.894043,28.824638 
	C132.985336,35.504551 127.157692,33.892780 121.450638,33.627464 
	C120.818184,31.386679 119.411896,29.336536 122.718948,28.321098 
	C123.817795,27.983700 124.258636,25.503376 125.002518,23.723965 
	C125.005264,23.259333 125.005806,23.073477 125.006355,22.887621 
	C127.332954,22.901117 129.659561,22.914616 132.878754,22.948566 
	C136.178207,22.983313 138.585068,22.997608 140.991943,23.011906 
z"/>
<path fill="#22A447" opacity="1.000000" stroke="none" 
	d="
M92.049126,90.475876 
	C92.399681,92.422394 92.735260,94.835678 93.132904,98.082809 
	C93.462715,100.856941 93.928307,102.793694 93.963058,104.738136 
	C94.094887,112.115753 95.144524,113.247429 103.049789,114.034843 
	C103.174965,114.171150 103.436462,114.433098 103.436462,114.433098 
	C99.233406,120.518158 93.843559,122.558685 83.891510,121.393166 
	C95.122864,113.194550 91.440445,101.560837 92.049126,90.475876 
z"/>
<path fill="#96D2FA" opacity="1.000000" stroke="none" 
	d="
M125.000305,24.002743 
	C124.258636,25.503376 123.817795,27.983700 122.718948,28.321098 
	C119.411896,29.336536 120.818184,31.386679 120.990692,33.625404 
	C120.994499,33.991577 120.975845,34.468399 120.505051,34.718063 
	C115.250031,34.974205 110.448311,35.208176 105.692741,34.842278 
	C104.345322,34.738605 103.132599,32.884296 101.858101,31.832855 
	C102.325150,31.534679 102.792198,31.236504 103.795486,30.843229 
	C104.540756,30.486477 104.749786,30.224823 104.958809,29.963171 
	C104.958809,29.963171 105.002457,29.980297 105.352516,29.977642 
	C107.139503,28.994362 108.576424,28.013739 110.013344,27.033115 
	C110.013344,27.033113 110.456604,26.955294 111.084503,26.958466 
	C114.822884,25.683001 117.933350,24.404366 121.043823,23.125731 
	C121.479294,23.091351 121.914757,23.056971 122.850174,23.261112 
	C123.900185,23.667334 124.450241,23.835039 125.000305,24.002743 
z"/>
<path fill="#84868A" opacity="1.000000" stroke="none" 
	d="
M280.973145,157.319824 
	C280.912933,153.101089 283.913574,154.071777 285.626587,154.374481 
	C287.865692,154.770157 290.784271,155.607910 291.818512,157.255081 
	C292.740204,158.722992 291.495117,161.551437 291.206238,163.779449 
	C290.771729,163.777878 290.337219,163.776306 289.902679,163.774734 
	C290.849731,165.280533 291.796753,166.786316 292.743805,168.292114 
	C292.473724,168.713867 292.203674,169.135620 291.933594,169.557373 
	C289.774994,168.308624 287.616394,167.059875 285.573212,165.877884 
	C284.758911,166.812424 283.568909,168.178101 282.378937,169.543777 
	C281.908936,169.260468 281.438965,168.977142 280.968994,168.693817 
	C280.968994,165.054535 280.968994,161.415237 280.973145,157.319824 
z"/>
<path fill="#7F8287" opacity="1.000000" stroke="none" 
	d="
M349.452393,158.824753 
	C352.744141,154.129166 356.887543,152.835876 360.639465,155.022369 
	C363.794830,156.861191 365.282379,161.466568 363.617615,165.150528 
	C361.986267,168.760544 359.020996,170.287842 355.079559,169.454391 
	C350.215302,168.425797 348.567932,165.430130 349.452393,158.824753 
M353.169617,159.888947 
	C353.854401,161.863770 354.336029,163.963470 355.404816,165.702271 
	C355.605316,166.028534 359.087128,165.261398 359.413666,164.386368 
	C360.015442,162.774002 360.090057,159.845108 359.108063,159.058868 
	C358.002625,158.173767 355.487427,159.049377 353.169617,159.888947 
z"/>
<path fill="#0DAB39" opacity="1.000000" stroke="none" 
	d="
M73.713394,89.335655 
	C70.240585,90.030235 67.030144,90.807892 63.261311,91.720818 
	C63.572124,90.117638 63.989105,87.966873 64.470177,85.485519 
	C62.028725,86.384926 58.859341,88.840012 58.898293,83.133972 
	C60.593307,81.456261 62.325500,80.180443 64.827156,78.929413 
	C73.022293,79.417793 76.466583,83.122780 74.998520,89.067726 
	C74.657600,89.184731 74.316673,89.301735 73.713394,89.335655 
z"/>
<path fill="#0489E3" opacity="1.000000" stroke="none" 
	d="
M155.172577,140.154877 
	C153.588257,141.355560 152.009674,142.565201 149.861374,144.211395 
	C142.210388,143.179749 144.515884,145.854294 141.276535,135.253998 
	C141.645020,133.887375 142.286743,132.770676 143.242523,131.213226 
	C144.032013,130.509979 144.507462,130.247452 145.321777,130.042908 
	C148.042633,134.243484 152.458725,132.980728 156.007050,134.389862 
	C155.731216,136.570908 155.465134,138.360107 155.199066,140.149323 
	C155.199066,140.149323 155.178299,140.163834 155.172577,140.154877 
z"/>
<path fill="#5AC63C" opacity="1.000000" stroke="none" 
	d="
M83.418686,62.965275 
	C81.523666,60.025539 80.368660,56.965801 78.532921,54.391483 
	C77.213203,52.540787 74.984901,51.337997 73.083382,49.511963 
	C76.701859,49.119957 80.398857,49.062176 84.556686,49.445816 
	C87.669952,54.215816 90.322372,58.544395 92.974800,62.872978 
	C89.938980,62.933002 86.903152,62.993023 83.418686,62.965275 
z"/>
<path fill="#7C8084" opacity="1.000000" stroke="none" 
	d="
M201.464966,165.230820 
	C204.497040,166.655136 205.416641,165.187042 205.579575,162.775146 
	C205.757202,160.145905 205.866409,157.512054 206.029007,154.434097 
	C207.170822,154.616745 208.800018,154.801193 208.794830,154.887451 
	C208.535446,159.205475 208.528625,163.615494 207.469894,167.753372 
	C207.212723,168.758469 203.198868,169.690048 201.357086,169.147049 
	C199.589706,168.625977 197.552475,166.334351 197.144989,164.487381 
	C196.455200,161.360931 196.955536,157.971924 196.955536,154.693298 
	C197.507339,154.464432 198.059128,154.235565 198.610931,154.006699 
	C199.298355,155.160797 200.365784,156.245346 200.592468,157.483780 
	C201.036301,159.908478 201.011230,162.419006 201.464966,165.230820 
z"/>
<path fill="#1BAE38" opacity="1.000000" stroke="none" 
	d="
M75.453392,89.174721 
	C76.466583,83.122780 73.022293,79.417793 65.179123,78.924759 
	C67.791374,78.179657 70.821129,77.463989 74.271729,76.794586 
	C79.510460,77.692329 82.145988,81.080757 84.552711,84.950302 
	C85.452110,86.396362 87.184486,87.324356 88.773750,88.757736 
	C84.643051,89.111839 80.275658,89.196777 75.453392,89.174721 
z"/>
<path fill="#7E8085" opacity="1.000000" stroke="none" 
	d="
M376.458801,154.278229 
	C377.542358,155.235168 378.249512,156.100006 379.668091,157.834900 
	C376.667328,157.834900 374.990753,157.834900 372.301514,157.834900 
	C375.515503,160.867432 381.458466,161.505493 378.563904,166.805008 
	C377.711700,168.365219 374.831482,169.359894 372.786774,169.538589 
	C371.392090,169.660477 369.834290,167.915604 368.349396,167.005386 
	C368.588043,166.545578 368.826660,166.085770 369.065277,165.625961 
	C370.979370,165.718903 372.893463,165.811829 375.768158,165.951401 
	C373.166016,162.275681 366.599365,162.434891 369.082001,157.267807 
	C369.920654,155.522339 373.665649,155.173325 376.458801,154.278229 
z"/>
<path fill="#84868A" opacity="1.000000" stroke="none" 
	d="
M255.082672,169.794250 
	C253.101669,168.808258 251.504959,167.827377 249.908234,166.846512 
	C250.166046,166.425461 250.423859,166.004425 250.681686,165.583374 
	C252.681534,165.709793 254.681396,165.836212 257.360687,166.005569 
	C255.312164,162.147415 247.751053,162.678818 250.992340,156.778000 
	C251.820908,155.269547 254.759201,154.478775 256.824829,154.256516 
	C258.063446,154.123276 259.489288,155.729752 260.830963,156.554321 
	C260.597992,157.035126 260.365021,157.515930 260.132050,157.996735 
	C258.294403,157.996735 256.456787,157.996735 255.497894,157.996735 
	C257.273987,160.452209 259.413605,162.939865 260.761322,165.800552 
	C260.954681,166.210968 257.326508,168.421768 255.082672,169.794250 
z"/>
<path fill="#4CB942" opacity="1.000000" stroke="none" 
	d="
M106.498108,107.162582 
	C106.146034,104.003792 106.056480,100.470871 105.919746,96.065720 
	C105.269409,91.858879 105.546631,87.972176 103.875481,85.307304 
	C100.632866,80.136536 96.110970,76.036896 89.012131,77.976601 
	C88.122452,77.470596 87.232780,76.964600 86.161308,76.201012 
	C91.749184,75.920052 97.537262,75.643463 103.274895,76.060646 
	C104.621407,76.158539 106.844505,78.574043 106.881554,79.970604 
	C107.118477,88.902527 106.857689,97.847656 106.498108,107.162582 
z"/>
<path fill="#84868A" opacity="1.000000" stroke="none" 
	d="
M306.397766,155.552277 
	C307.686035,154.831421 308.785431,154.428711 311.093414,153.583313 
	C309.167877,158.923660 307.804230,163.083298 306.114624,167.105988 
	C305.728577,168.025055 304.203979,169.010757 303.228546,168.985764 
	C302.232086,168.960236 300.766052,167.936249 300.374756,166.989944 
	C298.750366,163.061615 297.454407,158.997452 295.836487,154.412491 
	C303.044220,154.109085 300.510437,160.855194 303.718719,163.362411 
	C304.534424,160.908264 305.371643,158.389328 306.397766,155.552277 
z"/>
<path fill="#2298E5" opacity="1.000000" stroke="none" 
	d="
M144.982910,129.984924 
	C144.507462,130.247452 144.032013,130.509979 143.309509,130.886627 
	C143.593918,129.199570 144.125381,127.398392 145.152496,125.131126 
	C146.951035,122.484146 148.253906,120.303246 149.870010,117.598068 
	C153.662140,121.012970 157.064301,124.076683 160.466446,127.140396 
	C158.903625,131.347855 157.340790,135.555328 155.488525,139.956055 
	C155.465134,138.360107 155.731216,136.570908 156.276398,134.183472 
	C158.311203,131.032211 158.198181,129.375473 154.607361,128.959167 
	C153.238724,128.800491 151.741653,128.319214 150.644058,127.517921 
	C147.178619,124.987961 145.618423,126.295105 144.982910,129.984924 
z"/>
<path fill="#84868A" opacity="1.000000" stroke="none" 
	d="
M328.798523,158.601044 
	C328.237640,160.621323 327.256531,163.559662 327.907593,163.982010 
	C329.828400,165.228073 332.395264,165.478241 335.602051,166.364975 
	C336.600800,169.038147 333.651825,169.400009 331.392670,169.681900 
	C327.217743,170.202820 323.533447,166.986542 323.117645,162.865143 
	C322.650726,158.236710 325.940216,154.216660 330.506989,154.107742 
	C333.116821,154.045502 336.048767,154.012054 335.368652,158.369324 
	C333.206787,158.369324 331.165466,158.369324 328.798523,158.601044 
z"/>
<path fill="#7E8085" opacity="1.000000" stroke="none" 
	d="
M269.986328,164.996857 
	C272.055908,166.134460 274.016174,166.854889 275.976471,167.575317 
	C273.784302,168.091766 271.606873,168.691299 269.392883,169.085052 
	C268.467468,169.249664 267.464325,168.977142 266.162292,168.877884 
	C266.162292,164.145370 266.162292,159.589890 266.162292,154.296265 
	C268.454865,154.296265 270.733673,154.124985 272.966278,154.371780 
	C274.011749,154.487350 274.967957,155.409927 275.964630,155.966736 
	C275.031738,156.619141 274.170380,157.440765 273.144958,157.874390 
	C272.199280,158.274261 271.077454,158.257599 268.968628,158.594482 
	C271.753113,159.874924 273.551697,160.701981 276.043671,161.847900 
	C273.186920,163.113419 271.531952,163.846542 269.986328,164.996857 
z"/>
<path fill="#29A549" opacity="1.000000" stroke="none" 
	d="
M125.345840,132.877716 
	C125.034988,132.269775 125.029793,131.517899 125.295746,130.162872 
	C126.759460,127.002998 127.952019,124.446281 129.062775,122.064934 
	C124.920265,121.047401 121.492378,120.205399 117.964607,119.338860 
	C115.709793,122.122612 113.344437,125.042847 110.979073,127.963074 
	C110.248383,127.989937 109.517685,128.016785 108.421562,128.035950 
	C111.469154,123.056572 114.882187,118.084915 118.630280,113.238922 
	C119.820808,118.583282 124.456238,117.760933 127.846260,118.612297 
	C128.633850,118.810089 129.943344,116.929703 131.274048,115.894104 
	C132.040298,115.524734 132.545212,115.266808 133.050140,115.008881 
	C130.583923,120.917168 128.117706,126.825455 125.345840,132.877716 
z"/>
<path fill="#8CDA3B" opacity="1.000000" stroke="none" 
	d="
M108.552040,49.046471 
	C110.758316,49.721039 112.504677,50.342957 114.660095,51.323513 
	C114.907913,53.794647 114.746658,55.907150 114.607704,57.727562 
	C115.746117,59.150009 116.873543,60.558727 117.563133,61.974945 
	C115.081711,61.980637 113.038109,61.978832 110.986832,61.609959 
	C109.744102,59.588085 107.640358,58.030983 107.441132,56.259674 
	C106.900154,51.449913 103.754219,50.548416 99.599777,50.036415 
	C98.473183,50.010777 97.721375,49.999439 96.977119,49.790619 
	C96.984665,49.593132 97.013206,49.198910 97.013206,49.198910 
	C100.706177,49.130547 104.399155,49.062187 108.552040,49.046471 
z"/>
<path fill="#69BBEE" opacity="1.000000" stroke="none" 
	d="
M162.886444,99.986214 
	C162.933212,102.701210 162.979965,105.416199 162.731064,108.572739 
	C162.435410,109.014275 162.000076,109.003067 162.000671,108.598831 
	C162.153030,100.187958 154.185410,102.030136 151.055252,98.004448 
	C150.702286,98.234467 150.349304,98.464478 149.996338,98.694496 
	C149.996338,100.795006 149.996338,102.895523 149.869232,105.293282 
	C149.211166,106.717690 148.680191,107.844849 148.149200,108.972008 
	C148.106644,105.291031 148.064102,101.610046 148.422729,97.382904 
	C150.372604,94.513023 151.483032,91.080269 155.287201,93.904045 
	C157.890686,95.836578 160.358170,97.952354 162.886444,99.986214 
z"/>
<path fill="#7AC3F2" opacity="1.000000" stroke="none" 
	d="
M162.951111,99.614609 
	C160.358170,97.952354 157.890686,95.836578 155.287201,93.904045 
	C151.483032,91.080269 150.372604,94.513023 148.477936,96.926445 
	C148.383255,94.972786 148.634567,92.929428 148.927612,90.124237 
	C149.308762,88.236534 149.648163,87.110664 150.356079,86.031837 
	C156.536057,87.765709 162.002335,89.839256 162.941971,96.984108 
	C162.966583,97.737068 162.991180,98.490036 162.951111,99.614609 
z"/>
<path fill="#359FE4" opacity="1.000000" stroke="none" 
	d="
M160.664856,126.837021 
	C157.064301,124.076683 153.662140,121.012970 149.870010,117.598068 
	C148.253906,120.303246 146.951035,122.484146 145.345917,124.831345 
	C145.931931,121.231415 146.820190,117.465202 148.102036,113.354507 
	C148.662354,113.010315 148.829102,113.010597 149.230530,113.272385 
	C151.388916,114.594109 153.223602,115.895836 155.261261,116.646881 
	C157.314667,117.403732 159.569656,117.613586 161.806458,118.300110 
	C161.876572,118.537117 162.022171,119.009506 162.022171,119.009506 
	C161.635864,121.517548 161.249573,124.025597 160.664856,126.837021 
z"/>
<path fill="#9ED5FB" opacity="1.000000" stroke="none" 
	d="
M150.008972,75.006027 
	C150.008972,72.900887 150.008972,70.795753 150.008972,67.953072 
	C154.537949,69.791977 158.381668,71.352646 162.582611,72.964828 
	C162.951599,74.093834 162.963379,75.171333 162.697510,76.866646 
	C161.233932,78.017967 159.812271,79.258560 158.905029,78.956108 
	C155.841232,77.934700 152.960007,76.365677 150.008972,75.006027 
z"/>
<path fill="#87898D" opacity="1.000000" stroke="none" 
	d="
M229.670074,158.636444 
	C228.325027,157.396118 227.198334,156.533997 226.071640,155.671906 
	C227.330246,155.200912 228.556931,154.577148 229.857178,154.305450 
	C230.974121,154.072037 232.216278,154.044937 233.329147,154.278610 
	C234.924805,154.613663 236.453232,155.268814 238.010361,155.787262 
	C236.848434,156.851669 235.686508,157.916061 233.970551,159.487976 
	C233.970551,161.202652 234.142990,163.697647 233.887924,166.148148 
	C233.781906,167.166779 232.763550,168.090439 232.160049,169.057281 
	C231.451828,168.034897 230.300995,167.081818 230.127853,165.975677 
	C229.771393,163.698654 229.937424,161.339844 229.670074,158.636444 
z"/>
<path fill="#42BC3A" opacity="1.000000" stroke="none" 
	d="
M134.077667,100.085136 
	C134.101730,103.131325 134.125778,106.177521 133.800720,109.638084 
	C133.451599,110.052460 133.028214,110.070847 132.728699,109.907677 
	C129.128159,106.916687 126.233322,103.116692 120.980469,104.520538 
	C120.998062,101.716606 121.015396,99.352936 121.411911,96.994400 
	C124.208923,98.510429 126.735161,99.875671 129.014694,101.572372 
	C131.384491,103.336250 132.887711,103.738495 133.195816,100.049835 
	C133.607635,100.062958 133.842651,100.074089 134.077667,100.085136 
z"/>
<path fill="#98D0F5" opacity="1.000000" stroke="none" 
	d="
M150.004486,75.375679 
	C152.960007,76.365677 155.841232,77.934700 158.905029,78.956108 
	C159.812271,79.258560 161.233932,78.017967 162.659592,77.269371 
	C162.943344,81.058144 162.987366,85.062012 162.732300,89.269547 
	C162.713394,84.689568 158.903122,83.798927 155.669342,82.319664 
	C150.712723,80.052315 150.223465,80.351929 149.987579,85.984795 
	C149.648163,87.110664 149.308762,88.236534 148.942795,89.738495 
	C148.624924,86.719009 148.333633,83.323441 148.074432,79.478111 
	C148.737686,77.934006 149.368851,76.839668 150.004486,75.375679 
z"/>
<path fill="#29A549" opacity="1.000000" stroke="none" 
	d="
M38.865341,83.344856 
	C41.919685,79.205605 44.825371,75.409645 48.197113,71.308212 
	C49.071571,70.960793 49.479969,70.918846 49.888371,70.876892 
	C50.070171,70.898682 50.251972,70.920479 50.707314,70.967163 
	C39.791298,80.508293 35.651833,92.879295 36.136620,107.212486 
	C36.326626,112.830269 36.156876,118.460205 36.040382,124.541344 
	C35.929794,124.998077 35.461735,125.004913 35.227615,125.006973 
	C35.644318,113.128090 36.230568,101.242905 37.011116,89.370476 
	C37.137554,87.447304 38.126450,85.580826 38.865341,83.344856 
z"/>
<path fill="#68CB3B" opacity="1.000000" stroke="none" 
	d="
M96.555771,49.120785 
	C97.013206,49.198910 96.984665,49.593132 96.628799,49.833984 
	C93.723862,50.647903 92.707840,51.959805 93.994354,54.536922 
	C95.057182,56.665970 96.009422,58.850216 97.013878,61.257698 
	C97.017090,61.505394 97.044983,62.000038 97.032562,62.232086 
	C97.020149,62.464134 96.993378,62.928123 96.993378,62.928123 
	C95.917343,62.968044 94.841309,63.007969 93.370041,62.960434 
	C90.322372,58.544395 87.669952,54.215816 85.010254,49.534592 
	C88.701439,49.135517 92.399879,49.089088 96.555771,49.120785 
z"/>
<path fill="#68CB3B" opacity="1.000000" stroke="none" 
	d="
M134.069122,86.061081 
	C134.203522,88.430473 134.337921,90.799866 133.991577,93.560730 
	C132.023239,92.778099 130.523010,91.619576 129.050949,90.426308 
	C126.701538,88.521866 124.605568,85.820808 121.017197,87.558708 
	C121.015434,85.083870 121.021645,83.045738 121.400528,81.012817 
	C123.385994,81.709221 124.989319,82.423660 126.613792,83.086243 
	C129.091217,84.096680 131.583282,85.071266 134.069122,86.061081 
M133.428635,89.483047 
	C133.428635,89.483047 133.529068,89.427048 133.428635,89.483047 
z"/>
<path fill="#2BB339" opacity="1.000000" stroke="none" 
	d="
M131.012711,116.005547 
	C129.943344,116.929703 128.633850,118.810089 127.846260,118.612297 
	C124.456238,117.760933 119.820808,118.583282 118.874176,112.970978 
	C118.783005,112.577370 118.689270,112.270882 119.069984,111.953766 
	C119.673592,110.781181 119.896492,109.925728 120.496574,109.050423 
	C124.253410,111.355560 127.633064,113.680550 131.012711,116.005547 
z"/>
<path fill="#87898D" opacity="1.000000" stroke="none" 
	d="
M217.985992,158.248932 
	C217.984528,160.963104 217.984528,163.231476 217.984528,165.517685 
	C220.216675,165.891541 221.926941,166.177994 224.707336,166.643661 
	C221.226334,170.516373 217.792511,168.778412 214.092926,168.853928 
	C214.092926,164.971756 213.951736,161.374146 214.172104,157.798813 
	C214.245850,156.602142 215.242493,155.462357 215.817291,154.296570 
	C216.540680,155.465424 217.264069,156.634262 217.985992,158.248932 
z"/>
<path fill="#38B53C" opacity="1.000000" stroke="none" 
	d="
M131.274048,115.894104 
	C127.633064,113.680550 124.253410,111.355560 120.446045,108.678207 
	C120.038307,107.353142 120.058273,106.380432 120.296143,105.280685 
	C120.669434,105.089355 120.824821,105.025070 120.980217,104.960785 
	C126.233322,103.116692 129.128159,106.916687 132.724854,110.204483 
	C133.218430,111.409225 133.416367,112.153999 133.614304,112.898766 
	C133.555496,113.461334 133.496674,114.023911 133.244003,114.797684 
	C132.545212,115.266808 132.040298,115.524734 131.274048,115.894104 
z"/>
<path fill="#89CAF5" opacity="1.000000" stroke="none" 
	d="
M150.356079,86.031837 
	C150.223465,80.351929 150.712723,80.052315 155.669342,82.319664 
	C158.903122,83.798927 162.713394,84.689568 162.693726,89.730484 
	C162.981323,92.030533 163.008423,94.073326 162.988739,96.550110 
	C162.002335,89.839256 156.536057,87.765709 150.356079,86.031837 
z"/>
<path fill="#7AD437" opacity="1.000000" stroke="none" 
	d="
M134.255371,85.761169 
	C131.583282,85.071266 129.091217,84.096680 126.613792,83.086243 
	C124.989319,82.423660 123.385994,81.709221 121.388763,80.585594 
	C120.994431,78.450607 120.984520,76.748039 121.225952,75.030792 
	C121.644920,75.007469 121.812538,74.998817 122.336967,75.030991 
	C126.127335,76.709358 129.560898,78.346893 132.994476,79.984436 
	C133.249603,81.249039 133.504730,82.513641 134.037247,83.927544 
	C134.356964,84.538315 134.399277,84.999786 134.255371,85.761169 
z"/>
<path fill="#4DACE9" opacity="1.000000" stroke="none" 
	d="
M148.995834,113.010872 
	C148.829102,113.010597 148.662354,113.010315 148.245605,113.002151 
	C147.987152,111.918365 147.978699,110.842453 148.059723,109.369270 
	C148.680191,107.844849 149.211166,106.717690 150.256699,105.295120 
	C153.285690,106.056763 155.776398,107.176369 158.325180,108.142845 
	C159.491211,108.584999 160.771576,108.725670 162.000076,109.003067 
	C162.000076,109.003067 162.435410,109.014275 162.652802,109.019226 
	C162.854446,110.749512 162.838715,112.474861 162.352463,114.600952 
	C159.303055,113.586838 156.785690,112.040489 154.126877,110.796410 
	C151.768402,109.692833 149.184647,108.769211 148.995834,113.010872 
z"/>
<path fill="#5AC63C" opacity="1.000000" stroke="none" 
	d="
M121.025177,87.995422 
	C124.605568,85.820808 126.701538,88.521866 129.050949,90.426308 
	C130.523010,91.619576 132.023239,92.778099 133.809250,93.972725 
	C134.224579,95.753387 134.341476,97.513542 134.268021,99.679413 
	C133.842651,100.074089 133.607635,100.062958 132.929047,99.844360 
	C129.508377,95.830078 126.797478,91.623993 121.023254,91.598755 
	C121.018272,90.130829 121.021729,89.063126 121.025177,87.995422 
z"/>
<path fill="#3FA6E8" opacity="1.000000" stroke="none" 
	d="
M149.230530,113.272385 
	C149.184647,108.769211 151.768402,109.692833 154.126877,110.796410 
	C156.785690,112.040489 159.303055,113.586838 162.220734,115.012787 
	C162.573532,115.763634 162.587524,116.503410 162.299515,117.611649 
	C161.997498,117.980118 161.736328,118.063110 161.736328,118.063110 
	C159.569656,117.613586 157.314667,117.403732 155.261261,116.646881 
	C153.223602,115.895836 151.388916,114.594109 149.230530,113.272385 
z"/>
<path fill="#B5DAEC" opacity="1.000000" stroke="none" 
	d="
M101.530960,31.917316 
	C103.132599,32.884296 104.345322,34.738605 105.692741,34.842278 
	C110.448311,35.208176 115.250031,34.974205 120.498352,34.956558 
	C129.015076,34.682396 137.066910,34.380898 145.121506,34.214222 
	C145.953354,34.197010 146.801849,34.983135 147.795410,35.735386 
	C131.325195,36.074261 114.702164,36.074261 96.527985,36.074261 
	C98.741844,34.146065 99.972824,33.073917 101.530960,31.917316 
z"/>
<path fill="#87898D" opacity="1.000000" stroke="none" 
	d="
M314.952637,163.885406 
	C314.954681,161.255997 314.746857,159.069260 315.052277,156.956726 
	C315.190216,156.002792 316.349884,155.196594 317.046021,154.323380 
	C317.629150,155.147781 318.665375,155.945770 318.715240,156.801254 
	C318.907959,160.107178 318.972809,163.448837 318.666168,166.738129 
	C318.575409,167.711334 317.106689,168.556076 316.269440,169.459686 
	C315.907440,169.217056 315.545410,168.974442 315.183411,168.731827 
	C315.106293,167.273987 315.029175,165.816162 314.952637,163.885406 
z"/>
<path fill="#84868A" opacity="1.000000" stroke="none" 
	d="
M344.026550,157.396637 
	C344.026306,160.642380 344.180023,163.449448 343.940948,166.222687 
	C343.856232,167.205765 342.814972,168.106384 342.210388,169.044647 
	C341.496857,168.200668 340.234619,167.397629 340.168060,166.505371 
	C339.924194,163.237305 339.955383,159.931534 340.168823,156.658600 
	C340.222168,155.840454 341.344818,155.092056 341.975983,154.311600 
	C342.659210,155.189270 343.342438,156.066956 344.026550,157.396637 
z"/>
<path fill="#75797F" opacity="1.000000" stroke="none" 
	d="
M245.142487,155.152618 
	C245.445541,158.979523 245.681366,162.476196 245.493988,165.950012 
	C245.429779,167.140152 244.305664,168.273117 243.665787,169.432205 
	C243.063843,169.220322 242.461914,169.008423 241.859970,168.796539 
	C241.859970,164.849350 241.695862,160.889511 241.998047,156.965591 
	C242.058701,156.178131 243.892899,155.527252 245.142487,155.152618 
z"/>
<path fill="#B1DDFA" opacity="1.000000" stroke="none" 
	d="
M141.460022,23.007872 
	C138.585068,22.997608 136.178207,22.983313 133.313232,22.936947 
	C133.378265,22.324245 133.907135,21.233662 134.423660,21.239479 
	C142.171814,21.326788 149.920593,21.503817 157.662537,21.822330 
	C158.686035,21.864437 159.672714,22.800945 160.850433,23.651461 
	C154.658981,23.654409 148.293533,23.329124 141.460022,23.007872 
z"/>
<path fill="#8CCD4E" opacity="1.000000" stroke="none" 
	d="
M121.980164,74.990166 
	C121.812538,74.998817 121.644920,75.007469 120.982483,75.021622 
	C120.487679,75.027115 120.000023,75.038254 120.000031,75.038254 
	C119.920341,74.381416 119.754761,73.722092 119.773743,73.068123 
	C120.106209,61.612766 119.669296,63.146194 109.871811,63.129768 
	C105.886688,63.123085 101.901573,63.115101 97.454910,63.017918 
	C96.993378,62.928123 97.020149,62.464134 97.492073,62.234177 
	C102.307503,61.995152 106.651009,61.986088 110.994514,61.977028 
	C113.038109,61.978832 115.081711,61.980637 117.921432,62.031708 
	C119.808228,64.390366 120.898903,66.699760 121.988609,69.436203 
	C121.985153,71.572220 121.982658,73.281189 121.980164,74.990166 
z"/>
<path fill="#64AF4D" opacity="1.000000" stroke="none" 
	d="
M119.929520,75.498581 
	C120.000023,75.038254 120.487679,75.027115 120.731140,75.036293 
	C120.984520,76.748039 120.994431,78.450607 121.016098,80.580399 
	C121.021645,83.045738 121.015434,85.083870 121.017197,87.558708 
	C121.021729,89.063126 121.018272,90.130829 121.013504,92.014816 
	C121.019035,94.217148 121.025887,95.603203 121.032730,96.989258 
	C121.015396,99.352936 120.998062,101.716606 120.980469,104.520538 
	C120.824821,105.025070 120.669434,105.089355 120.216293,104.912613 
	C119.940102,104.424194 119.961685,104.176804 119.983276,103.929405 
	C119.941856,94.605904 119.900436,85.282402 119.929520,75.498581 
z"/>
<path fill="#0B7AD4" opacity="1.000000" stroke="none" 
	d="
M124.988121,151.669189 
	C125.162422,153.166245 125.068748,154.809280 124.965866,156.613754 
	C122.779099,156.343124 121.216957,156.149796 119.254852,155.918213 
	C120.809967,154.525024 122.765060,153.170074 124.988121,151.669189 
z"/>
<path fill="#B1DDFA" opacity="1.000000" stroke="none" 
	d="
M120.665215,23.123711 
	C117.933350,24.404366 114.822884,25.683001 111.308838,26.940861 
	C114.032379,25.653955 117.159492,24.387823 120.665215,23.123711 
z"/>
<path fill="#2CB23F" opacity="1.000000" stroke="none" 
	d="
M37.978951,64.977371 
	C37.191505,65.298454 36.404060,65.619537 35.296707,65.964996 
	C36.043114,64.669334 37.109432,63.349285 38.574654,61.998390 
	C38.973560,61.967545 39.153042,62.118408 39.076027,62.418919 
	C38.658993,63.472076 38.318974,64.224724 37.978951,64.977371 
z"/>
<path fill="#B1DDFA" opacity="1.000000" stroke="none" 
	d="
M109.672417,27.051197 
	C108.576424,28.013739 107.139503,28.994362 105.334625,29.960693 
	C106.421616,28.987360 107.876549,28.028316 109.672417,27.051197 
z"/>
<path fill="#0B7AD4" opacity="1.000000" stroke="none" 
	d="
M134.687469,143.109375 
	C133.931274,144.319351 132.885315,145.658600 131.470383,147.010803 
	C132.200165,145.762039 133.298950,144.500320 134.687469,143.109375 
z"/>
<path fill="#29A549" opacity="1.000000" stroke="none" 
	d="
M119.888000,104.313553 
	C119.961685,104.176804 119.940102,104.424194 119.998383,105.039658 
	C120.058273,106.380432 120.038307,107.353142 120.068863,108.698059 
	C119.896492,109.925728 119.673592,110.781181 119.180161,111.837387 
	C119.203987,109.591324 119.498352,107.144508 119.888000,104.313553 
z"/>
<path fill="#0B7AD4" opacity="1.000000" stroke="none" 
	d="
M140.443619,159.088898 
	C140.903625,158.146652 141.670456,157.117233 142.832184,156.141602 
	C142.401550,157.130829 141.575989,158.066269 140.443619,159.088898 
z"/>
<path fill="#0B7AD4" opacity="1.000000" stroke="none" 
	d="
M143.493423,156.127914 
	C143.946564,155.189957 144.701584,154.152481 145.823822,153.125473 
	C145.392456,154.100082 144.593872,155.064240 143.493423,156.127914 
z"/>
<path fill="#0B7AD4" opacity="1.000000" stroke="none" 
	d="
M130.732513,147.197571 
	C130.239349,148.054382 129.455627,149.008636 128.303207,149.948273 
	C128.770340,149.054092 129.606155,148.174545 130.732513,147.197571 
z"/>
<path fill="#4CB942" opacity="1.000000" stroke="none" 
	d="
M80.864120,75.765198 
	C79.687393,75.963860 78.204773,76.005463 76.281158,75.980400 
	C77.412857,75.811867 78.985550,75.710014 80.864120,75.765198 
z"/>
<path fill="#B1DDFA" opacity="1.000000" stroke="none" 
	d="
M162.852997,26.696941 
	C162.227524,26.233667 161.619553,25.450821 161.016052,24.321501 
	C161.637192,24.775808 162.253845,25.576591 162.852997,26.696941 
z"/>
<path fill="#B1DDFA" opacity="1.000000" stroke="none" 
	d="
M125.002518,23.723965 
	C124.450241,23.835039 123.900185,23.667334 123.177917,23.262913 
	C123.564400,22.848824 124.123070,22.671448 124.844055,22.690847 
	C125.005806,23.073477 125.005264,23.259333 125.002518,23.723965 
z"/>
<path fill="#08983E" opacity="1.000000" stroke="none" 
	d="
M88.564819,133.139450 
	C87.761024,133.314728 86.568207,133.389709 85.174980,133.207977 
	C86.041641,132.980545 87.108727,133.009842 88.564819,133.139450 
z"/>
<path fill="#29A549" opacity="1.000000" stroke="none" 
	d="
M133.757874,112.577301 
	C133.416367,112.153999 133.218430,111.409225 133.024353,110.367653 
	C133.028214,110.070847 133.451599,110.052460 133.663452,110.055580 
	C133.875320,110.058701 133.959259,109.942154 133.935303,110.179436 
	C133.911362,110.416718 134.013092,110.853012 134.013092,110.853012 
	C133.975876,111.320618 133.938660,111.788231 133.757874,112.577301 
z"/>
<path fill="#0B7AD4" opacity="1.000000" stroke="none" 
	d="
M149.204132,149.695374 
	C149.210342,149.310135 149.472321,148.792740 150.017731,148.175232 
	C150.020752,148.571136 149.740326,149.067169 149.204132,149.695374 
z"/>
<path fill="#29A549" opacity="1.000000" stroke="none" 
	d="
M106.612946,128.863403 
	C106.472816,129.221848 106.032463,129.603821 105.280708,129.981277 
	C105.417114,129.613480 105.864922,129.250198 106.612946,128.863403 
z"/>
<path fill="#29A549" opacity="1.000000" stroke="none" 
	d="
M104.664078,129.986206 
	C104.746933,130.253113 104.509766,130.536697 103.999039,130.896606 
	C103.931664,130.649567 104.137856,130.326248 104.664078,129.986206 
z"/>
<path fill="#22A447" opacity="1.000000" stroke="none" 
	d="
M104.068451,113.068085 
	C104.050537,113.461037 103.952133,113.789665 103.645096,114.275696 
	C103.436462,114.433098 103.174965,114.171150 103.172050,113.841736 
	C103.355637,113.267426 103.574326,113.055786 103.825211,112.877403 
	C103.825211,112.877403 103.987968,113.003761 104.068451,113.068085 
z"/>
<path fill="#A9E25B" opacity="1.000000" stroke="none" 
	d="
M134.144135,110.795029 
	C134.013092,110.853012 133.911362,110.416718 133.999435,110.211761 
	C134.365082,110.186081 134.427643,110.429489 134.144135,110.795029 
z"/>
<path fill="#0B7AD4" opacity="1.000000" stroke="none" 
	d="
M139.316620,160.048859 
	C139.250519,159.826965 139.455017,159.541367 139.915649,159.169785 
	C139.976929,159.384262 139.782074,159.684708 139.316620,160.048859 
z"/>
<path fill="#5BB4EF" opacity="1.000000" stroke="none" 
	d="
M161.806458,118.300110 
	C161.736328,118.063110 161.997498,117.980118 162.128540,117.946548 
	C162.502975,118.158463 162.534348,118.428467 162.187927,118.866257 
	C162.022171,119.009506 161.876572,118.537117 161.806458,118.300110 
z"/>
<path fill="#29A549" opacity="1.000000" stroke="none" 
	d="
M107.754379,128.077789 
	C107.798195,128.306915 107.578308,128.559387 107.103592,128.850143 
	C107.062721,128.626007 107.276695,128.363571 107.754379,128.077789 
z"/>
<path fill="#B1DDFA" opacity="1.000000" stroke="none" 
	d="
M104.727036,30.051720 
	C104.749786,30.224823 104.540756,30.486477 104.079010,30.805285 
	C103.983665,30.560919 104.206657,30.320196 104.727036,30.051720 
z"/>
<path fill="#0B7AD4" opacity="1.000000" stroke="none" 
	d="
M126.661781,150.822296 
	C126.681747,151.075394 126.444038,151.346573 125.933258,151.529800 
	C125.908157,151.241364 126.156136,151.040878 126.661781,150.822296 
z"/>
<path fill="#2CB23F" opacity="1.000000" stroke="none" 
	d="
M39.879589,60.881367 
	C40.082527,60.613213 40.285461,60.345055 40.746017,60.041039 
	C41.003643,60.005180 41.084160,60.123756 40.971626,60.353687 
	C40.643452,60.806782 40.395996,60.986042 40.057713,61.061127 
	C39.998692,61.000854 39.879589,60.881367 39.879589,60.881367 
z"/>
<path fill="#29A549" opacity="1.000000" stroke="none" 
	d="
M124.344864,134.049927 
	C124.243782,133.830872 124.399689,133.535522 124.792252,133.138397 
	C124.886551,133.348984 124.744194,133.661301 124.344864,134.049927 
z"/>
<path fill="#2CB23F" opacity="1.000000" stroke="none" 
	d="
M38.886547,61.888977 
	C38.993404,61.540421 39.187271,61.270424 39.630363,60.940895 
	C39.879589,60.881367 39.998692,61.000854 39.924915,61.252773 
	C39.648613,61.743587 39.415913,61.948158 39.153042,62.118408 
	C39.153042,62.118408 38.973560,61.967545 38.886547,61.888977 
z"/>
<path fill="#29A549" opacity="1.000000" stroke="none" 
	d="
M123.380219,135.139496 
	C123.283745,134.919556 123.447266,134.599442 123.870529,134.178497 
	C123.966911,134.398193 123.803566,134.718765 123.380219,135.139496 
z"/>
<path fill="#0B7AD4" opacity="1.000000" stroke="none" 
	d="
M135.702301,141.937561 
	C135.779434,142.130081 135.608078,142.429321 135.206696,142.855347 
	C135.135727,142.669510 135.294769,142.356888 135.702301,141.937561 
z"/>
<path fill="#0B7AD4" opacity="1.000000" stroke="none" 
	d="
M146.358704,153.099945 
	C146.263397,152.879303 146.435638,152.572968 146.851074,152.151184 
	C146.938263,152.361908 146.782242,152.688080 146.358704,153.099945 
z"/>
<path fill="#0B7AD4" opacity="1.000000" stroke="none" 
	d="
M127.685394,149.978912 
	C127.745888,150.201935 127.535843,150.478561 127.070282,150.835190 
	C127.014801,150.620956 127.214828,150.326752 127.685394,149.978912 
z"/>
<path fill="#0B7AD4" opacity="1.000000" stroke="none" 
	d="
M147.285553,152.002197 
	C147.210602,151.811981 147.381134,151.529709 147.769363,151.123032 
	C147.835052,151.302475 147.683044,151.606293 147.285553,152.002197 
z"/>
<path fill="#F2F2F3" opacity="1.000000" stroke="none" 
	d="
M254.613739,119.389008 
	C256.031921,121.049713 257.105591,122.558876 258.415375,123.823441 
	C259.606964,124.973839 261.055084,125.858482 262.867828,127.218758 
	C257.754089,131.447708 252.890686,133.075974 247.866379,130.944168 
	C245.186676,129.807175 242.155884,126.951195 241.433777,124.288025 
	C240.020157,119.074509 244.084381,115.867058 248.381775,112.697929 
	C250.393372,114.858177 252.382721,116.994537 254.613739,119.389008 
z"/>
<path fill="#F2F2F3" opacity="1.000000" stroke="none" 
	d="
M260.085266,89.872635 
	C258.365814,93.461380 256.654419,96.641678 254.879608,99.939789 
	C248.944061,95.767975 247.231888,91.764183 248.638931,87.617760 
	C249.760132,84.313705 252.215714,83.494705 255.276077,83.736305 
	C258.753662,84.010841 260.099579,86.198242 260.085266,89.872635 
z"/>
<path fill="#F2F2F3" opacity="1.000000" stroke="none" 
	d="
M194.306641,107.011246 
	C193.294525,106.137192 192.287430,105.295197 192.266220,104.429047 
	C192.124313,98.635712 192.192490,92.837219 192.192490,86.041763 
	C196.846054,86.381355 201.301941,86.225731 205.526123,87.140343 
	C210.453690,88.207260 213.114410,92.708450 212.707870,97.677742 
	C212.319656,102.423073 209.192230,105.957108 204.209641,106.666756 
	C201.107895,107.108513 197.918045,106.931465 194.306641,107.011246 
z"/>
<path fill="#0AA437" opacity="1.000000" stroke="none" 
	d="
M111.217171,128.234634 
	C113.344437,125.042847 115.709793,122.122612 117.964607,119.338860 
	C121.492378,120.205399 124.920265,121.047401 129.062775,122.064934 
	C127.952019,124.446281 126.759460,127.002998 125.309166,129.786530 
	C122.131889,128.921875 119.212334,127.830437 116.627617,126.864174 
	C114.942017,127.399284 113.198647,127.952736 111.217171,128.234634 
z"/>
<path fill="#08983E" opacity="1.000000" stroke="none" 
	d="
M62.585686,125.400055 
	C62.762566,124.506828 63.179550,123.858803 63.596539,123.210785 
	C63.994671,123.616226 64.392799,124.021667 64.790924,124.427116 
	C64.135880,124.833160 63.480831,125.239204 62.585686,125.400055 
z"/>
<path fill="#079A41" opacity="1.000000" stroke="none" 
	d="
M33.658218,133.962753 
	C35.912563,144.834274 35.246319,155.613419 32.658272,166.817932 
	C31.295694,164.339966 29.933119,161.861984 28.422112,159.114090 
	C27.096664,160.183701 26.136656,160.958405 24.266895,162.467285 
	C21.802229,151.488419 23.556555,141.133514 23.016273,130.458801 
	C24.701588,129.500183 26.378948,129.011444 27.346378,128.729553 
	C29.468033,130.576691 31.388813,132.248947 33.658218,133.962753 
z"/>
<path fill="#34B933" opacity="1.000000" stroke="none" 
	d="
M89.044136,78.326134 
	C96.110970,76.036896 100.632866,80.136536 103.875481,85.307304 
	C105.546631,87.972176 105.269409,91.858879 105.908226,95.600716 
	C101.826622,96.446159 101.669830,92.640411 99.863419,90.499084 
	C96.426018,86.424355 92.688843,82.602516 89.044136,78.326134 
z"/>
<path fill="#17AE34" opacity="1.000000" stroke="none" 
	d="
M103.875702,112.469574 
	C103.574326,113.055786 103.355637,113.267426 103.046875,113.705429 
	C95.144524,113.247429 94.094887,112.115753 93.963058,104.738136 
	C93.928307,102.793694 93.462715,100.856941 93.179634,98.515610 
	C94.056053,98.373314 95.182632,98.374474 95.798492,98.935883 
	C98.327065,101.240898 100.700180,103.716446 103.926201,105.290848 
	C103.926201,107.547813 103.926201,109.804771 103.875702,112.469574 
z"/>
<path fill="#34B933" opacity="1.000000" stroke="none" 
	d="
M65.432968,62.021946 
	C61.734623,59.585003 58.422417,57.130966 55.058495,54.334366 
	C59.257900,51.878426 63.444397,50.792194 67.240524,54.869488 
	C68.498550,56.220688 69.695580,57.628674 70.920494,59.010696 
	C69.220039,60.008755 67.519577,61.006805 65.432968,62.021946 
z"/>
<path fill="#13AF37" opacity="1.000000" stroke="none" 
	d="
M39.076027,62.418919 
	C39.415913,61.948158 39.648613,61.743587 39.983936,61.313046 
	C40.395996,60.986042 40.643452,60.806782 41.011917,60.412956 
	C46.376492,59.427841 50.624134,60.842205 53.666134,65.705070 
	C52.451366,67.226135 51.250195,68.730179 49.968697,70.555557 
	C49.479969,70.918846 49.071571,70.960793 48.355423,71.013596 
	C44.927902,69.038933 41.808125,67.053421 38.333649,65.022644 
	C38.318974,64.224724 38.658993,63.472076 39.076027,62.418919 
z"/>
<path fill="#98E034" opacity="1.000000" stroke="none" 
	d="
M121.989571,69.009155 
	C120.898903,66.699760 119.808228,64.390366 118.359253,62.024208 
	C116.873543,60.558727 115.746117,59.150009 114.607704,57.727562 
	C114.746658,55.907150 114.907913,53.794647 115.032654,51.327267 
	C117.479393,50.980907 120.024612,50.661514 122.423782,51.114933 
	C123.985214,51.410023 125.480766,52.665791 126.738243,53.790382 
	C128.081512,54.991703 129.216766,56.471882 130.240509,57.968708 
	C130.979187,59.048725 131.721649,60.313023 131.879669,61.568478 
	C132.364899,65.423691 132.569641,69.314201 132.570465,73.554619 
	C128.834869,72.281883 125.412224,70.645515 121.989571,69.009155 
z"/>
<path fill="#88DB34" opacity="1.000000" stroke="none" 
	d="
M121.988609,69.436203 
	C125.412224,70.645515 128.834869,72.281883 132.607544,73.954514 
	C132.976501,75.704033 132.995407,77.417274 133.004395,79.557480 
	C129.560898,78.346893 126.127335,76.709358 122.336967,75.030991 
	C121.982658,73.281189 121.985153,71.572220 121.988609,69.436203 
z"/>
<path fill="#F2F2F3" opacity="1.000000" stroke="none" 
	d="
M353.377533,159.524033 
	C355.487427,159.049377 358.002625,158.173767 359.108063,159.058868 
	C360.090057,159.845108 360.015442,162.774002 359.413666,164.386368 
	C359.087128,165.261398 355.605316,166.028534 355.404816,165.702271 
	C354.336029,163.963470 353.854401,161.863770 353.377533,159.524033 
z"/>
<path fill="#0D91E7" opacity="1.000000" stroke="none" 
	d="
M145.321777,130.042908 
	C145.618423,126.295105 147.178619,124.987961 150.644058,127.517921 
	C151.741653,128.319214 153.238724,128.800491 154.607361,128.959167 
	C158.198181,129.375473 158.311203,131.032211 156.286148,133.791656 
	C152.458725,132.980728 148.042633,134.243484 145.321777,130.042908 
z"/>
<path fill="#7FD639" opacity="1.000000" stroke="none" 
	d="
M110.986832,61.609955 
	C106.651009,61.986088 102.307503,61.995152 97.504486,62.002129 
	C97.044983,62.000038 97.017090,61.505394 97.429405,61.255661 
	C99.423271,60.926861 101.004814,60.847790 102.739258,60.761074 
	C101.721115,56.816803 100.847839,53.433758 99.974571,50.050713 
	C103.754219,50.548416 106.900154,51.449913 107.441132,56.259674 
	C107.640358,58.030983 109.744102,59.588085 110.986832,61.609955 
z"/>
<path fill="#73D333" opacity="1.000000" stroke="none" 
	d="
M99.599777,50.036415 
	C100.847839,53.433758 101.721115,56.816803 102.739258,60.761074 
	C101.004814,60.847790 99.423271,60.926861 97.426193,61.007965 
	C96.009422,58.850216 95.057182,56.665970 93.994354,54.536922 
	C92.707840,51.959805 93.723862,50.647903 96.621246,50.031471 
	C97.721375,49.999439 98.473183,50.010777 99.599777,50.036415 
z"/>
<path fill="#5BB4EF" opacity="1.000000" stroke="none" 
	d="
M162.000671,108.598831 
	C160.771576,108.725670 159.491211,108.584999 158.325180,108.142845 
	C155.776398,107.176369 153.285690,106.056763 150.383789,104.997864 
	C149.996338,102.895523 149.996338,100.795006 149.996338,98.694496 
	C150.349304,98.464478 150.702286,98.234467 151.055252,98.004448 
	C154.185410,102.030136 162.153030,100.187958 162.000671,108.598831 
z"/>
<path fill="#4FC237" opacity="1.000000" stroke="none" 
	d="
M121.411911,96.994400 
	C121.025887,95.603203 121.019035,94.217148 121.021935,92.415039 
	C126.797478,91.623993 129.508377,95.830078 132.752258,99.842445 
	C132.887711,103.738495 131.384491,103.336250 129.014694,101.572372 
	C126.735161,99.875671 124.208923,98.510429 121.411911,96.994400 
z"/>
<path fill="#7AD437" opacity="1.000000" stroke="none" 
	d="
M133.478851,89.455048 
	C133.529068,89.427048 133.428635,89.483047 133.478851,89.455048 
z"/>
</svg>